<svg xmlns="http://www.w3.org/2000/svg" xmlns:xlink="http://www.w3.org/1999/xlink" width="500" zoomAndPan="magnify" viewBox="0 0 375 374.999991" height="500" preserveAspectRatio="xMidYMid meet" version="1.0"><defs><clipPath id="e91b1fdf36"><path d="M 78.53125 86.308594 L 311 86.308594 L 311 311.308594 L 78.53125 311.308594 Z M 78.53125 86.308594 " clip-rule="nonzero"/></clipPath></defs><g clip-path="url(#e91b1fdf36)"><path d="M 108.613281 124.675781 L 108.613281 165.632812 C 108.613281 167.449219 107.136719 168.925781 105.320312 168.925781 C 103.503906 168.925781 102.03125 167.449219 102.03125 165.632812 L 102.03125 121.382812 C 102.03125 120.511719 102.378906 119.671875 102.996094 119.054688 L 134.605469 87.445312 C 135.222656 86.828125 136.058594 86.484375 136.933594 86.484375 L 258.859375 86.484375 C 260.675781 86.484375 262.148438 87.957031 262.148438 89.773438 L 262.148438 188.105469 C 262.148438 189.921875 260.675781 191.398438 258.859375 191.398438 C 257.042969 191.398438 255.570312 189.921875 255.570312 188.105469 L 255.570312 93.0625 L 140.222656 93.0625 L 140.222656 121.382812 C 140.222656 123.199219 138.75 124.675781 136.933594 124.675781 Z M 133.640625 97.71875 L 113.265625 118.09375 L 133.640625 118.09375 Z M 179.175781 289.617188 C 177.355469 289.617188 175.882812 288.140625 175.882812 286.324219 C 175.882812 284.507812 177.355469 283.035156 179.175781 283.035156 L 255.570312 283.035156 L 255.570312 254.4375 C 255.570312 252.621094 257.042969 251.148438 258.859375 251.148438 C 260.675781 251.148438 262.148438 252.621094 262.148438 254.4375 L 262.148438 286.324219 C 262.148438 288.140625 260.675781 289.617188 258.859375 289.617188 Z M 177.53125 190.277344 C 175.714844 190.277344 174.238281 188.804688 174.238281 186.988281 C 174.238281 185.171875 175.714844 183.695312 177.53125 183.695312 L 237.984375 183.695312 C 239.800781 183.695312 241.277344 185.171875 241.277344 186.988281 C 241.277344 188.804688 239.800781 190.277344 237.984375 190.277344 Z M 171.777344 214.539062 C 169.960938 214.539062 168.488281 213.066406 168.488281 211.25 C 168.488281 209.433594 169.960938 207.957031 171.777344 207.957031 L 237.984375 207.957031 C 239.800781 207.957031 241.277344 209.433594 241.277344 211.25 C 241.277344 213.066406 239.800781 214.539062 237.984375 214.539062 Z M 171.839844 238.8125 C 170.023438 238.8125 168.546875 237.335938 168.546875 235.519531 C 168.546875 233.703125 170.023438 232.230469 171.839844 232.230469 L 237.984375 232.230469 C 239.800781 232.230469 241.277344 233.703125 241.277344 235.519531 C 241.277344 237.335938 239.800781 238.8125 237.984375 238.8125 Z M 126.195312 166.019531 C 124.378906 166.019531 122.90625 164.542969 122.90625 162.726562 C 122.90625 160.910156 124.378906 159.4375 126.195312 159.4375 L 237.984375 159.4375 C 239.800781 159.4375 241.277344 160.910156 241.277344 162.726562 C 241.277344 164.542969 239.800781 166.019531 237.984375 166.019531 Z M 182.089844 101.667969 C 196.875 101.667969 208.875 113.667969 208.875 128.453125 C 208.875 143.234375 196.875 155.238281 182.089844 155.238281 C 167.308594 155.238281 155.304688 143.234375 155.304688 128.453125 C 155.304688 113.667969 167.308594 101.667969 182.089844 101.667969 Z M 182.089844 108.25 C 170.941406 108.25 161.886719 117.300781 161.886719 128.453125 C 161.886719 139.601562 170.941406 148.65625 182.089844 148.65625 C 193.242188 148.65625 202.292969 139.601562 202.292969 128.453125 C 202.292969 117.300781 193.242188 108.25 182.089844 108.25 Z M 168.007812 128.828125 C 166.640625 127.632812 166.503906 125.550781 167.699219 124.1875 C 168.898438 122.820312 170.980469 122.683594 172.34375 123.878906 C 172.34375 123.878906 178.648438 129.40625 178.648438 129.40625 L 191.855469 117.996094 C 193.230469 116.808594 195.308594 116.960938 196.496094 118.335938 C 197.683594 119.710938 197.53125 121.789062 196.15625 122.976562 L 180.78125 136.257812 C 179.539062 137.332031 177.695312 137.324219 176.460938 136.242188 Z M 218.496094 258.925781 L 218.71875 258.507812 C 220.367188 255.429688 224.1875 254.25 227.285156 255.863281 L 229.796875 257.171875 C 231.863281 255.109375 237.480469 252.652344 237.480469 252.652344 C 239.15625 251.953125 241.085938 252.746094 241.785156 254.421875 C 242.484375 256.097656 241.691406 258.027344 240.015625 258.726562 C 240.015625 258.726562 235.851562 260.347656 234.476562 261.804688 C 232.519531 263.875 229.421875 264.398438 226.890625 263.082031 L 224.425781 261.792969 L 224.070312 262.453125 C 222.863281 264.707031 220.433594 266.019531 217.890625 265.796875 C 215.34375 265.570312 213.179688 263.851562 212.386719 261.425781 C 212.386719 261.425781 211.035156 257.289062 210.621094 256.019531 L 205.386719 263.179688 C 204.3125 264.648438 202.253906 264.96875 200.785156 263.894531 C 199.320312 262.824219 199 260.765625 200.070312 259.296875 L 205.542969 251.8125 C 206.953125 249.882812 209.328125 248.902344 211.691406 249.277344 C 214.054688 249.652344 216.007812 251.320312 216.753906 253.597656 Z M 308.996094 169.015625 L 308.996094 169.019531 L 270.007812 236.550781 C 269.78125 236.941406 269.476562 237.285156 269.113281 237.550781 L 249.914062 251.734375 C 248.875 252.5 247.488281 252.589844 246.359375 251.964844 C 245.234375 251.339844 244.574219 250.113281 244.675781 248.828125 L 246.601562 224.675781 C 246.640625 224.1875 246.789062 223.714844 247.035156 223.292969 L 286.035156 155.746094 C 289.679688 149.433594 297.832031 147.25 304.144531 150.894531 C 310.46875 154.539062 312.65625 162.6875 308.996094 169.015625 Z M 286.09375 168.808594 L 254.464844 223.585938 L 266.035156 230.265625 L 297.664062 175.484375 Z M 300.953125 169.785156 L 303.296875 165.726562 L 303.296875 165.722656 C 305.140625 162.535156 304.042969 158.433594 300.855469 156.597656 L 300.855469 156.59375 C 297.675781 154.757812 293.570312 155.859375 291.734375 159.039062 L 289.382812 163.109375 Z M 252.765625 230.207031 L 251.8125 242.148438 L 261.308594 235.136719 Z M 78.53125 227.277344 L 78.53125 184.890625 C 78.53125 183.070312 80.003906 181.597656 81.820312 181.597656 C 81.820312 181.597656 101.167969 181.597656 101.167969 181.597656 C 101.542969 180.6875 101.976562 179.789062 102.476562 178.933594 C 105.050781 174.511719 109.25 171.046875 116.050781 171.136719 L 133.847656 171.136719 C 138.289062 171.136719 142.101562 173.933594 143.621094 177.847656 L 160.3125 177.847656 C 165.402344 177.847656 169.683594 181.53125 170.605469 186.375 C 170.726562 187.007812 170.789062 187.660156 170.789062 188.324219 C 170.789062 192.34375 168.492188 195.855469 165.144531 197.613281 C 165.988281 199.121094 166.46875 200.855469 166.46875 202.699219 C 166.46875 206.722656 164.171875 210.234375 160.824219 211.988281 C 161.667969 213.496094 162.144531 215.230469 162.144531 217.070312 C 162.144531 221.097656 159.847656 224.609375 156.5 226.359375 C 157.007812 227.269531 157.386719 228.261719 157.605469 229.308594 L 161.53125 234.421875 C 173.882812 250.519531 177.550781 271.261719 168.898438 287.847656 C 166.972656 291.539062 164.4375 295.027344 161.246094 298.222656 C 143.613281 315.855469 114.757812 315.855469 97.125 298.222656 C 79.546875 280.644531 85.246094 259.566406 100.308594 239.839844 L 101.960938 236.625 C 100.636719 234.90625 99.664062 232.839844 99.175781 230.570312 L 81.820312 230.570312 C 80.003906 230.570312 78.53125 229.09375 78.53125 227.277344 Z M 138.171875 220.964844 L 151.667969 220.964844 C 153.8125 220.964844 155.566406 219.214844 155.566406 217.070312 C 155.566406 215.773438 154.917969 214.625 153.9375 213.914062 C 153.300781 213.449219 152.515625 213.175781 151.667969 213.175781 L 142.996094 213.175781 C 142.9375 213.277344 142.878906 213.378906 142.816406 213.480469 C 141.105469 216.316406 138.082031 218.300781 134.558594 218.535156 C 135.140625 219.957031 136.542969 220.964844 138.171875 220.964844 Z M 155.746094 237.691406 C 153.832031 240.257812 150.777344 241.925781 147.347656 241.925781 L 133.847656 241.925781 C 128.082031 241.925781 123.371094 237.207031 123.371094 231.449219 C 123.371094 227.425781 125.667969 223.910156 129.015625 222.15625 C 128.171875 220.648438 127.6875 218.914062 127.6875 217.070312 C 127.6875 216.898438 127.691406 216.726562 127.699219 216.554688 C 127.011719 216.054688 126.382812 215.46875 125.832031 214.816406 L 120.574219 214.816406 L 106.027344 243.109375 C 105.9375 243.285156 105.832031 243.453125 105.710938 243.609375 C 92.742188 260.507812 86.714844 278.503906 101.777344 293.566406 C 116.851562 308.640625 141.519531 308.640625 156.59375 293.566406 C 159.289062 290.871094 161.4375 287.921875 163.0625 284.804688 C 170.582031 270.390625 167.042969 252.414062 156.308594 238.429688 Z M 128.363281 252.238281 L 128.324219 250.6875 C 128.28125 248.871094 129.722656 247.363281 131.539062 247.320312 C 133.355469 247.277344 134.863281 248.714844 134.90625 250.53125 L 134.949219 252.308594 C 135.976562 252.609375 137.035156 253.023438 138 253.53125 C 139.59375 254.375 140.910156 255.480469 141.644531 256.597656 C 142.644531 258.113281 142.222656 260.15625 140.703125 261.15625 C 139.1875 262.152344 137.144531 261.730469 136.144531 260.214844 C 135.917969 259.863281 135.429688 259.617188 134.925781 259.351562 C 133.859375 258.785156 132.585938 258.359375 131.710938 258.359375 C 129.152344 258.359375 126.90625 260.011719 126.90625 262.292969 C 126.90625 264.578125 129.148438 266.234375 131.710938 266.234375 C 138.097656 266.234375 143.097656 271.050781 143.097656 276.75 C 143.097656 281.402344 139.765625 285.472656 135.066406 286.8125 L 135.097656 288.09375 C 135.140625 289.90625 133.699219 291.417969 131.882812 291.460938 C 130.070312 291.503906 128.558594 290.066406 128.515625 288.25 L 128.484375 286.898438 C 126.265625 286.320312 124.601562 285.082031 122.675781 283.257812 C 121.359375 282.011719 121.300781 279.925781 122.550781 278.605469 C 123.800781 277.289062 125.886719 277.230469 127.203125 278.480469 C 128.601562 279.804688 129.652344 280.691406 131.710938 280.691406 C 134.269531 280.691406 136.515625 279.035156 136.515625 276.75 C 136.515625 274.46875 134.269531 272.816406 131.710938 272.816406 C 125.324219 272.816406 120.324219 267.992188 120.324219 262.292969 C 120.324219 257.636719 123.660156 253.570312 128.363281 252.238281 Z M 117.84375 203.664062 L 120.46875 208.234375 L 123.367188 208.234375 C 123.367188 208.183594 123.367188 208.128906 123.367188 208.078125 L 123.367188 201.1875 C 121.824219 202.347656 120 203.214844 117.84375 203.664062 Z M 145.738281 235.34375 L 147.347656 235.34375 C 149.492188 235.34375 151.242188 233.585938 151.242188 231.441406 C 151.242188 229.300781 149.492188 227.546875 147.347656 227.546875 L 133.847656 227.546875 C 131.703125 227.546875 129.953125 229.304688 129.953125 231.449219 C 129.953125 233.445312 131.480469 235.109375 133.425781 235.320312 C 137.527344 235.332031 141.628906 235.34375 145.738281 235.34375 Z M 137.746094 181.613281 C 137.746094 181.527344 137.742188 181.441406 137.734375 181.355469 C 137.601562 179.335938 135.90625 177.71875 133.847656 177.71875 L 116.03125 177.71875 C 116.011719 177.71875 115.996094 177.71875 115.980469 177.71875 C 112.054688 177.660156 109.652344 179.691406 108.167969 182.242188 C 107.5 183.386719 107.003906 184.628906 106.625 185.859375 C 106.199219 187.238281 104.925781 188.179688 103.480469 188.179688 L 85.113281 188.179688 L 85.113281 223.988281 L 102.121094 223.988281 C 103.9375 223.988281 105.410156 225.460938 105.410156 227.277344 C 105.410156 228.019531 105.5 228.738281 105.664062 229.421875 L 114.820312 211.613281 L 109.5 202.355469 C 109.222656 201.875 109.0625 201.316406 109.0625 200.71875 C 109.0625 198.902344 110.539062 197.425781 112.355469 197.425781 L 114.113281 197.425781 C 114.128906 197.425781 114.148438 197.425781 114.164062 197.425781 C 118.679688 197.496094 121.164062 194.78125 122.59375 191.683594 C 122.957031 190.886719 123.261719 190.0625 123.507812 189.242188 C 123.984375 187.683594 125.53125 186.707031 127.140625 186.949219 C 128.753906 187.1875 129.949219 188.574219 129.949219 190.203125 L 129.949219 208.078125 C 129.949219 208.691406 130.09375 209.273438 130.347656 209.789062 C 130.371094 209.839844 130.398438 209.886719 130.425781 209.9375 C 130.878906 210.757812 131.617188 211.402344 132.5 211.734375 C 132.921875 211.890625 133.375 211.976562 133.847656 211.976562 C 135.273438 211.976562 136.503906 211.203125 137.183594 210.078125 C 137.242188 209.984375 137.292969 209.886719 137.34375 209.789062 C 137.457031 209.554688 137.550781 209.304688 137.621094 209.050781 C 137.628906 209.019531 137.632812 208.992188 137.640625 208.960938 C 137.707031 208.675781 137.746094 208.378906 137.746094 208.078125 L 137.746094 183.136719 C 137.71875 182.949219 137.710938 182.757812 137.722656 182.570312 C 137.734375 182.25 137.746094 181.933594 137.746094 181.613281 Z M 144.328125 206.59375 L 155.992188 206.59375 C 158.132812 206.59375 159.886719 204.84375 159.886719 202.699219 C 159.886719 200.554688 158.132812 198.800781 155.992188 198.800781 L 144.328125 198.800781 Z M 144.328125 192.222656 L 160.3125 192.222656 C 162.453125 192.222656 164.207031 190.464844 164.207031 188.324219 C 164.207031 188.078125 164.183594 187.835938 164.140625 187.601562 C 163.796875 185.800781 162.207031 184.429688 160.3125 184.429688 L 144.328125 184.429688 Z M 144.328125 192.222656 " fill-opacity="1" fill-rule="evenodd"/></g></svg>