<svg xmlns="http://www.w3.org/2000/svg" xmlns:xlink="http://www.w3.org/1999/xlink" width="500" zoomAndPan="magnify" viewBox="0 0 375 374.999991" height="500" preserveAspectRatio="xMidYMid meet" version="1.0"><defs><clipPath id="e847d0d2de"><path d="M 156 145 L 304.863281 145 L 304.863281 294.527344 L 156 294.527344 Z M 156 145 " clip-rule="nonzero"/></clipPath><clipPath id="2c46e38a47"><path d="M 82.863281 279 L 165 279 L 165 294.527344 L 82.863281 294.527344 Z M 82.863281 279 " clip-rule="nonzero"/></clipPath><clipPath id="6f64ad0b5e"><path d="M 82.863281 72.527344 L 276 72.527344 L 276 269 L 82.863281 269 Z M 82.863281 72.527344 " clip-rule="nonzero"/></clipPath></defs><g clip-path="url(#e847d0d2de)"><path d="M 289.175781 265.109375 C 285.070312 262.410156 280.480469 260.226562 275.484375 258.636719 C 271.972656 228 253.25 206.242188 239.855469 194.367188 C 245.480469 191.589844 251.65625 190.039062 257.949219 189.851562 C 260.871094 189.785156 262.390625 189.804688 263.496094 187.261719 C 263.980469 185.746094 263.460938 184.082031 262.203125 183.117188 C 250.621094 174.460938 240.742188 173.164062 235.042969 173.460938 C 237.5625 158.734375 252.398438 152.519531 253.0625 152.261719 C 254.730469 151.59375 255.652344 149.855469 255.320312 148.117188 C 254.988281 146.378906 253.472656 145.121094 251.695312 145.121094 C 227.015625 145.121094 216.988281 155.960938 213.105469 162.992188 L 200.488281 150.335938 C 199.414062 149.265625 197.824219 148.929688 196.453125 149.523438 C 195.046875 150.078125 194.160156 151.445312 194.160156 152.925781 C 194.160156 161.511719 195.972656 169.945312 197.269531 174.792969 C 165.632812 181.007812 157.34375 208.6875 157.011719 209.90625 C 155.855469 213.464844 160.636719 216.253906 163.191406 213.570312 C 177.207031 199.574219 190.648438 197.695312 197.414062 197.695312 C 192.992188 221.042969 200.734375 231.785156 209.253906 237.65625 C 209.441406 237.769531 209.589844 237.878906 209.738281 237.953125 C 209.847656 238.0625 209.957031 238.136719 210.03125 238.175781 C 211.421875 239.414062 213.65625 239.261719 214.992188 237.953125 C 215.953125 236.992188 216.285156 235.585938 215.914062 234.328125 C 215.324219 224.816406 218.097656 215.566406 223.761719 207.796875 C 232.453125 217.085938 244.441406 233.476562 247.515625 255.378906 C 236.15625 256.230469 225.535156 259.632812 217.285156 265.148438 L 217.246094 265.148438 C 207.148438 271.917969 201.597656 281.058594 201.597656 290.824219 C 201.597656 292.859375 203.261719 294.527344 205.296875 294.527344 L 301.164062 294.527344 C 303.199219 294.527344 304.863281 292.859375 304.863281 290.824219 C 304.863281 281.058594 299.3125 271.917969 289.175781 265.109375 Z M 289.175781 265.109375 " fill-opacity="1" fill-rule="nonzero"/></g><g clip-path="url(#2c46e38a47)"><path d="M 160.5625 279.726562 C 154.640625 279.726562 151.511719 282.226562 149 284.234375 C 145.226562 288.035156 138.921875 288.09375 135.113281 284.234375 C 128.976562 278.277344 118.109375 278.273438 111.984375 284.234375 C 108.1875 288.070312 101.914062 288.074219 98.117188 284.238281 C 95.605469 282.226562 92.484375 279.726562 86.5625 279.726562 C 81.722656 279.800781 81.679688 287.042969 86.5625 287.125 C 89.882812 287.125 91.320312 288.273438 93.492188 290.011719 C 99.550781 295.976562 110.574219 295.953125 116.609375 290.011719 C 118.78125 288.273438 120.21875 287.125 123.542969 287.125 C 126.875 287.125 128.390625 288.339844 130.492188 290.015625 C 136.589844 295.96875 147.511719 295.972656 153.621094 290.015625 C 155.796875 288.273438 157.234375 287.125 160.5625 287.125 C 165.402344 287.054688 165.445312 279.808594 160.5625 279.726562 Z M 160.5625 279.726562 " fill-opacity="1" fill-rule="nonzero"/></g><path d="M 197.5625 261.226562 C 191.640625 261.226562 188.511719 263.726562 186 265.734375 C 182.226562 269.535156 175.921875 269.59375 172.113281 265.734375 C 165.976562 259.777344 155.109375 259.773438 148.984375 265.734375 C 145.1875 269.570312 138.914062 269.574219 135.117188 265.738281 C 132.605469 263.726562 129.484375 261.226562 123.5625 261.226562 C 118.722656 261.300781 118.679688 268.542969 123.5625 268.625 C 126.882812 268.625 128.320312 269.773438 130.492188 271.511719 C 136.550781 277.476562 147.574219 277.453125 153.609375 271.511719 C 155.78125 269.773438 157.21875 268.625 160.542969 268.625 C 163.875 268.625 165.390625 269.839844 167.492188 271.515625 C 173.589844 277.46875 184.511719 277.472656 190.621094 271.515625 C 192.796875 269.773438 194.234375 268.625 197.5625 268.625 C 202.402344 268.554688 202.445312 261.308594 197.5625 261.226562 Z M 197.5625 261.226562 " fill-opacity="1" fill-rule="nonzero"/><g clip-path="url(#6f64ad0b5e)"><path d="M 86.5625 268.625 C 88.597656 268.625 90.265625 266.960938 90.265625 264.925781 L 90.265625 135.425781 L 267.863281 135.425781 L 267.863281 172.425781 C 267.863281 172.878906 267.9375 173.328125 268.132812 173.75 C 268.238281 174.019531 268.40625 174.238281 268.566406 174.46875 C 268.691406 174.664062 268.777344 174.875 268.9375 175.050781 C 269.113281 175.210938 269.324219 175.296875 269.519531 175.421875 C 270.679688 176.335938 272.449219 176.335938 273.609375 175.421875 C 273.800781 175.296875 274.011719 175.210938 274.191406 175.050781 C 274.347656 174.875 274.4375 174.664062 274.5625 174.46875 C 274.96875 173.875 275.265625 173.199219 275.265625 172.425781 L 275.265625 94.726562 C 275.265625 92.691406 273.597656 91.027344 271.5625 91.027344 L 253.0625 91.027344 L 253.0625 76.226562 C 253.0625 74.191406 251.398438 72.527344 249.363281 72.527344 L 219.765625 72.527344 C 217.730469 72.527344 216.0625 74.191406 216.0625 76.226562 L 216.0625 91.027344 L 142.0625 91.027344 L 142.0625 76.226562 C 142.0625 74.191406 140.398438 72.527344 138.363281 72.527344 L 108.765625 72.527344 C 106.730469 72.527344 105.0625 74.191406 105.0625 76.226562 L 105.0625 91.027344 L 86.5625 91.027344 C 84.527344 91.027344 82.863281 92.691406 82.863281 94.726562 C 82.863281 119 82.863281 238.199219 82.863281 264.925781 C 82.863281 266.960938 84.527344 268.625 86.5625 268.625 Z M 223.464844 79.925781 L 245.664062 79.925781 L 245.664062 91.027344 L 223.464844 91.027344 Z M 112.464844 79.925781 L 134.664062 79.925781 L 134.664062 91.027344 L 112.464844 91.027344 Z M 112.464844 79.925781 " fill-opacity="1" fill-rule="nonzero"/></g><path d="M 149.464844 157.625 C 154.3125 157.558594 154.335938 150.300781 149.464844 150.226562 C 149.464844 150.226562 105.0625 150.226562 105.0625 150.226562 C 103.019531 150.226562 101.363281 151.878906 101.363281 153.925781 L 101.363281 198.324219 C 101.363281 200.371094 103.019531 202.027344 105.0625 202.027344 L 149.464844 202.027344 C 154.320312 201.941406 154.335938 194.710938 149.464844 194.625 C 149.464844 194.625 108.765625 194.625 108.765625 194.625 L 108.765625 157.625 Z M 149.464844 157.625 " fill-opacity="1" fill-rule="nonzero"/><path d="M 159.480469 162.410156 C 158.035156 160.964844 155.691406 160.964844 154.246094 162.410156 L 134.664062 181.992188 L 126.179688 173.507812 C 122.753906 170.105469 117.535156 175.304688 120.949219 178.742188 C 120.949219 178.742188 132.046875 189.839844 132.046875 189.839844 C 133.492188 191.285156 135.835938 191.285156 137.28125 189.839844 L 159.480469 167.640625 C 160.925781 166.195312 160.925781 163.855469 159.480469 162.410156 Z M 159.480469 162.410156 " fill-opacity="1" fill-rule="nonzero"/></svg>