<svg xmlns="http://www.w3.org/2000/svg" xmlns:xlink="http://www.w3.org/1999/xlink" width="500" zoomAndPan="magnify" viewBox="0 0 375 374.999991" height="500" preserveAspectRatio="xMidYMid meet" version="1.0"><defs><clipPath id="f2332dea29"><path d="M 74.523438 74.320312 L 298.023438 74.320312 L 298.023438 297.820312 L 74.523438 297.820312 Z M 74.523438 74.320312 " clip-rule="nonzero"/></clipPath></defs><g clip-path="url(#f2332dea29)"><path  d="M 274.75 108.824219 C 273.511719 91.683594 260.828125 75.261719 239.726562 74.765625 C 220.410156 74.316406 204.546875 88.917969 202.863281 107.558594 L 169.683594 107.558594 C 168.042969 89.511719 152.945312 75.199219 134.5625 74.765625 C 114.78125 74.308594 98.625 89.621094 97.597656 108.890625 C 84.28125 112.835938 74.539062 125.15625 74.539062 139.710938 L 74.539062 265.667969 C 74.539062 283.394531 88.988281 297.820312 106.75 297.820312 L 265.800781 297.820312 C 283.5625 297.820312 298.011719 283.394531 298.011719 265.667969 L 298.011719 139.710938 C 298.011719 125.371094 288.363281 112.757812 274.75 108.824219 Z M 239.570312 81.324219 C 255.378906 81.695312 268.054688 94.347656 268.425781 110.125 C 268.726562 122.925781 260.820312 134.433594 248.675781 138.699219 C 245.46875 139.824219 242.144531 137.40625 242.144531 134.039062 C 242.144531 131.953125 243.4375 130.097656 245.367188 129.421875 C 253.734375 126.503906 259.136719 118.277344 258.527344 109.453125 C 257.855469 99.722656 249.996094 91.878906 240.25 91.207031 C 229.71875 90.480469 221.050781 97.9375 219.417969 107.558594 L 209.464844 107.558594 C 211.117188 92.640625 223.898438 80.984375 239.570312 81.324219 Z M 251.589844 107.558594 L 226.128906 107.558594 C 227.652344 101.640625 233.210938 97.304688 239.796875 97.75 C 245.484375 98.144531 250.207031 102.203125 251.589844 107.558594 Z M 134.410156 81.324219 C 150.214844 81.695312 162.890625 94.347656 163.261719 110.125 C 163.566406 122.960938 155.628906 134.445312 143.511719 138.699219 C 142.003906 139.226562 140.386719 139 139.070312 138.070312 C 135.796875 135.757812 136.511719 130.710938 140.203125 129.421875 C 148.046875 126.6875 154.011719 118.835938 153.363281 109.453125 C 152.691406 99.722656 144.832031 91.878906 135.085938 91.207031 C 124.566406 90.480469 115.886719 97.929688 114.253906 107.558594 L 106.75 107.558594 C 105.921875 107.558594 105.101562 107.601562 104.289062 107.664062 C 105.890625 92.78125 118.609375 80.984375 134.410156 81.324219 Z M 146.425781 107.558594 L 120.964844 107.558594 C 122.488281 101.640625 128.046875 97.304688 134.632812 97.75 C 140.320312 98.144531 145.042969 102.203125 146.425781 107.558594 Z M 106.75 114.121094 L 146.410156 114.121094 C 145.324219 118.277344 142.242188 121.761719 138.035156 123.230469 C 129.363281 126.257812 127.617188 138.011719 135.273438 143.425781 C 138.359375 145.609375 142.15625 146.128906 145.691406 144.886719 C 159.179688 140.152344 168.429688 128.085938 169.691406 114.121094 L 251.574219 114.121094 C 250.488281 118.277344 247.402344 121.761719 243.195312 123.230469 C 238.636719 124.824219 235.570312 129.167969 235.570312 134.039062 C 235.570312 141.839844 243.296875 147.542969 250.855469 144.886719 C 265.742188 139.660156 273.28125 128.015625 274.632812 115.6875 C 284.558594 119.332031 291.4375 128.90625 291.4375 139.710938 L 291.4375 160.046875 L 81.113281 160.046875 L 81.113281 139.710938 C 81.113281 125.601562 92.613281 114.121094 106.75 114.121094 Z M 265.800781 291.257812 L 106.75 291.257812 C 92.613281 291.257812 81.113281 279.777344 81.113281 265.667969 L 81.113281 166.605469 L 291.4375 166.605469 L 291.4375 265.667969 C 291.4375 279.777344 279.9375 291.257812 265.800781 291.257812 Z M 265.800781 291.257812 " fill-opacity="1" fill-rule="nonzero"/></g><path d="M 120.765625 173.167969 L 113.757812 173.167969 C 106.628906 173.167969 100.828125 178.953125 100.828125 186.070312 L 100.828125 193.066406 C 100.828125 200.183594 106.628906 205.96875 113.757812 205.96875 L 120.765625 205.96875 C 127.894531 205.96875 133.695312 200.183594 133.695312 193.066406 L 133.695312 186.070312 C 133.695312 178.953125 127.894531 173.167969 120.765625 173.167969 Z M 120.765625 173.167969 " fill-opacity="1" fill-rule="nonzero"/><path  d="M 166.777344 173.167969 L 159.765625 173.167969 C 152.636719 173.167969 146.839844 178.953125 146.839844 186.070312 L 146.839844 193.066406 C 146.839844 200.183594 152.636719 205.96875 159.765625 205.96875 L 166.777344 205.96875 C 173.902344 205.96875 179.703125 200.183594 179.703125 193.066406 L 179.703125 186.070312 C 179.703125 178.953125 173.902344 173.167969 166.777344 173.167969 Z M 173.128906 193.066406 C 173.128906 196.5625 170.277344 199.410156 166.777344 199.410156 L 159.765625 199.410156 C 156.261719 199.410156 153.410156 196.5625 153.410156 193.066406 L 153.410156 186.070312 C 153.410156 182.574219 156.261719 179.726562 159.765625 179.726562 L 166.777344 179.726562 C 170.277344 179.726562 173.128906 182.574219 173.128906 186.070312 Z M 173.128906 193.066406 " fill-opacity="1" fill-rule="nonzero"/><path  d="M 212.785156 173.167969 L 205.773438 173.167969 C 198.644531 173.167969 192.847656 178.953125 192.847656 186.070312 L 192.847656 193.066406 C 192.847656 200.183594 198.644531 205.96875 205.773438 205.96875 L 212.785156 205.96875 C 219.914062 205.96875 225.710938 200.183594 225.710938 193.066406 L 225.710938 186.070312 C 225.710938 178.953125 219.914062 173.167969 212.785156 173.167969 Z M 219.136719 193.066406 C 219.136719 196.5625 216.289062 199.410156 212.785156 199.410156 L 205.773438 199.410156 C 202.269531 199.410156 199.421875 196.5625 199.421875 193.066406 L 199.421875 186.070312 C 199.421875 182.574219 202.269531 179.726562 205.773438 179.726562 L 212.785156 179.726562 C 216.289062 179.726562 219.136719 182.574219 219.136719 186.070312 Z M 219.136719 193.066406 " fill-opacity="1" fill-rule="nonzero"/><path  d="M 258.792969 173.167969 L 251.78125 173.167969 C 244.65625 173.167969 238.855469 178.953125 238.855469 186.070312 L 238.855469 193.066406 C 238.855469 200.183594 244.65625 205.96875 251.78125 205.96875 L 258.792969 205.96875 C 265.921875 205.96875 271.71875 200.183594 271.71875 193.066406 L 271.71875 186.070312 C 271.71875 178.953125 265.921875 173.167969 258.792969 173.167969 Z M 265.148438 193.066406 C 265.148438 196.5625 262.296875 199.410156 258.792969 199.410156 L 251.78125 199.410156 C 248.28125 199.410156 245.429688 196.5625 245.429688 193.066406 L 245.429688 186.070312 C 245.429688 182.574219 248.28125 179.726562 251.78125 179.726562 L 258.792969 179.726562 C 262.296875 179.726562 265.148438 182.574219 265.148438 186.070312 Z M 265.148438 193.066406 " fill-opacity="1" fill-rule="nonzero"/><path  d="M 120.765625 212.53125 L 113.757812 212.53125 C 106.628906 212.53125 100.828125 218.320312 100.828125 225.433594 L 100.828125 232.429688 C 100.828125 239.546875 106.628906 245.332031 113.757812 245.332031 L 120.765625 245.332031 C 127.894531 245.332031 133.695312 239.546875 133.695312 232.429688 L 133.695312 225.433594 C 133.695312 218.320312 127.894531 212.53125 120.765625 212.53125 Z M 127.121094 232.429688 C 127.121094 235.929688 124.269531 238.773438 120.765625 238.773438 L 113.757812 238.773438 C 110.253906 238.773438 107.402344 235.929688 107.402344 232.429688 L 107.402344 225.433594 C 107.402344 221.9375 110.253906 219.089844 113.757812 219.089844 L 120.765625 219.089844 C 124.269531 219.089844 127.121094 221.9375 127.121094 225.433594 Z M 127.121094 232.429688 " fill-opacity="1" fill-rule="nonzero"/><path d="M 166.777344 212.53125 L 159.765625 212.53125 C 152.636719 212.53125 146.839844 218.320312 146.839844 225.433594 L 146.839844 232.429688 C 146.839844 239.546875 152.636719 245.332031 159.765625 245.332031 L 166.777344 245.332031 C 173.902344 245.332031 179.703125 239.546875 179.703125 232.429688 L 179.703125 225.433594 C 179.703125 218.320312 173.902344 212.53125 166.777344 212.53125 Z M 166.777344 212.53125 " fill-opacity="1" fill-rule="nonzero"/><path d="M 212.785156 212.53125 L 205.773438 212.53125 C 198.644531 212.53125 192.847656 218.320312 192.847656 225.433594 L 192.847656 232.429688 C 192.847656 239.546875 198.644531 245.332031 205.773438 245.332031 L 212.785156 245.332031 C 219.914062 245.332031 225.710938 239.546875 225.710938 232.429688 L 225.710938 225.433594 C 225.710938 218.320312 219.914062 212.53125 212.785156 212.53125 Z M 212.785156 212.53125 " fill-opacity="1" fill-rule="nonzero"/><path  d="M 258.792969 212.53125 L 251.78125 212.53125 C 244.65625 212.53125 238.855469 218.320312 238.855469 225.433594 L 238.855469 232.429688 C 238.855469 239.546875 244.65625 245.332031 251.78125 245.332031 L 258.792969 245.332031 C 265.921875 245.332031 271.71875 239.546875 271.71875 232.429688 L 271.71875 225.433594 C 271.71875 218.320312 265.921875 212.53125 258.792969 212.53125 Z M 265.148438 232.429688 C 265.148438 235.929688 262.296875 238.773438 258.792969 238.773438 L 251.78125 238.773438 C 248.28125 238.773438 245.429688 235.929688 245.429688 232.429688 L 245.429688 225.433594 C 245.429688 221.9375 248.28125 219.089844 251.78125 219.089844 L 258.792969 219.089844 C 262.296875 219.089844 265.148438 221.9375 265.148438 225.433594 Z M 265.148438 232.429688 " fill-opacity="1" fill-rule="nonzero"/><path  d="M 120.765625 251.894531 L 113.757812 251.894531 C 106.628906 251.894531 100.828125 257.683594 100.828125 264.796875 L 100.828125 271.796875 C 100.828125 278.910156 106.628906 284.699219 113.757812 284.699219 L 120.765625 284.699219 C 127.894531 284.699219 133.695312 278.910156 133.695312 271.796875 L 133.695312 264.796875 C 133.695312 257.683594 127.894531 251.894531 120.765625 251.894531 Z M 127.121094 271.796875 C 127.121094 275.292969 124.269531 278.136719 120.765625 278.136719 L 113.757812 278.136719 C 110.253906 278.136719 107.402344 275.292969 107.402344 271.796875 L 107.402344 264.796875 C 107.402344 261.300781 110.253906 258.457031 113.757812 258.457031 L 120.765625 258.457031 C 124.269531 258.457031 127.121094 261.300781 127.121094 264.796875 Z M 127.121094 271.796875 " fill-opacity="1" fill-rule="nonzero"/><path  d="M 166.777344 251.894531 L 159.765625 251.894531 C 152.636719 251.894531 146.839844 257.683594 146.839844 264.796875 L 146.839844 271.796875 C 146.839844 278.910156 152.636719 284.699219 159.765625 284.699219 L 166.777344 284.699219 C 173.902344 284.699219 179.703125 278.910156 179.703125 271.796875 L 179.703125 264.796875 C 179.703125 257.683594 173.902344 251.894531 166.777344 251.894531 Z M 173.128906 271.796875 C 173.128906 275.292969 170.277344 278.136719 166.777344 278.136719 L 159.765625 278.136719 C 156.261719 278.136719 153.410156 275.292969 153.410156 271.796875 L 153.410156 264.796875 C 153.410156 261.300781 156.261719 258.457031 159.765625 258.457031 L 166.777344 258.457031 C 170.277344 258.457031 173.128906 261.300781 173.128906 264.796875 Z M 173.128906 271.796875 " fill-opacity="1" fill-rule="nonzero"/><path  d="M 212.785156 251.894531 L 205.773438 251.894531 C 198.644531 251.894531 192.847656 257.683594 192.847656 264.796875 L 192.847656 271.796875 C 192.847656 278.910156 198.644531 284.699219 205.773438 284.699219 L 212.785156 284.699219 C 219.914062 284.699219 225.710938 278.910156 225.710938 271.796875 L 225.710938 264.796875 C 225.710938 257.683594 219.914062 251.894531 212.785156 251.894531 Z M 219.136719 271.796875 C 219.136719 275.292969 216.289062 278.136719 212.785156 278.136719 L 205.773438 278.136719 C 202.269531 278.136719 199.421875 275.292969 199.421875 271.796875 L 199.421875 264.796875 C 199.421875 261.300781 202.269531 258.457031 205.773438 258.457031 L 212.785156 258.457031 C 216.289062 258.457031 219.136719 261.300781 219.136719 264.796875 Z M 219.136719 271.796875 " fill-opacity="1" fill-rule="nonzero"/><path  d="M 258.792969 251.894531 L 251.78125 251.894531 C 244.65625 251.894531 238.855469 257.683594 238.855469 264.796875 L 238.855469 271.796875 C 238.855469 278.910156 244.65625 284.699219 251.78125 284.699219 L 258.792969 284.699219 C 265.921875 284.699219 271.71875 278.910156 271.71875 271.796875 L 271.71875 264.796875 C 271.71875 257.683594 265.921875 251.894531 258.792969 251.894531 Z M 258.792969 251.894531 " fill-opacity="1" fill-rule="nonzero"/></svg>