<svg xmlns="http://www.w3.org/2000/svg" xmlns:xlink="http://www.w3.org/1999/xlink" width="500" zoomAndPan="magnify" viewBox="0 0 375 374.999991" height="500" preserveAspectRatio="xMidYMid meet" version="1.0"><defs><clipPath id="0fb49799cd"><path d="M 70.902344 74.082031 L 304.152344 74.082031 L 304.152344 300.582031 L 70.902344 300.582031 Z M 70.902344 74.082031 " clip-rule="nonzero"/></clipPath></defs><g clip-path="url(#0fb49799cd)"><path d="M 281.160156 74.082031 L 180.757812 74.082031 C 166.863281 77.746094 158.382812 86.148438 157.433594 101.40625 C 157.53125 104.347656 157.625 107.285156 157.71875 110.191406 C 157.71875 115.558594 157.6875 120.550781 157.71875 125.574219 C 157.71875 133.3125 157.65625 141.085938 157.6875 148.824219 L 93.832031 148.824219 C 92.46875 149.109375 91.136719 149.484375 89.828125 149.953125 C 88.519531 150.425781 87.25 150.980469 86.019531 151.625 C 84.789062 152.269531 83.609375 152.996094 82.480469 153.804688 C 81.351562 154.613281 80.28125 155.496094 79.273438 156.453125 C 78.269531 157.410156 77.332031 158.433594 76.46875 159.519531 C 75.601562 160.605469 74.816406 161.746094 74.109375 162.941406 C 73.402344 164.136719 72.785156 165.375 72.25 166.65625 C 71.714844 167.9375 71.273438 169.246094 70.921875 170.589844 L 70.921875 235.917969 C 71.296875 239.316406 72.425781 242.445312 74.308594 245.300781 C 75.652344 247.164062 77.234375 248.796875 79.054688 250.199219 C 80.875 251.601562 82.855469 252.71875 85.003906 253.546875 C 89.203125 255.558594 93.632812 256.578125 98.292969 256.609375 L 105.601562 256.609375 L 105.601562 277.394531 C 105.792969 285.105469 106.015625 292.84375 106.203125 300.582031 C 109.9375 297.042969 113.132812 293.949219 115.632812 291.515625 C 123.480469 283.839844 127.308594 279.921875 132.054688 274.867188 C 136.074219 270.636719 136.265625 270.382812 138.164062 268.425781 C 146.835938 259.390625 149.113281 258.316406 150.285156 257.839844 C 152.648438 256.832031 155.117188 256.378906 157.6875 256.484375 C 168.382812 256.894531 179.109375 256.671875 189.835938 256.609375 C 190.746094 256.648438 191.65625 256.640625 192.566406 256.585938 C 193.472656 256.527344 194.378906 256.425781 195.277344 256.277344 C 196.175781 256.128906 197.0625 255.933594 197.941406 255.691406 C 198.816406 255.453125 199.679688 255.164062 200.527344 254.835938 C 201.375 254.503906 202.207031 254.132812 203.015625 253.714844 C 203.824219 253.296875 204.609375 252.839844 205.371094 252.34375 C 206.132812 251.84375 206.867188 251.308594 207.574219 250.734375 C 208.277344 250.160156 208.953125 249.550781 209.597656 248.910156 C 210.238281 248.265625 210.847656 247.589844 211.417969 246.882812 C 211.992188 246.175781 212.523438 245.441406 213.019531 244.679688 C 213.515625 243.917969 213.972656 243.132812 214.386719 242.324219 C 214.800781 241.511719 215.171875 240.683594 215.5 239.835938 C 215.828125 238.988281 216.113281 238.125 216.351562 237.25 C 216.589844 236.371094 216.78125 235.484375 216.929688 234.585938 C 217.074219 233.691406 217.171875 232.789062 217.226562 231.882812 C 217.277344 230.972656 217.285156 230.066406 217.242188 229.15625 C 217.335938 219.554688 217.273438 209.917969 217.273438 200.316406 L 217.273438 184.964844 L 217.367188 181.742188 C 219.917969 181.640625 222.363281 182.09375 224.710938 183.101562 C 225.847656 183.574219 228.125 184.617188 236.796875 193.683594 C 238.695312 195.640625 238.917969 195.894531 242.902344 200.125 C 247.683594 205.179688 251.511719 209.097656 259.359375 216.773438 C 261.828125 219.207031 265.023438 222.304688 268.789062 225.839844 C 268.980469 218.101562 269.167969 210.371094 269.359375 202.652344 L 269.359375 181.867188 L 276.699219 181.867188 C 281.347656 181.832031 285.769531 180.8125 289.957031 178.804688 C 292.101562 177.972656 294.085938 176.855469 295.90625 175.453125 C 297.722656 174.050781 299.308594 172.417969 300.652344 170.558594 C 302.550781 167.695312 303.6875 164.554688 304.070312 161.144531 L 304.070312 95.847656 C 303.71875 94.507812 303.273438 93.195312 302.738281 91.914062 C 302.203125 90.632812 301.582031 89.398438 300.878906 88.203125 C 300.171875 87.007812 299.382812 85.867188 298.519531 84.78125 C 297.65625 83.695312 296.71875 82.675781 295.710938 81.71875 C 294.707031 80.761719 293.636719 79.878906 292.507812 79.070312 C 291.378906 78.261719 290.199219 77.535156 288.96875 76.890625 C 287.738281 76.242188 286.46875 75.6875 285.164062 75.214844 C 283.855469 74.746094 282.519531 74.367188 281.160156 74.082031 Z M 208.507812 229.15625 C 208.550781 229.78125 208.5625 230.40625 208.539062 231.03125 C 208.515625 231.65625 208.460938 232.277344 208.371094 232.898438 C 208.28125 233.515625 208.160156 234.128906 208.003906 234.734375 C 207.847656 235.339844 207.664062 235.9375 207.445312 236.523438 C 207.222656 237.109375 206.976562 237.683594 206.695312 238.242188 C 206.414062 238.800781 206.105469 239.34375 205.765625 239.871094 C 205.425781 240.394531 205.0625 240.902344 204.667969 241.390625 C 204.277344 241.878906 203.859375 242.34375 203.414062 242.785156 C 202.972656 243.226562 202.507812 243.644531 202.019531 244.039062 C 201.535156 244.429688 201.027344 244.796875 200.5 245.136719 C 199.972656 245.476562 199.429688 245.785156 198.871094 246.066406 C 198.308594 246.347656 197.738281 246.597656 197.152344 246.816406 C 196.5625 247.035156 195.96875 247.222656 195.359375 247.378906 C 194.753906 247.535156 194.140625 247.65625 193.519531 247.75 C 192.898438 247.839844 192.277344 247.894531 191.652344 247.917969 C 191.023438 247.941406 190.398438 247.933594 189.773438 247.890625 C 177.402344 247.984375 165.0625 248.046875 152.6875 247.828125 C 151.792969 247.78125 150.902344 247.832031 150.019531 247.984375 C 149.136719 248.136719 148.28125 248.386719 147.457031 248.730469 C 146.628906 249.074219 145.851562 249.507812 145.121094 250.027344 C 144.390625 250.546875 143.726562 251.140625 143.132812 251.808594 C 138.574219 256.484375 133.511719 260.683594 129.335938 265.707031 C 124.617188 271.367188 119.425781 276.558594 113.765625 281.28125 C 113.863281 278.816406 114.210938 267.191406 114.367188 254.492188 C 114.472656 253.53125 114.378906 252.59375 114.09375 251.667969 C 113.808594 250.746094 113.351562 249.917969 112.722656 249.1875 C 112.039062 248.65625 111.28125 248.28125 110.449219 248.054688 C 109.613281 247.832031 108.769531 247.777344 107.914062 247.890625 C 104.652344 248.015625 101.363281 247.953125 98.101562 247.890625 C 97.488281 247.914062 96.875 247.910156 96.261719 247.871094 C 95.648438 247.832031 95.035156 247.761719 94.429688 247.660156 C 93.824219 247.554688 93.226562 247.421875 92.632812 247.257812 C 92.039062 247.09375 91.457031 246.898438 90.886719 246.671875 C 90.3125 246.449219 89.753906 246.195312 89.210938 245.910156 C 88.664062 245.628906 88.132812 245.316406 87.621094 244.980469 C 87.109375 244.640625 86.613281 244.277344 86.136719 243.886719 C 85.664062 243.5 85.210938 243.085938 84.777344 242.648438 C 84.34375 242.210938 83.9375 241.753906 83.550781 241.273438 C 83.167969 240.796875 82.808594 240.296875 82.476562 239.78125 C 82.144531 239.265625 81.839844 238.734375 81.5625 238.1875 C 81.285156 237.636719 81.039062 237.078125 80.820312 236.503906 C 80.601562 235.929688 80.414062 235.34375 80.253906 234.753906 C 80.097656 234.160156 79.96875 233.558594 79.875 232.953125 C 79.78125 232.347656 79.714844 231.738281 79.683594 231.125 C 79.652344 230.511719 79.652344 229.898438 79.6875 229.285156 C 79.589844 211.71875 79.589844 194.136719 79.6875 176.527344 C 79.648438 175.914062 79.644531 175.300781 79.671875 174.6875 C 79.699219 174.074219 79.761719 173.460938 79.851562 172.851562 C 79.941406 172.246094 80.066406 171.644531 80.21875 171.046875 C 80.371094 170.453125 80.558594 169.867188 80.773438 169.289062 C 80.988281 168.714844 81.230469 168.152344 81.507812 167.601562 C 81.78125 167.050781 82.082031 166.515625 82.410156 165.996094 C 82.742188 165.476562 83.097656 164.972656 83.476562 164.492188 C 83.859375 164.007812 84.265625 163.546875 84.695312 163.105469 C 85.125 162.667969 85.578125 162.25 86.050781 161.855469 C 86.523438 161.464844 87.015625 161.09375 87.527344 160.753906 C 88.039062 160.410156 88.570312 160.097656 89.113281 159.808594 C 89.65625 159.523438 90.214844 159.261719 90.789062 159.035156 C 91.359375 158.804688 91.941406 158.605469 92.53125 158.4375 C 93.125 158.265625 93.726562 158.128906 94.332031 158.023438 C 94.9375 157.917969 95.546875 157.839844 96.164062 157.796875 C 96.777344 157.753906 97.390625 157.742188 98.007812 157.765625 C 117.976562 157.667969 137.941406 157.636719 157.910156 157.667969 C 157.988281 158.769531 158.132812 159.859375 158.351562 160.9375 C 158.566406 162.019531 158.851562 163.082031 159.207031 164.125 C 159.558594 165.171875 159.976562 166.1875 160.460938 167.179688 C 160.941406 168.167969 161.488281 169.125 162.09375 170.046875 C 162.699219 170.96875 163.359375 171.847656 164.078125 172.683594 C 164.796875 173.519531 165.566406 174.308594 166.382812 175.046875 C 167.203125 175.785156 168.066406 176.46875 168.972656 177.097656 C 169.878906 177.726562 170.820312 178.296875 171.800781 178.804688 C 176 180.875 180.441406 181.898438 185.121094 181.867188 C 188.667969 181.898438 192.210938 181.929688 195.753906 181.929688 C 199.996094 181.992188 204.265625 181.992188 208.507812 181.929688 C 208.601562 197.664062 208.601562 213.40625 208.507812 229.15625 Z M 295.304688 154.542969 C 295.335938 155.15625 295.335938 155.769531 295.304688 156.382812 C 295.273438 156.996094 295.207031 157.605469 295.113281 158.214844 C 295.015625 158.820312 294.890625 159.421875 294.730469 160.015625 C 294.574219 160.605469 294.382812 161.191406 294.164062 161.765625 C 293.945312 162.339844 293.695312 162.898438 293.417969 163.449219 C 293.140625 163.996094 292.835938 164.527344 292.5 165.046875 C 292.167969 165.5625 291.808594 166.058594 291.425781 166.539062 C 291.039062 167.015625 290.628906 167.476562 290.195312 167.910156 C 289.765625 168.347656 289.308594 168.761719 288.832031 169.152344 C 288.359375 169.539062 287.863281 169.902344 287.347656 170.242188 C 286.835938 170.578125 286.304688 170.890625 285.757812 171.171875 C 285.214844 171.457031 284.652344 171.710938 284.082031 171.933594 C 283.507812 172.160156 282.925781 172.355469 282.332031 172.519531 C 281.738281 172.683594 281.140625 172.816406 280.53125 172.917969 C 279.925781 173.019531 279.316406 173.089844 278.703125 173.128906 C 278.085938 173.167969 277.472656 173.175781 276.859375 173.148438 C 273.597656 173.210938 270.308594 173.273438 267.046875 173.148438 C 266.195312 173.027344 265.355469 173.078125 264.523438 173.300781 C 263.695312 173.527344 262.941406 173.90625 262.269531 174.445312 C 261.636719 175.175781 261.175781 176.003906 260.882812 176.925781 C 260.59375 177.847656 260.496094 178.789062 260.59375 179.75 C 260.75 192.449219 261.132812 204.042969 261.195312 206.539062 C 255.542969 201.808594 250.351562 196.617188 245.625 190.964844 C 241.480469 185.941406 236.386719 181.742188 231.859375 177.066406 C 231.261719 176.394531 230.597656 175.800781 229.867188 175.28125 C 229.132812 174.761719 228.351562 174.328125 227.523438 173.984375 C 226.691406 173.636719 225.832031 173.390625 224.949219 173.238281 C 224.0625 173.085938 223.171875 173.035156 222.273438 173.085938 C 220.59375 173.117188 218.917969 173.148438 217.242188 173.148438 C 214.234375 173.179688 211.261719 173.210938 208.253906 173.210938 C 200.566406 173.242188 192.875 173.179688 185.1875 173.148438 C 174.871094 173.054688 167.972656 167.242188 166.707031 157.667969 C 166.539062 156.589844 166.457031 155.507812 166.453125 154.417969 L 166.453125 148.824219 C 166.390625 133.09375 166.359375 117.359375 166.453125 101.628906 C 166.414062 101.015625 166.40625 100.402344 166.433594 99.785156 C 166.460938 99.171875 166.519531 98.5625 166.609375 97.953125 C 166.699219 97.34375 166.820312 96.742188 166.976562 96.148438 C 167.128906 95.550781 167.316406 94.964844 167.53125 94.390625 C 167.746094 93.8125 167.992188 93.25 168.265625 92.699219 C 168.542969 92.148438 168.84375 91.613281 169.175781 91.097656 C 169.507812 90.578125 169.867188 90.078125 170.25 89.597656 C 170.636719 89.117188 171.042969 88.65625 171.476562 88.21875 C 171.910156 87.78125 172.363281 87.367188 172.839844 86.976562 C 173.316406 86.585938 173.8125 86.222656 174.324219 85.886719 C 174.839844 85.546875 175.371094 85.238281 175.917969 84.957031 C 176.464844 84.671875 177.027344 84.421875 177.601562 84.195312 C 178.175781 83.972656 178.757812 83.78125 179.355469 83.621094 C 179.949219 83.457031 180.550781 83.328125 181.15625 83.230469 C 181.765625 83.128906 182.378906 83.0625 182.992188 83.027344 C 183.609375 82.996094 184.222656 82.992188 184.839844 83.023438 C 215.53125 82.863281 246.246094 82.863281 276.984375 83.023438 C 277.601562 83.003906 278.214844 83.011719 278.828125 83.054688 C 279.445312 83.101562 280.054688 83.175781 280.660156 83.28125 C 281.269531 83.386719 281.867188 83.527344 282.460938 83.695312 C 283.050781 83.863281 283.632812 84.0625 284.207031 84.292969 C 284.777344 84.519531 285.335938 84.78125 285.878906 85.066406 C 286.421875 85.355469 286.953125 85.667969 287.464844 86.011719 C 287.976562 86.355469 288.46875 86.722656 288.941406 87.113281 C 289.414062 87.507812 289.867188 87.925781 290.296875 88.367188 C 290.726562 88.804688 291.132812 89.265625 291.515625 89.75 C 291.894531 90.230469 292.25 90.734375 292.582031 91.253906 C 292.910156 91.773438 293.210938 92.308594 293.488281 92.859375 C 293.761719 93.410156 294.003906 93.972656 294.21875 94.546875 C 294.433594 95.125 294.621094 95.710938 294.773438 96.304688 C 294.925781 96.902344 295.050781 97.503906 295.140625 98.113281 C 295.234375 98.71875 295.292969 99.332031 295.320312 99.945312 C 295.347656 100.558594 295.34375 101.171875 295.304688 101.789062 C 295.402344 119.382812 295.402344 136.96875 295.304688 154.542969 Z M 276.378906 116.699219 L 186.707031 116.699219 C 186.398438 116.699219 186.089844 116.671875 185.78125 116.609375 C 185.476562 116.550781 185.179688 116.460938 184.890625 116.339844 C 184.605469 116.222656 184.332031 116.074219 184.070312 115.902344 C 183.8125 115.730469 183.574219 115.53125 183.351562 115.3125 C 183.132812 115.09375 182.933594 114.855469 182.761719 114.59375 C 182.589844 114.335938 182.441406 114.0625 182.324219 113.777344 C 182.203125 113.488281 182.113281 113.191406 182.054688 112.886719 C 181.992188 112.582031 181.960938 112.273438 181.960938 111.960938 C 181.960938 111.652344 181.992188 111.34375 182.054688 111.039062 C 182.113281 110.734375 182.203125 110.4375 182.324219 110.148438 C 182.441406 109.863281 182.589844 109.589844 182.761719 109.328125 C 182.933594 109.070312 183.132812 108.832031 183.351562 108.613281 C 183.574219 108.390625 183.8125 108.195312 184.070312 108.023438 C 184.332031 107.847656 184.605469 107.703125 184.890625 107.585938 C 185.179688 107.464844 185.476562 107.375 185.78125 107.316406 C 186.089844 107.253906 186.398438 107.222656 186.707031 107.222656 L 276.378906 107.222656 C 276.691406 107.222656 277 107.253906 277.304688 107.316406 C 277.613281 107.375 277.910156 107.464844 278.195312 107.585938 C 278.484375 107.703125 278.757812 107.847656 279.015625 108.023438 C 279.277344 108.195312 279.515625 108.390625 279.738281 108.613281 C 279.957031 108.832031 280.152344 109.070312 280.328125 109.328125 C 280.5 109.589844 280.644531 109.863281 280.765625 110.148438 C 280.882812 110.4375 280.976562 110.734375 281.035156 111.039062 C 281.097656 111.34375 281.125 111.652344 281.125 111.960938 C 281.125 112.273438 281.097656 112.582031 281.035156 112.886719 C 280.976562 113.191406 280.882812 113.488281 280.765625 113.777344 C 280.644531 114.0625 280.5 114.335938 280.328125 114.59375 C 280.152344 114.855469 279.957031 115.09375 279.738281 115.3125 C 279.515625 115.53125 279.277344 115.730469 279.015625 115.902344 C 278.757812 116.074219 278.484375 116.222656 278.195312 116.339844 C 277.910156 116.460938 277.613281 116.550781 277.304688 116.609375 C 277 116.671875 276.691406 116.699219 276.378906 116.699219 Z M 244.355469 141.820312 L 189.453125 141.820312 C 189.144531 141.820312 188.835938 141.789062 188.527344 141.730469 C 188.222656 141.667969 187.925781 141.578125 187.636719 141.460938 C 187.351562 141.339844 187.078125 141.195312 186.816406 141.023438 C 186.558594 140.851562 186.320312 140.652344 186.097656 140.433594 C 185.878906 140.214844 185.679688 139.972656 185.507812 139.714844 C 185.335938 139.457031 185.1875 139.183594 185.070312 138.894531 C 184.949219 138.609375 184.859375 138.3125 184.800781 138.007812 C 184.738281 137.703125 184.707031 137.394531 184.707031 137.082031 C 184.707031 136.773438 184.738281 136.464844 184.800781 136.15625 C 184.859375 135.851562 184.949219 135.558594 185.070312 135.269531 C 185.1875 134.980469 185.335938 134.707031 185.507812 134.449219 C 185.679688 134.191406 185.878906 133.953125 186.097656 133.730469 C 186.320312 133.511719 186.558594 133.316406 186.816406 133.144531 C 187.078125 132.96875 187.351562 132.824219 187.636719 132.703125 C 187.925781 132.585938 188.222656 132.496094 188.527344 132.433594 C 188.835938 132.375 189.144531 132.34375 189.453125 132.34375 L 244.355469 132.34375 C 244.664062 132.34375 244.972656 132.375 245.28125 132.433594 C 245.585938 132.496094 245.882812 132.585938 246.171875 132.703125 C 246.457031 132.824219 246.730469 132.96875 246.992188 133.144531 C 247.25 133.316406 247.488281 133.511719 247.710938 133.730469 C 247.929688 133.953125 248.128906 134.191406 248.300781 134.449219 C 248.472656 134.707031 248.621094 134.980469 248.738281 135.269531 C 248.859375 135.558594 248.949219 135.851562 249.007812 136.15625 C 249.070312 136.464844 249.101562 136.773438 249.101562 137.082031 C 249.101562 137.394531 249.070312 137.703125 249.007812 138.007812 C 248.949219 138.3125 248.859375 138.609375 248.738281 138.894531 C 248.621094 139.183594 248.472656 139.457031 248.300781 139.714844 C 248.128906 139.972656 247.929688 140.214844 247.710938 140.433594 C 247.488281 140.652344 247.25 140.851562 246.992188 141.023438 C 246.730469 141.195312 246.457031 141.339844 246.171875 141.460938 C 245.882812 141.578125 245.585938 141.667969 245.28125 141.730469 C 244.972656 141.789062 244.664062 141.820312 244.355469 141.820312 Z M 188.265625 219.875 L 98.59375 219.875 C 98.28125 219.875 97.972656 219.847656 97.667969 219.785156 C 97.363281 219.726562 97.066406 219.636719 96.777344 219.515625 C 96.488281 219.398438 96.214844 219.25 95.957031 219.078125 C 95.695312 218.90625 95.457031 218.707031 95.238281 218.488281 C 95.015625 218.269531 94.820312 218.03125 94.648438 217.769531 C 94.472656 217.511719 94.328125 217.238281 94.207031 216.953125 C 94.089844 216.664062 94 216.367188 93.9375 216.0625 C 93.878906 215.757812 93.847656 215.449219 93.847656 215.136719 C 93.847656 214.828125 93.878906 214.519531 93.9375 214.214844 C 94 213.910156 94.089844 213.613281 94.207031 213.324219 C 94.328125 213.039062 94.472656 212.765625 94.648438 212.503906 C 94.820312 212.246094 95.015625 212.007812 95.238281 211.789062 C 95.457031 211.566406 95.695312 211.371094 95.957031 211.199219 C 96.214844 211.027344 96.488281 210.878906 96.777344 210.761719 C 97.066406 210.640625 97.363281 210.550781 97.667969 210.492188 C 97.972656 210.429688 98.28125 210.398438 98.59375 210.398438 L 188.265625 210.398438 C 188.578125 210.398438 188.886719 210.429688 189.191406 210.492188 C 189.496094 210.550781 189.792969 210.640625 190.082031 210.761719 C 190.371094 210.878906 190.644531 211.027344 190.902344 211.199219 C 191.160156 211.371094 191.402344 211.566406 191.621094 211.789062 C 191.84375 212.007812 192.039062 212.246094 192.210938 212.503906 C 192.386719 212.765625 192.53125 213.039062 192.652344 213.324219 C 192.769531 213.613281 192.859375 213.910156 192.921875 214.214844 C 192.980469 214.519531 193.011719 214.828125 193.011719 215.136719 C 193.011719 215.449219 192.980469 215.757812 192.921875 216.0625 C 192.859375 216.367188 192.769531 216.664062 192.652344 216.953125 C 192.53125 217.238281 192.386719 217.511719 192.210938 217.769531 C 192.039062 218.03125 191.84375 218.269531 191.621094 218.488281 C 191.402344 218.707031 191.160156 218.90625 190.902344 219.078125 C 190.644531 219.25 190.371094 219.398438 190.082031 219.515625 C 189.792969 219.636719 189.496094 219.726562 189.191406 219.785156 C 188.886719 219.847656 188.578125 219.875 188.265625 219.875 Z M 98.976562 184.964844 L 153.875 184.964844 C 154.1875 184.964844 154.496094 184.992188 154.800781 185.054688 C 155.105469 185.117188 155.402344 185.207031 155.691406 185.324219 C 155.980469 185.441406 156.253906 185.589844 156.511719 185.761719 C 156.769531 185.933594 157.011719 186.132812 157.230469 186.351562 C 157.453125 186.570312 157.648438 186.8125 157.820312 187.070312 C 157.996094 187.328125 158.140625 187.601562 158.261719 187.886719 C 158.378906 188.175781 158.46875 188.472656 158.53125 188.777344 C 158.589844 189.082031 158.621094 189.390625 158.621094 189.703125 C 158.621094 190.011719 158.589844 190.320312 158.53125 190.625 C 158.46875 190.929688 158.378906 191.226562 158.261719 191.515625 C 158.140625 191.804688 157.996094 192.074219 157.820312 192.335938 C 157.648438 192.59375 157.453125 192.832031 157.230469 193.050781 C 157.011719 193.273438 156.769531 193.46875 156.511719 193.640625 C 156.253906 193.816406 155.980469 193.960938 155.691406 194.078125 C 155.402344 194.199219 155.105469 194.289062 154.800781 194.347656 C 154.496094 194.410156 154.1875 194.441406 153.875 194.441406 L 98.976562 194.441406 C 98.664062 194.441406 98.355469 194.410156 98.050781 194.347656 C 97.746094 194.289062 97.449219 194.199219 97.160156 194.078125 C 96.871094 193.960938 96.597656 193.816406 96.339844 193.640625 C 96.078125 193.46875 95.839844 193.273438 95.621094 193.050781 C 95.398438 192.832031 95.203125 192.59375 95.03125 192.335938 C 94.855469 192.074219 94.710938 191.804688 94.589844 191.515625 C 94.472656 191.226562 94.382812 190.929688 94.320312 190.625 C 94.261719 190.320312 94.230469 190.011719 94.230469 189.703125 C 94.230469 189.390625 94.261719 189.082031 94.320312 188.777344 C 94.382812 188.472656 94.472656 188.175781 94.589844 187.886719 C 94.710938 187.601562 94.855469 187.328125 95.03125 187.070312 C 95.203125 186.8125 95.398438 186.570312 95.621094 186.351562 C 95.839844 186.132812 96.078125 185.933594 96.339844 185.761719 C 96.597656 185.589844 96.871094 185.441406 97.160156 185.324219 C 97.449219 185.207031 97.746094 185.117188 98.050781 185.054688 C 98.355469 184.992188 98.664062 184.964844 98.976562 184.964844 Z M 98.976562 184.964844 " fill-opacity="1" fill-rule="nonzero"/></g></svg>