<svg xmlns="http://www.w3.org/2000/svg" xmlns:xlink="http://www.w3.org/1999/xlink" width="500" zoomAndPan="magnify" viewBox="0 0 375 374.999991" height="500" preserveAspectRatio="xMidYMid meet" version="1.0"><path d="M 290.097656 75 L 131.578125 75 C 126.121094 75 121.675781 79.441406 121.675781 84.902344 C 121.675781 90.355469 126.121094 94.792969 131.578125 94.792969 L 135.964844 94.792969 L 135.964844 135.296875 C 133.546875 137.566406 130.972656 139.769531 128.222656 141.921875 C 125.589844 135.542969 120.636719 130.359375 114.417969 127.425781 C 120.273438 123.578125 124.15625 116.949219 124.15625 109.429688 C 124.15625 97.574219 114.507812 87.929688 102.652344 87.929688 C 90.796875 87.929688 81.152344 97.574219 81.152344 109.429688 C 81.152344 116.949219 85.03125 123.578125 90.890625 127.425781 C 81.507812 131.851562 75 141.402344 75 152.445312 L 75 276.890625 C 75 278.589844 76.378906 279.96875 78.074219 279.96875 L 138.480469 279.96875 C 140.179688 279.96875 141.554688 278.589844 141.554688 276.890625 L 141.554688 268.65625 C 141.554688 262.445312 136.515625 257.386719 130.308594 257.363281 L 130.308594 195.957031 L 135.964844 195.957031 L 135.964844 234.152344 C 135.964844 235.851562 137.339844 237.226562 139.039062 237.226562 L 169.8125 237.226562 C 168.351562 240.039062 167.519531 243.226562 167.519531 246.609375 C 167.519531 249.519531 168.136719 252.289062 169.238281 254.796875 C 159.738281 257.753906 153.019531 266.578125 153.019531 276.878906 L 153.019531 296.921875 C 153.019531 298.621094 154.394531 300 156.09375 300 L 283.417969 300 C 285.117188 300 286.496094 298.621094 286.496094 296.921875 L 286.496094 276.878906 C 286.496094 266.578125 279.773438 257.753906 270.273438 254.796875 C 271.378906 252.289062 271.996094 249.519531 271.996094 246.609375 C 271.996094 243.226562 271.164062 240.039062 269.699219 237.226562 L 282.632812 237.226562 C 284.332031 237.226562 285.710938 235.851562 285.710938 234.152344 L 285.710938 94.792969 L 290.09375 94.792969 C 295.554688 94.792969 300 90.355469 300 84.902344 C 300 79.441406 295.558594 75 290.097656 75 Z M 147.039062 132.734375 C 148.019531 131.625 149.367188 131.429688 150.320312 131.464844 C 152.371094 131.535156 154.527344 132.65625 155.816406 134.332031 C 158.152344 137.359375 156.722656 141.292969 154.277344 143.847656 C 146.886719 151.53125 138.839844 158.3125 130.308594 164.058594 L 130.308594 152.445312 C 130.308594 151.046875 130.203125 149.667969 130 148.324219 C 136.496094 143.433594 142.082031 138.320312 147.039062 132.734375 Z M 131.707031 170.507812 C 133.140625 169.578125 134.558594 168.621094 135.964844 167.632812 L 135.964844 170.507812 Z M 87.304688 109.429688 C 87.304688 100.96875 94.191406 94.082031 102.65625 94.082031 C 111.117188 94.082031 118.003906 100.96875 118.003906 109.429688 C 118.003906 117.902344 111.117188 124.792969 102.65625 124.792969 C 94.191406 124.792969 87.304688 117.902344 87.304688 109.429688 Z M 81.152344 152.445312 C 81.152344 140.589844 90.796875 130.945312 102.65625 130.945312 C 114.511719 130.945312 124.15625 140.589844 124.15625 152.445312 L 124.15625 170.507812 L 121.640625 170.507812 C 119.726562 170.507812 118.15625 169.527344 117.339844 167.8125 L 110.089844 152.652344 C 109.355469 151.117188 107.519531 150.46875 105.984375 151.203125 C 104.453125 151.933594 103.804688 153.773438 104.539062 155.304688 L 111.789062 170.464844 C 113.640625 174.34375 117.324219 176.660156 121.640625 176.660156 L 147.460938 176.660156 C 151.082031 176.660156 154.027344 179.613281 154.027344 183.238281 C 154.027344 186.859375 151.082031 189.804688 147.460938 189.804688 L 116.058594 189.804688 C 110.0625 189.804688 104.933594 186.570312 102.339844 181.152344 L 92.6875 160.972656 C 91.953125 159.4375 90.117188 158.789062 88.582031 159.523438 C 87.050781 160.257812 86.402344 162.09375 87.136719 163.625 L 96.789062 183.808594 C 100.433594 191.414062 107.636719 195.957031 116.058594 195.957031 L 124.15625 195.957031 L 124.15625 206.910156 L 81.152344 206.910156 Z M 81.152344 213.0625 L 99.578125 213.0625 L 99.578125 257.359375 L 81.152344 257.359375 Z M 105.730469 257.359375 L 105.730469 213.0625 L 124.15625 213.0625 L 124.15625 257.359375 Z M 102.65625 273.816406 L 81.152344 273.816406 L 81.152344 263.511719 L 105.679688 263.511719 C 108.519531 263.511719 110.828125 265.820312 110.828125 268.65625 L 110.828125 273.816406 Z M 135.40625 268.660156 L 135.40625 273.816406 L 116.980469 273.816406 L 116.980469 268.660156 C 116.980469 266.804688 116.527344 265.058594 115.734375 263.511719 L 130.257812 263.511719 C 133.097656 263.511719 135.40625 265.820312 135.40625 268.660156 Z M 265.84375 246.609375 C 265.84375 254.476562 259.449219 260.875 251.59375 260.875 C 243.726562 260.875 237.328125 254.476562 237.328125 246.609375 C 237.328125 238.75 243.726562 232.355469 251.59375 232.355469 C 259.449219 232.355469 265.84375 238.75 265.84375 246.609375 Z M 255.714844 276.53125 L 251.589844 281.148438 L 247.457031 276.53125 L 248.488281 266.789062 C 249.5 266.945312 250.535156 267.027344 251.59375 267.027344 C 252.640625 267.027344 253.675781 266.945312 254.683594 266.792969 Z M 232.898438 254.800781 C 227.265625 256.558594 222.617188 260.375 219.761719 265.339844 C 216.90625 260.375 212.253906 256.554688 206.617188 254.800781 C 207.722656 252.292969 208.339844 249.523438 208.339844 246.609375 C 208.339844 243.226562 207.507812 240.039062 206.046875 237.226562 L 233.46875 237.226562 C 232.007812 240.039062 231.175781 243.226562 231.175781 246.609375 C 231.175781 249.523438 231.792969 252.292969 232.898438 254.800781 Z M 202.1875 246.609375 C 202.1875 254.476562 195.789062 260.875 187.921875 260.875 C 180.066406 260.875 173.671875 254.476562 173.671875 246.609375 C 173.671875 238.75 180.066406 232.355469 187.921875 232.355469 C 195.789062 232.355469 202.1875 238.75 202.1875 246.609375 Z M 192.058594 276.53125 L 187.925781 281.148438 L 183.800781 276.53125 L 184.832031 266.792969 C 185.839844 266.945312 186.871094 267.027344 187.921875 267.027344 C 188.976562 267.027344 190.015625 266.945312 191.027344 266.789062 Z M 159.171875 276.878906 C 159.171875 268.726562 164.90625 261.832031 172.75 260.238281 C 174.460938 262.148438 176.53125 263.730469 178.847656 264.886719 L 177.539062 277.242188 C 177.449219 278.105469 177.726562 278.96875 178.304688 279.617188 L 185.628906 287.8125 C 186.214844 288.464844 187.046875 288.839844 187.921875 288.839844 C 188.796875 288.839844 189.632812 288.464844 190.214844 287.8125 L 197.554688 279.617188 C 198.132812 278.96875 198.410156 278.105469 198.320312 277.242188 L 197.011719 264.882812 C 199.328125 263.726562 201.394531 262.148438 203.105469 260.242188 C 210.953125 261.835938 216.6875 268.726562 216.6875 276.878906 L 216.6875 293.847656 L 208.179688 293.847656 L 208.179688 286.660156 C 208.179688 284.960938 206.800781 283.582031 205.101562 283.582031 C 203.402344 283.582031 202.027344 284.960938 202.027344 286.660156 L 202.027344 293.847656 L 173.835938 293.847656 L 173.835938 286.660156 C 173.835938 284.960938 172.457031 283.582031 170.757812 283.582031 C 169.058594 283.582031 167.683594 284.960938 167.683594 286.660156 L 167.683594 293.847656 L 159.171875 293.847656 Z M 280.34375 276.878906 L 280.34375 293.847656 L 271.835938 293.847656 L 271.835938 286.660156 C 271.835938 284.960938 270.457031 283.582031 268.757812 283.582031 C 267.058594 283.582031 265.683594 284.960938 265.683594 286.660156 L 265.683594 293.847656 L 237.492188 293.847656 L 237.492188 286.660156 C 237.492188 284.960938 236.113281 283.582031 234.414062 283.582031 C 232.714844 283.582031 231.339844 284.960938 231.339844 286.660156 L 231.339844 293.847656 L 222.839844 293.847656 L 222.839844 276.878906 C 222.839844 268.726562 228.570312 261.835938 236.410156 260.242188 C 238.125 262.148438 240.191406 263.726562 242.503906 264.882812 L 241.195312 277.242188 C 241.105469 278.105469 241.382812 278.96875 241.964844 279.617188 L 249.300781 287.8125 C 249.886719 288.464844 250.71875 288.839844 251.59375 288.839844 C 252.46875 288.835938 253.304688 288.464844 253.886719 287.8125 L 261.210938 279.613281 C 261.789062 278.96875 262.066406 278.105469 261.976562 277.242188 L 260.671875 264.886719 C 262.988281 263.730469 265.054688 262.148438 266.769531 260.238281 C 274.609375 261.832031 280.34375 268.726562 280.34375 276.878906 Z M 279.558594 231.074219 L 264.800781 231.074219 C 261.238281 228.042969 256.625 226.203125 251.59375 226.203125 C 246.554688 226.203125 241.9375 228.042969 238.375 231.074219 L 201.140625 231.074219 C 197.574219 228.042969 192.960938 226.203125 187.921875 226.203125 C 182.886719 226.203125 178.277344 228.042969 174.714844 231.074219 L 142.117188 231.074219 L 142.117188 195.957031 L 147.460938 195.957031 C 154.476562 195.957031 160.179688 190.253906 160.179688 183.238281 C 160.179688 176.21875 154.476562 170.507812 147.460938 170.507812 L 142.117188 170.507812 L 142.117188 163.085938 C 147.929688 158.554688 153.480469 153.550781 158.714844 148.109375 C 163.847656 142.746094 164.640625 135.699219 160.6875 130.578125 C 158.292969 127.464844 154.402344 125.449219 150.53125 125.316406 C 147.308594 125.207031 144.433594 126.394531 142.433594 128.65625 C 142.328125 128.769531 142.222656 128.882812 142.117188 129 L 142.117188 94.792969 L 279.558594 94.792969 Z M 290.097656 88.640625 L 131.578125 88.640625 C 129.511719 88.640625 127.828125 86.964844 127.828125 84.902344 C 127.828125 82.835938 129.511719 81.152344 131.578125 81.152344 L 290.097656 81.152344 C 292.164062 81.152344 293.847656 82.835938 293.847656 84.902344 C 293.847656 86.964844 292.164062 88.640625 290.097656 88.640625 Z M 163.210938 181.210938 C 163.210938 179.511719 164.585938 178.132812 166.285156 178.132812 L 251.542969 178.132812 C 253.242188 178.132812 254.617188 179.511719 254.617188 181.210938 C 254.617188 182.910156 253.242188 184.285156 251.542969 184.285156 L 166.285156 184.285156 C 164.585938 184.285156 163.210938 182.910156 163.210938 181.210938 Z M 159.625 124.605469 L 171.503906 127.882812 L 171.503906 146.789062 C 171.503906 151.355469 174.453125 155.253906 178.839844 156.488281 C 191.398438 160.046875 201.117188 161.828125 210.835938 161.828125 C 220.558594 161.828125 230.28125 160.046875 242.84375 156.488281 C 247.226562 155.234375 250.171875 151.339844 250.171875 146.789062 L 250.171875 127.882812 L 255.019531 126.542969 L 255.019531 164.691406 C 255.019531 166.390625 256.394531 167.765625 258.09375 167.765625 C 259.792969 167.765625 261.171875 166.390625 261.171875 164.691406 L 261.171875 124.847656 L 262.0625 124.601562 C 264.429688 123.9375 266.015625 121.839844 266.015625 119.382812 C 266.015625 116.925781 264.429688 114.832031 262.050781 114.164062 L 211.648438 100.261719 C 211.117188 100.113281 210.550781 100.113281 210.015625 100.261719 L 159.613281 114.167969 C 157.25 114.832031 155.660156 116.925781 155.660156 119.382812 C 155.660156 121.839844 157.25 123.9375 159.625 124.605469 Z M 244.019531 146.789062 C 244.019531 148.589844 242.894531 150.074219 241.160156 150.570312 C 217.074219 157.394531 204.605469 157.394531 180.511719 150.566406 C 178.777344 150.082031 177.65625 148.597656 177.65625 146.789062 L 177.65625 129.578125 L 210.015625 138.507812 C 210.28125 138.582031 210.558594 138.617188 210.832031 138.617188 C 211.105469 138.617188 211.382812 138.582031 211.648438 138.507812 L 244.019531 129.578125 Z M 210.832031 106.417969 L 257.839844 119.382812 L 246.1875 122.597656 C 246.183594 122.597656 246.179688 122.597656 246.179688 122.601562 L 210.832031 132.351562 L 175.507812 122.605469 C 175.484375 122.597656 175.460938 122.589844 175.4375 122.585938 L 163.835938 119.382812 Z M 269.777344 197.203125 C 269.777344 198.902344 268.402344 200.28125 266.703125 200.28125 L 181.445312 200.28125 C 179.746094 200.28125 178.371094 198.902344 178.371094 197.203125 C 178.371094 195.503906 179.746094 194.128906 181.445312 194.128906 L 266.703125 194.128906 C 268.402344 194.128906 269.777344 195.503906 269.777344 197.203125 Z M 254.617188 213.199219 C 254.617188 214.898438 253.242188 216.273438 251.542969 216.273438 L 166.285156 216.273438 C 164.585938 216.273438 163.210938 214.898438 163.210938 213.199219 C 163.210938 211.5 164.585938 210.125 166.285156 210.125 L 251.542969 210.125 C 253.242188 210.121094 254.617188 211.5 254.617188 213.199219 Z M 262.902344 178.132812 L 266.703125 178.132812 C 268.402344 178.132812 269.777344 179.511719 269.777344 181.207031 C 269.777344 182.90625 268.402344 184.285156 266.703125 184.285156 L 262.902344 184.285156 C 261.203125 184.285156 259.828125 182.90625 259.828125 181.207031 C 259.828125 179.511719 261.203125 178.132812 262.902344 178.132812 Z M 163.210938 197.203125 C 163.210938 195.503906 164.585938 194.128906 166.285156 194.128906 L 170.085938 194.128906 C 171.785156 194.128906 173.160156 195.503906 173.160156 197.203125 C 173.160156 198.902344 171.785156 200.28125 170.085938 200.28125 L 166.285156 200.28125 C 164.585938 200.28125 163.210938 198.902344 163.210938 197.203125 Z M 269.777344 213.199219 C 269.777344 214.898438 268.402344 216.273438 266.703125 216.273438 L 262.902344 216.273438 C 261.203125 216.273438 259.828125 214.898438 259.828125 213.199219 C 259.828125 211.5 261.203125 210.125 262.902344 210.125 L 266.703125 210.125 C 268.402344 210.121094 269.777344 211.5 269.777344 213.199219 Z M 269.777344 213.199219 " fill-opacity="1" fill-rule="nonzero"/></svg>