<svg xmlns="http://www.w3.org/2000/svg" xmlns:xlink="http://www.w3.org/1999/xlink" width="500" zoomAndPan="magnify" viewBox="0 0 375 374.999991" height="500" preserveAspectRatio="xMidYMid meet" version="1.0"><defs><clipPath id="5aab90567e"><path d="M 58.292969 54 L 332.042969 54 L 332.042969 324 L 58.292969 324 Z M 58.292969 54 " clip-rule="nonzero"/></clipPath></defs><g clip-path="url(#5aab90567e)"><path 
 d="M 202.761719 84.570312 C 198.164062 81.507812 192.175781 81.507812 187.578125 84.570312 L 91.765625 148.445312 C 87.957031 150.984375 85.667969 155.257812 85.667969 159.835938 L 85.667969 282.058594 C 85.667969 289.617188 91.796875 295.746094 99.355469 295.746094 L 140.417969 295.746094 L 140.417969 240.996094 C 140.417969 218.316406 158.804688 199.933594 181.480469 199.933594 L 208.855469 199.933594 C 231.535156 199.933594 249.917969 218.316406 249.917969 240.996094 L 249.917969 295.746094 L 290.980469 295.746094 C 298.539062 295.746094 304.667969 289.617188 304.667969 282.058594 L 304.667969 159.835938 C 304.667969 155.257812 302.382812 150.984375 298.574219 148.445312 Z M 172.390625 61.792969 C 186.183594 52.597656 204.152344 52.597656 217.945312 61.792969 L 313.757812 125.667969 C 325.183594 133.285156 332.042969 146.105469 332.042969 159.835938 L 332.042969 282.058594 C 332.042969 304.738281 313.660156 323.121094 290.980469 323.121094 L 236.230469 323.121094 C 228.671875 323.121094 222.542969 316.992188 222.542969 309.433594 L 222.542969 240.996094 C 222.542969 233.4375 216.414062 227.308594 208.855469 227.308594 L 181.480469 227.308594 C 173.921875 227.308594 167.792969 233.4375 167.792969 240.996094 L 167.792969 309.433594 C 167.792969 316.992188 161.664062 323.121094 154.105469 323.121094 L 99.355469 323.121094 C 76.679688 323.121094 58.292969 304.738281 58.292969 282.058594 L 58.292969 159.835938 C 58.292969 146.105469 65.15625 133.285156 76.578125 125.667969 Z M 172.390625 61.792969 " fill-opacity="1" fill-rule="evenodd"/></g></svg>