<svg xmlns="http://www.w3.org/2000/svg" xmlns:xlink="http://www.w3.org/1999/xlink" width="500" zoomAndPan="magnify" viewBox="0 0 375 374.999991" height="500" preserveAspectRatio="xMidYMid meet" version="1.0"><defs><clipPath id="7c6a96d810"><path d="M 75 74 L 300 74 L 300 314.667969 L 75 314.667969 Z M 75 74 " clip-rule="nonzero"/></clipPath></defs><g clip-path="url(#7c6a96d810)"><path d="M 76.175781 152.804688 C 76.175781 152.84375 76.148438 152.882812 76.132812 152.921875 C 75.964844 153.355469 75.875 153.804688 75.863281 154.269531 C 75.863281 154.316406 75.835938 154.347656 75.835938 154.390625 L 75.835938 177.523438 C 75.839844 178.867188 75.957031 180.199219 76.195312 181.519531 C 76.429688 182.84375 76.777344 184.132812 77.238281 185.394531 C 77.699219 186.65625 78.265625 187.867188 78.941406 189.027344 C 79.613281 190.191406 80.382812 191.285156 81.246094 192.3125 C 82.109375 193.339844 83.058594 194.285156 84.089844 195.148438 C 85.117188 196.011719 86.214844 196.777344 87.378906 197.449219 C 88.542969 198.121094 89.757812 198.6875 91.019531 199.144531 C 92.28125 199.605469 93.574219 199.953125 94.898438 200.1875 L 94.898438 297.183594 C 94.898438 297.445312 94.925781 297.707031 94.976562 297.964844 C 95.027344 298.222656 95.101562 298.472656 95.203125 298.714844 C 95.304688 298.957031 95.429688 299.1875 95.574219 299.40625 C 95.71875 299.621094 95.886719 299.824219 96.070312 300.011719 C 96.257812 300.195312 96.460938 300.363281 96.679688 300.507812 C 96.898438 300.652344 97.128906 300.777344 97.371094 300.878906 C 97.613281 300.976562 97.863281 301.054688 98.121094 301.105469 C 98.378906 301.15625 98.640625 301.183594 98.902344 301.183594 L 194.769531 301.183594 L 194.769531 310.667969 C 194.769531 310.933594 194.792969 311.191406 194.84375 311.449219 C 194.894531 311.707031 194.972656 311.957031 195.074219 312.199219 C 195.171875 312.441406 195.296875 312.671875 195.441406 312.890625 C 195.589844 313.109375 195.753906 313.3125 195.941406 313.496094 C 196.125 313.683594 196.328125 313.847656 196.546875 313.996094 C 196.765625 314.140625 196.996094 314.261719 197.238281 314.363281 C 197.484375 314.464844 197.734375 314.539062 197.992188 314.589844 C 198.25 314.640625 198.507812 314.667969 198.773438 314.667969 L 295.863281 314.667969 C 296.125 314.667969 296.386719 314.640625 296.644531 314.589844 C 296.902344 314.539062 297.152344 314.464844 297.394531 314.363281 C 297.636719 314.261719 297.867188 314.140625 298.085938 313.996094 C 298.304688 313.847656 298.507812 313.683594 298.695312 313.496094 C 298.878906 313.3125 299.046875 313.109375 299.191406 312.890625 C 299.339844 312.671875 299.460938 312.441406 299.5625 312.199219 C 299.664062 311.957031 299.738281 311.707031 299.789062 311.449219 C 299.839844 311.191406 299.867188 310.933594 299.867188 310.667969 L 299.867188 250.359375 C 299.867188 250.097656 299.839844 249.835938 299.789062 249.578125 C 299.738281 249.320312 299.664062 249.070312 299.5625 248.828125 C 299.460938 248.585938 299.339844 248.355469 299.191406 248.136719 C 299.046875 247.917969 298.878906 247.71875 298.695312 247.53125 C 298.507812 247.347656 298.304688 247.179688 298.085938 247.035156 C 297.867188 246.886719 297.636719 246.765625 297.394531 246.664062 C 297.152344 246.5625 296.902344 246.488281 296.644531 246.4375 C 296.386719 246.386719 296.125 246.359375 295.863281 246.359375 L 255.4375 246.359375 L 255.4375 200.167969 C 256.761719 199.933594 258.054688 199.585938 259.316406 199.125 C 260.578125 198.667969 261.792969 198.101562 262.957031 197.429688 C 264.121094 196.757812 265.21875 195.992188 266.246094 195.128906 C 267.277344 194.265625 268.222656 193.320312 269.089844 192.292969 C 269.953125 191.265625 270.722656 190.167969 271.394531 189.007812 C 272.070312 187.847656 272.636719 186.632812 273.097656 185.375 C 273.558594 184.113281 273.90625 182.820312 274.140625 181.5 C 274.375 180.179688 274.496094 178.847656 274.5 177.503906 L 274.5 154.675781 C 274.496094 154.65625 274.496094 154.636719 274.5 154.617188 L 274.5 154.390625 C 274.5 154.359375 274.5 154.332031 274.5 154.296875 C 274.488281 153.8125 274.394531 153.34375 274.214844 152.890625 L 274.191406 152.8125 C 274.191406 152.777344 274.191406 152.742188 274.15625 152.710938 L 252.613281 106.210938 C 252.285156 105.503906 251.792969 104.941406 251.136719 104.519531 C 250.476562 104.101562 249.757812 103.890625 248.976562 103.890625 L 229.160156 103.890625 C 229.335938 103.003906 229.460938 102.113281 229.539062 101.214844 C 229.617188 100.3125 229.644531 99.414062 229.621094 98.511719 C 229.597656 97.609375 229.523438 96.707031 229.402344 95.8125 C 229.277344 94.917969 229.105469 94.035156 228.882812 93.160156 C 228.664062 92.285156 228.394531 91.421875 228.074219 90.578125 C 227.757812 89.734375 227.394531 88.90625 226.984375 88.101562 C 226.574219 87.296875 226.121094 86.515625 225.625 85.761719 C 225.128906 85.007812 224.59375 84.28125 224.015625 83.585938 C 223.441406 82.890625 222.828125 82.230469 222.175781 81.601562 C 221.523438 80.976562 220.839844 80.386719 220.125 79.835938 C 219.410156 79.285156 218.664062 78.773438 217.890625 78.304688 C 217.117188 77.835938 216.320312 77.414062 215.5 77.03125 C 214.679688 76.652344 213.84375 76.316406 212.984375 76.03125 C 212.128906 75.742188 211.257812 75.503906 210.375 75.316406 C 209.488281 75.125 208.597656 74.984375 207.699219 74.890625 C 206.796875 74.800781 205.894531 74.757812 204.992188 74.765625 C 202.296875 74.757812 199.671875 75.183594 197.117188 76.046875 C 194.566406 76.90625 192.21875 78.15625 190.082031 79.796875 C 189.007812 79.007812 187.878906 78.304688 186.695312 77.695312 C 185.511719 77.085938 184.285156 76.570312 183.019531 76.15625 C 181.75 75.738281 180.460938 75.425781 179.144531 75.214844 C 177.828125 75.003906 176.5 74.898438 175.167969 74.898438 C 173.835938 74.898438 172.507812 75.003906 171.191406 75.214844 C 169.875 75.425781 168.585938 75.738281 167.316406 76.15625 C 166.050781 76.570312 164.824219 77.085938 163.640625 77.695312 C 162.457031 78.304688 161.324219 79.007812 160.253906 79.796875 C 158.117188 78.15625 155.769531 76.90625 153.21875 76.046875 C 150.664062 75.183594 148.039062 74.757812 145.34375 74.765625 C 144.441406 74.757812 143.539062 74.800781 142.636719 74.890625 C 141.738281 74.984375 140.847656 75.125 139.960938 75.316406 C 139.078125 75.503906 138.207031 75.742188 137.351562 76.03125 C 136.492188 76.316406 135.652344 76.652344 134.835938 77.03125 C 134.015625 77.414062 133.21875 77.835938 132.445312 78.304688 C 131.671875 78.773438 130.925781 79.285156 130.210938 79.835938 C 129.492188 80.386719 128.8125 80.976562 128.160156 81.601562 C 127.507812 82.230469 126.894531 82.890625 126.320312 83.585938 C 125.742188 84.28125 125.207031 85.007812 124.707031 85.761719 C 124.210938 86.515625 123.761719 87.296875 123.351562 88.101562 C 122.941406 88.90625 122.578125 89.734375 122.261719 90.578125 C 121.941406 91.421875 121.671875 92.285156 121.453125 93.160156 C 121.230469 94.035156 121.058594 94.917969 120.933594 95.8125 C 120.8125 96.707031 120.738281 97.609375 120.714844 98.511719 C 120.691406 99.414062 120.71875 100.3125 120.796875 101.214844 C 120.875 102.113281 121 103.003906 121.175781 103.890625 L 101.351562 103.890625 C 100.570312 103.890625 99.851562 104.101562 99.191406 104.519531 C 98.535156 104.941406 98.042969 105.503906 97.714844 106.210938 L 76.203125 152.710938 C 76.191406 152.734375 76.1875 152.769531 76.175781 152.804688 Z M 83.847656 177.523438 L 83.847656 158.390625 L 113.96875 158.390625 L 113.96875 177.523438 C 113.964844 178.507812 113.867188 179.484375 113.671875 180.449219 C 113.480469 181.414062 113.191406 182.351562 112.816406 183.261719 C 112.4375 184.167969 111.972656 185.03125 111.425781 185.851562 C 110.878906 186.667969 110.253906 187.425781 109.558594 188.121094 C 108.863281 188.820312 108.101562 189.441406 107.285156 189.988281 C 106.464844 190.535156 105.601562 191 104.691406 191.378906 C 103.78125 191.757812 102.84375 192.042969 101.875 192.238281 C 100.910156 192.433594 99.933594 192.53125 98.949219 192.535156 L 98.84375 192.535156 C 97.859375 192.53125 96.882812 192.429688 95.917969 192.234375 C 94.953125 192.039062 94.015625 191.75 93.109375 191.371094 C 92.199219 190.992188 91.335938 190.527344 90.519531 189.980469 C 89.699219 189.433594 88.945312 188.808594 88.25 188.113281 C 87.554688 187.417969 86.933594 186.660156 86.386719 185.84375 C 85.839844 185.027344 85.375 184.164062 85 183.253906 C 84.621094 182.347656 84.335938 181.410156 84.140625 180.445312 C 83.949219 179.480469 83.847656 178.507812 83.847656 177.523438 Z M 140.285156 158.410156 L 152.101562 158.410156 L 152.101562 177.523438 C 152.097656 178.511719 152.003906 179.488281 151.808594 180.457031 C 151.613281 181.425781 151.328125 182.363281 150.949219 183.277344 C 150.570312 184.1875 150.109375 185.054688 149.558594 185.875 C 149.007812 186.695312 148.382812 187.453125 147.683594 188.152344 C 146.984375 188.847656 146.226562 189.472656 145.402344 190.019531 C 144.582031 190.566406 143.714844 191.03125 142.800781 191.410156 C 141.886719 191.785156 140.945312 192.070312 139.976562 192.261719 C 139.007812 192.457031 138.027344 192.550781 137.039062 192.550781 C 136.050781 192.550781 135.070312 192.457031 134.101562 192.261719 C 133.132812 192.070312 132.191406 191.785156 131.277344 191.410156 C 130.363281 191.03125 129.496094 190.566406 128.675781 190.019531 C 127.851562 189.472656 127.09375 188.847656 126.394531 188.152344 C 125.695312 187.453125 125.070312 186.695312 124.519531 185.875 C 123.96875 185.054688 123.507812 184.1875 123.128906 183.277344 C 122.75 182.363281 122.460938 181.425781 122.269531 180.457031 C 122.074219 179.488281 121.976562 178.511719 121.976562 177.523438 L 121.976562 158.390625 Z M 144.289062 139.53125 L 206.042969 139.53125 L 206.042969 150.414062 L 144.289062 150.414062 Z M 228.359375 177.515625 C 228.375 178.515625 228.292969 179.503906 228.109375 180.484375 C 227.929688 181.464844 227.652344 182.421875 227.28125 183.347656 C 226.910156 184.273438 226.453125 185.152344 225.90625 185.988281 C 225.359375 186.824219 224.734375 187.597656 224.035156 188.308594 C 223.335938 189.019531 222.570312 189.65625 221.742188 190.214844 C 220.914062 190.773438 220.039062 191.246094 219.121094 191.632812 C 218.199219 192.015625 217.246094 192.308594 216.265625 192.503906 C 215.289062 192.703125 214.296875 192.800781 213.300781 192.800781 C 212.300781 192.800781 211.308594 192.703125 210.332031 192.503906 C 209.351562 192.308594 208.398438 192.015625 207.480469 191.632812 C 206.558594 191.246094 205.683594 190.773438 204.855469 190.214844 C 204.027344 189.65625 203.261719 189.019531 202.5625 188.308594 C 201.863281 187.597656 201.238281 186.824219 200.691406 185.988281 C 200.144531 185.152344 199.6875 184.273438 199.316406 183.347656 C 198.945312 182.421875 198.667969 181.464844 198.488281 180.484375 C 198.304688 179.503906 198.222656 178.515625 198.238281 177.515625 L 198.238281 158.390625 L 228.359375 158.390625 Z M 190.230469 177.515625 C 190.230469 178.503906 190.132812 179.480469 189.941406 180.449219 C 189.75 181.417969 189.460938 182.359375 189.085938 183.273438 C 188.707031 184.183594 188.242188 185.050781 187.691406 185.871094 C 187.144531 186.691406 186.519531 187.453125 185.820312 188.148438 C 185.121094 188.847656 184.359375 189.472656 183.539062 190.019531 C 182.714844 190.570312 181.847656 191.03125 180.933594 191.410156 C 180.019531 191.789062 179.078125 192.074219 178.109375 192.265625 C 177.136719 192.457031 176.160156 192.554688 175.167969 192.554688 C 174.179688 192.554688 173.203125 192.457031 172.230469 192.265625 C 171.261719 192.074219 170.320312 191.789062 169.40625 191.410156 C 168.492188 191.03125 167.625 190.570312 166.800781 190.019531 C 165.980469 189.472656 165.21875 188.847656 164.519531 188.148438 C 163.820312 187.453125 163.195312 186.691406 162.648438 185.871094 C 162.097656 185.050781 161.632812 184.183594 161.253906 183.273438 C 160.875 182.359375 160.589844 181.417969 160.398438 180.449219 C 160.207031 179.480469 160.109375 178.503906 160.109375 177.515625 L 160.109375 158.390625 L 190.25 158.390625 Z M 122.054688 293.183594 L 122.054688 239.238281 L 159.53125 239.238281 L 159.53125 293.183594 Z M 228.269531 246.359375 L 198.773438 246.359375 C 198.507812 246.359375 198.25 246.386719 197.992188 246.4375 C 197.734375 246.488281 197.484375 246.5625 197.238281 246.664062 C 196.996094 246.765625 196.765625 246.886719 196.546875 247.035156 C 196.328125 247.179688 196.125 247.347656 195.941406 247.53125 C 195.753906 247.71875 195.589844 247.917969 195.441406 248.136719 C 195.296875 248.355469 195.171875 248.585938 195.074219 248.828125 C 194.972656 249.070312 194.894531 249.320312 194.84375 249.578125 C 194.792969 249.835938 194.769531 250.097656 194.769531 250.359375 L 194.769531 268.558594 L 183.957031 268.558594 L 183.957031 232.152344 L 228.269531 232.152344 Z M 291.859375 306.671875 L 202.777344 306.671875 L 202.777344 254.355469 L 291.859375 254.355469 Z M 236.277344 246.359375 L 236.277344 228.15625 C 236.277344 227.894531 236.253906 227.632812 236.203125 227.375 C 236.152344 227.117188 236.074219 226.867188 235.972656 226.625 C 235.875 226.382812 235.75 226.152344 235.605469 225.933594 C 235.457031 225.714844 235.292969 225.515625 235.105469 225.328125 C 234.921875 225.144531 234.71875 224.976562 234.5 224.832031 C 234.28125 224.683594 234.050781 224.5625 233.808594 224.460938 C 233.5625 224.363281 233.3125 224.285156 233.054688 224.234375 C 232.796875 224.183594 232.539062 224.15625 232.273438 224.15625 L 179.960938 224.15625 C 179.695312 224.15625 179.4375 224.183594 179.179688 224.234375 C 178.921875 224.285156 178.667969 224.363281 178.425781 224.460938 C 178.183594 224.5625 177.953125 224.6875 177.734375 224.832031 C 177.515625 224.976562 177.3125 225.144531 177.128906 225.328125 C 176.941406 225.515625 176.777344 225.714844 176.628906 225.933594 C 176.484375 226.152344 176.359375 226.382812 176.257812 226.625 C 176.160156 226.867188 176.082031 227.117188 176.03125 227.375 C 175.980469 227.632812 175.953125 227.894531 175.953125 228.15625 L 175.953125 272.558594 C 175.953125 272.820312 175.980469 273.078125 176.03125 273.335938 C 176.082031 273.59375 176.160156 273.84375 176.257812 274.085938 C 176.359375 274.332031 176.484375 274.5625 176.628906 274.777344 C 176.777344 274.996094 176.941406 275.199219 177.128906 275.386719 C 177.3125 275.570312 177.515625 275.734375 177.734375 275.882812 C 177.953125 276.027344 178.183594 276.152344 178.425781 276.25 C 178.667969 276.351562 178.921875 276.429688 179.179688 276.480469 C 179.4375 276.53125 179.695312 276.554688 179.960938 276.554688 L 194.777344 276.554688 L 194.777344 293.183594 L 167.546875 293.183594 L 167.546875 235.242188 C 167.546875 234.976562 167.519531 234.71875 167.46875 234.460938 C 167.417969 234.203125 167.339844 233.953125 167.242188 233.710938 C 167.140625 233.46875 167.015625 233.238281 166.871094 233.019531 C 166.722656 232.800781 166.558594 232.597656 166.371094 232.414062 C 166.1875 232.226562 165.984375 232.0625 165.765625 231.917969 C 165.546875 231.769531 165.316406 231.648438 165.074219 231.546875 C 164.832031 231.445312 164.578125 231.371094 164.320312 231.320312 C 164.0625 231.269531 163.804688 231.242188 163.539062 231.242188 L 118.050781 231.242188 C 117.785156 231.242188 117.527344 231.269531 117.269531 231.320312 C 117.011719 231.371094 116.761719 231.445312 116.515625 231.546875 C 116.273438 231.648438 116.042969 231.769531 115.824219 231.917969 C 115.605469 232.0625 115.402344 232.226562 115.21875 232.414062 C 115.03125 232.597656 114.867188 232.800781 114.71875 233.019531 C 114.574219 233.238281 114.449219 233.46875 114.351562 233.710938 C 114.25 233.953125 114.171875 234.203125 114.121094 234.460938 C 114.070312 234.71875 114.042969 234.976562 114.042969 235.242188 L 114.042969 293.183594 L 102.910156 293.183594 L 102.910156 200.167969 C 104.425781 199.898438 105.898438 199.484375 107.332031 198.921875 C 108.765625 198.363281 110.128906 197.664062 111.425781 196.828125 C 112.71875 195.996094 113.914062 195.042969 115.019531 193.96875 C 116.121094 192.894531 117.105469 191.722656 117.972656 190.453125 C 118.234375 190.839844 118.511719 191.214844 118.796875 191.585938 C 119.082031 191.957031 119.378906 192.316406 119.6875 192.667969 C 119.996094 193.019531 120.3125 193.363281 120.640625 193.695312 C 120.96875 194.027344 121.308594 194.351562 121.65625 194.660156 C 122.007812 194.972656 122.363281 195.273438 122.730469 195.566406 C 123.097656 195.855469 123.472656 196.132812 123.855469 196.402344 C 124.238281 196.667969 124.632812 196.921875 125.03125 197.167969 C 125.429688 197.410156 125.835938 197.640625 126.25 197.859375 C 126.664062 198.078125 127.082031 198.285156 127.511719 198.480469 C 127.9375 198.671875 128.367188 198.851562 128.804688 199.019531 C 129.242188 199.1875 129.683594 199.339844 130.128906 199.480469 C 130.574219 199.621094 131.027344 199.746094 131.480469 199.859375 C 131.933594 199.972656 132.390625 200.070312 132.851562 200.15625 C 133.3125 200.238281 133.773438 200.3125 134.238281 200.367188 C 134.703125 200.425781 135.167969 200.46875 135.636719 200.496094 C 136.101562 200.523438 136.570312 200.539062 137.039062 200.539062 C 137.507812 200.539062 137.972656 200.523438 138.441406 200.496094 C 138.910156 200.46875 139.375 200.425781 139.839844 200.367188 C 140.304688 200.3125 140.765625 200.238281 141.226562 200.15625 C 141.6875 200.070312 142.144531 199.972656 142.597656 199.859375 C 143.050781 199.746094 143.5 199.621094 143.949219 199.480469 C 144.394531 199.339844 144.835938 199.1875 145.273438 199.019531 C 145.710938 198.851562 146.140625 198.671875 146.566406 198.480469 C 146.992188 198.285156 147.414062 198.078125 147.828125 197.859375 C 148.242188 197.640625 148.648438 197.410156 149.046875 197.167969 C 149.445312 196.921875 149.835938 196.667969 150.222656 196.402344 C 150.605469 196.132812 150.980469 195.855469 151.347656 195.566406 C 151.714844 195.273438 152.070312 194.972656 152.417969 194.660156 C 152.769531 194.351562 153.105469 194.027344 153.4375 193.695312 C 153.765625 193.363281 154.082031 193.019531 154.390625 192.667969 C 154.699219 192.316406 154.996094 191.957031 155.28125 191.585938 C 155.566406 191.214844 155.839844 190.839844 156.105469 190.453125 C 156.367188 190.839844 156.640625 191.214844 156.925781 191.585938 C 157.214844 191.957031 157.511719 192.316406 157.816406 192.667969 C 158.125 193.019531 158.445312 193.363281 158.773438 193.695312 C 159.101562 194.027344 159.441406 194.351562 159.789062 194.660156 C 160.136719 194.972656 160.496094 195.273438 160.863281 195.566406 C 161.226562 195.855469 161.605469 196.132812 161.988281 196.402344 C 162.371094 196.667969 162.761719 196.921875 163.164062 197.167969 C 163.5625 197.410156 163.96875 197.640625 164.382812 197.859375 C 164.796875 198.078125 165.214844 198.285156 165.640625 198.480469 C 166.066406 198.671875 166.5 198.851562 166.9375 199.019531 C 167.371094 199.1875 167.8125 199.339844 168.261719 199.480469 C 168.707031 199.621094 169.15625 199.746094 169.613281 199.859375 C 170.066406 199.972656 170.523438 200.070312 170.984375 200.15625 C 171.441406 200.238281 171.90625 200.3125 172.371094 200.367188 C 172.835938 200.425781 173.300781 200.46875 173.765625 200.496094 C 174.234375 200.523438 174.703125 200.539062 175.167969 200.539062 C 175.636719 200.539062 176.105469 200.523438 176.574219 200.496094 C 177.039062 200.46875 177.503906 200.425781 177.96875 200.367188 C 178.433594 200.3125 178.898438 200.238281 179.355469 200.15625 C 179.816406 200.070312 180.273438 199.972656 180.726562 199.859375 C 181.183594 199.746094 181.632812 199.621094 182.078125 199.480469 C 182.527344 199.339844 182.96875 199.1875 183.402344 199.019531 C 183.839844 198.851562 184.273438 198.671875 184.699219 198.480469 C 185.125 198.285156 185.542969 198.078125 185.957031 197.859375 C 186.371094 197.640625 186.777344 197.410156 187.175781 197.167969 C 187.578125 196.921875 187.96875 196.667969 188.351562 196.402344 C 188.734375 196.132812 189.113281 195.855469 189.476562 195.566406 C 189.84375 195.273438 190.203125 194.972656 190.550781 194.660156 C 190.898438 194.351562 191.238281 194.027344 191.566406 193.695312 C 191.894531 193.363281 192.214844 193.019531 192.523438 192.667969 C 192.828125 192.316406 193.125 191.957031 193.414062 191.585938 C 193.699219 191.214844 193.972656 190.839844 194.234375 190.453125 C 194.5 190.839844 194.773438 191.214844 195.058594 191.585938 C 195.34375 191.957031 195.640625 192.316406 195.949219 192.667969 C 196.257812 193.019531 196.574219 193.363281 196.902344 193.695312 C 197.230469 194.027344 197.570312 194.351562 197.917969 194.660156 C 198.269531 194.972656 198.625 195.273438 198.992188 195.566406 C 199.359375 195.855469 199.734375 196.132812 200.117188 196.402344 C 200.5 196.667969 200.894531 196.925781 201.292969 197.167969 C 201.691406 197.410156 202.097656 197.640625 202.511719 197.859375 C 202.925781 198.078125 203.34375 198.285156 203.769531 198.480469 C 204.195312 198.671875 204.628906 198.851562 205.066406 199.019531 C 205.503906 199.1875 205.945312 199.339844 206.390625 199.480469 C 206.835938 199.621094 207.285156 199.746094 207.742188 199.859375 C 208.195312 199.972656 208.652344 200.070312 209.113281 200.15625 C 209.574219 200.238281 210.035156 200.3125 210.5 200.367188 C 210.964844 200.425781 211.429688 200.46875 211.898438 200.496094 C 212.363281 200.523438 212.832031 200.539062 213.300781 200.539062 C 213.765625 200.539062 214.234375 200.523438 214.703125 200.496094 C 215.167969 200.46875 215.632812 200.425781 216.097656 200.367188 C 216.5625 200.3125 217.023438 200.238281 217.484375 200.15625 C 217.945312 200.070312 218.402344 199.972656 218.855469 199.859375 C 219.3125 199.746094 219.761719 199.621094 220.207031 199.480469 C 220.652344 199.339844 221.09375 199.1875 221.53125 199.019531 C 221.96875 198.851562 222.402344 198.671875 222.828125 198.480469 C 223.253906 198.285156 223.671875 198.078125 224.085938 197.859375 C 224.5 197.640625 224.90625 197.410156 225.304688 197.167969 C 225.703125 196.925781 226.097656 196.667969 226.480469 196.402344 C 226.863281 196.132812 227.238281 195.855469 227.605469 195.566406 C 227.972656 195.273438 228.332031 194.972656 228.679688 194.660156 C 229.027344 194.351562 229.367188 194.027344 229.695312 193.695312 C 230.023438 193.363281 230.339844 193.019531 230.648438 192.667969 C 230.957031 192.316406 231.253906 191.957031 231.539062 191.585938 C 231.824219 191.214844 232.101562 190.839844 232.363281 190.453125 C 233.230469 191.722656 234.214844 192.894531 235.316406 193.96875 C 236.421875 195.042969 237.617188 195.996094 238.910156 196.828125 C 240.207031 197.664062 241.570312 198.363281 243.003906 198.921875 C 244.4375 199.484375 245.910156 199.898438 247.425781 200.167969 L 247.425781 246.359375 Z M 266.488281 177.523438 C 266.488281 178.507812 266.390625 179.484375 266.199219 180.449219 C 266.003906 181.414062 265.71875 182.351562 265.34375 183.261719 C 264.964844 184.171875 264.503906 185.035156 263.957031 185.855469 C 263.410156 186.675781 262.789062 187.433594 262.089844 188.128906 C 261.394531 188.828125 260.636719 189.449219 259.820312 190 C 259 190.546875 258.136719 191.011719 257.226562 191.390625 C 256.316406 191.769531 255.378906 192.058594 254.414062 192.253906 C 253.445312 192.449219 252.46875 192.550781 251.484375 192.554688 L 251.378906 192.554688 C 250.394531 192.550781 249.417969 192.449219 248.449219 192.253906 C 247.484375 192.058594 246.546875 191.773438 245.636719 191.394531 C 244.722656 191.015625 243.859375 190.550781 243.039062 190 C 242.222656 189.453125 241.464844 188.828125 240.769531 188.132812 C 240.070312 187.433594 239.449219 186.675781 238.902344 185.859375 C 238.355469 185.039062 237.890625 184.175781 237.515625 183.265625 C 237.136719 182.355469 236.851562 181.417969 236.660156 180.449219 C 236.464844 179.484375 236.367188 178.507812 236.367188 177.523438 L 236.367188 158.390625 L 266.488281 158.390625 Z M 246.414062 111.886719 L 264.242188 150.390625 L 214.054688 150.390625 L 214.054688 122.210938 C 216.582031 121.207031 218.878906 119.820312 220.945312 118.050781 C 223.011719 116.285156 224.734375 114.230469 226.117188 111.886719 Z M 145.34375 82.765625 C 146.46875 82.761719 147.582031 82.871094 148.683594 83.097656 C 149.785156 83.320312 150.851562 83.65625 151.886719 84.097656 C 152.917969 84.542969 153.894531 85.085938 154.816406 85.726562 C 155.738281 86.371094 156.585938 87.101562 157.359375 87.917969 C 157.542969 88.113281 157.75 88.289062 157.972656 88.441406 C 158.195312 88.597656 158.429688 88.726562 158.679688 88.832031 C 158.929688 88.941406 159.183594 89.019531 159.449219 89.074219 C 159.714844 89.128906 159.984375 89.15625 160.253906 89.15625 C 160.527344 89.15625 160.792969 89.128906 161.058594 89.074219 C 161.324219 89.019531 161.582031 88.941406 161.832031 88.832031 C 162.078125 88.726562 162.316406 88.597656 162.539062 88.441406 C 162.761719 88.289062 162.964844 88.113281 163.152344 87.917969 C 163.539062 87.511719 163.945312 87.125 164.367188 86.761719 C 164.792969 86.398438 165.238281 86.054688 165.695312 85.734375 C 166.15625 85.414062 166.632812 85.121094 167.121094 84.847656 C 167.609375 84.574219 168.113281 84.328125 168.628906 84.109375 C 169.144531 83.886719 169.667969 83.695312 170.203125 83.527344 C 170.738281 83.359375 171.28125 83.21875 171.828125 83.105469 C 172.378906 82.992188 172.929688 82.910156 173.488281 82.851562 C 174.046875 82.796875 174.605469 82.765625 175.164062 82.765625 C 175.726562 82.765625 176.285156 82.796875 176.84375 82.851562 C 177.402344 82.910156 177.953125 82.992188 178.503906 83.105469 C 179.050781 83.21875 179.59375 83.359375 180.128906 83.527344 C 180.664062 83.695312 181.1875 83.886719 181.703125 84.109375 C 182.21875 84.328125 182.71875 84.574219 183.210938 84.847656 C 183.699219 85.121094 184.175781 85.414062 184.636719 85.734375 C 185.09375 86.054688 185.539062 86.398438 185.960938 86.761719 C 186.386719 87.125 186.792969 87.511719 187.179688 87.917969 C 187.371094 88.105469 187.578125 88.273438 187.800781 88.421875 C 188.027344 88.570312 188.261719 88.695312 188.511719 88.796875 C 188.757812 88.898438 189.015625 88.976562 189.277344 89.027344 C 189.542969 89.078125 189.808594 89.105469 190.078125 89.105469 C 190.34375 89.105469 190.609375 89.078125 190.875 89.027344 C 191.136719 88.976562 191.394531 88.898438 191.644531 88.796875 C 191.890625 88.695312 192.128906 88.570312 192.351562 88.421875 C 192.574219 88.273438 192.78125 88.105469 192.972656 87.917969 C 193.746094 87.101562 194.59375 86.371094 195.515625 85.730469 C 196.4375 85.085938 197.414062 84.542969 198.445312 84.101562 C 199.480469 83.65625 200.546875 83.324219 201.648438 83.097656 C 202.75 82.871094 203.863281 82.761719 204.988281 82.765625 C 205.992188 82.761719 206.988281 82.851562 207.976562 83.03125 C 208.964844 83.210938 209.929688 83.476562 210.871094 83.832031 C 211.8125 84.183594 212.710938 84.621094 213.574219 85.136719 C 214.433594 85.65625 215.242188 86.246094 215.996094 86.910156 C 216.75 87.574219 217.4375 88.300781 218.058594 89.085938 C 218.679688 89.875 219.226562 90.710938 219.695312 91.601562 C 220.164062 92.488281 220.550781 93.410156 220.851562 94.367188 C 221.15625 95.324219 221.367188 96.300781 221.492188 97.292969 C 221.617188 98.289062 221.648438 99.289062 221.59375 100.289062 C 221.535156 101.292969 221.390625 102.28125 221.152344 103.253906 C 220.914062 104.230469 220.59375 105.175781 220.183594 106.09375 C 219.777344 107.011719 219.289062 107.882812 218.722656 108.710938 C 218.152344 109.539062 217.515625 110.308594 216.808594 111.023438 C 216.101562 111.734375 215.335938 112.378906 214.511719 112.953125 C 213.6875 113.527344 212.820312 114.019531 211.90625 114.4375 C 210.992188 114.855469 210.046875 115.183594 209.070312 115.429688 C 208.640625 115.539062 208.238281 115.714844 207.863281 115.960938 C 207.492188 116.203125 207.167969 116.5 206.894531 116.851562 C 206.621094 117.203125 206.410156 117.589844 206.265625 118.007812 C 206.121094 118.429688 206.046875 118.863281 206.046875 119.308594 L 206.046875 131.515625 L 144.289062 131.515625 L 144.289062 119.308594 C 144.292969 118.863281 144.21875 118.429688 144.074219 118.007812 C 143.929688 117.589844 143.71875 117.203125 143.445312 116.851562 C 143.171875 116.5 142.847656 116.203125 142.476562 115.960938 C 142.101562 115.714844 141.699219 115.539062 141.265625 115.429688 C 140.292969 115.183594 139.347656 114.855469 138.433594 114.4375 C 137.519531 114.023438 136.652344 113.527344 135.828125 112.953125 C 135.003906 112.378906 134.238281 111.734375 133.53125 111.023438 C 132.824219 110.308594 132.1875 109.539062 131.621094 108.710938 C 131.050781 107.882812 130.566406 107.011719 130.15625 106.09375 C 129.746094 105.179688 129.425781 104.234375 129.1875 103.257812 C 128.949219 102.285156 128.804688 101.296875 128.746094 100.292969 C 128.691406 99.292969 128.722656 98.292969 128.847656 97.296875 C 128.972656 96.304688 129.183594 95.328125 129.484375 94.371094 C 129.789062 93.414062 130.171875 92.492188 130.640625 91.605469 C 131.113281 90.71875 131.65625 89.878906 132.277344 89.089844 C 132.898438 88.304688 133.585938 87.578125 134.339844 86.914062 C 135.09375 86.25 135.902344 85.660156 136.761719 85.140625 C 137.621094 84.625 138.523438 84.1875 139.460938 83.832031 C 140.402344 83.480469 141.367188 83.210938 142.355469 83.03125 C 143.34375 82.851562 144.339844 82.761719 145.34375 82.765625 Z M 103.925781 111.886719 L 124.21875 111.886719 C 125.601562 114.230469 127.324219 116.285156 129.390625 118.050781 C 131.457031 119.820312 133.753906 121.207031 136.28125 122.210938 L 136.28125 150.390625 L 86.097656 150.390625 Z M 103.925781 111.886719 " fill-opacity="1" fill-rule="nonzero"/></g><path d="M 147.96875 259.441406 C 147.703125 259.441406 147.445312 259.46875 147.1875 259.519531 C 146.929688 259.570312 146.675781 259.648438 146.433594 259.746094 C 146.191406 259.847656 145.960938 259.972656 145.742188 260.117188 C 145.523438 260.261719 145.320312 260.429688 145.136719 260.613281 C 144.949219 260.800781 144.785156 261 144.636719 261.21875 C 144.492188 261.4375 144.367188 261.667969 144.265625 261.910156 C 144.167969 262.152344 144.089844 262.402344 144.039062 262.660156 C 143.988281 262.917969 143.960938 263.179688 143.960938 263.441406 L 143.960938 269.917969 C 143.960938 270.179688 143.988281 270.441406 144.039062 270.699219 C 144.089844 270.957031 144.167969 271.207031 144.265625 271.449219 C 144.367188 271.691406 144.492188 271.921875 144.636719 272.140625 C 144.785156 272.359375 144.949219 272.558594 145.136719 272.746094 C 145.320312 272.929688 145.523438 273.097656 145.742188 273.242188 C 145.960938 273.390625 146.191406 273.511719 146.433594 273.613281 C 146.675781 273.714844 146.929688 273.789062 147.1875 273.839844 C 147.445312 273.890625 147.703125 273.917969 147.96875 273.917969 C 148.230469 273.917969 148.492188 273.890625 148.75 273.839844 C 149.007812 273.789062 149.257812 273.714844 149.5 273.613281 C 149.742188 273.511719 149.972656 273.390625 150.191406 273.242188 C 150.410156 273.097656 150.613281 272.929688 150.796875 272.746094 C 150.984375 272.558594 151.152344 272.359375 151.296875 272.140625 C 151.441406 271.921875 151.566406 271.691406 151.667969 271.449219 C 151.765625 271.207031 151.84375 270.957031 151.894531 270.699219 C 151.945312 270.441406 151.972656 270.179688 151.972656 269.917969 L 151.972656 263.441406 C 151.972656 263.179688 151.945312 262.917969 151.894531 262.660156 C 151.84375 262.402344 151.765625 262.152344 151.667969 261.910156 C 151.566406 261.667969 151.441406 261.4375 151.296875 261.21875 C 151.152344 261 150.984375 260.800781 150.796875 260.613281 C 150.613281 260.429688 150.410156 260.261719 150.191406 260.117188 C 149.972656 259.972656 149.742188 259.847656 149.5 259.746094 C 149.257812 259.648438 149.007812 259.570312 148.75 259.519531 C 148.492188 259.46875 148.230469 259.441406 147.96875 259.441406 Z M 147.96875 259.441406 " fill-opacity="1" fill-rule="nonzero"/><path d="M 227.492188 276 L 267.1875 276 C 267.449219 276 267.710938 275.972656 267.96875 275.921875 C 268.226562 275.871094 268.476562 275.796875 268.71875 275.695312 C 268.960938 275.59375 269.191406 275.472656 269.410156 275.328125 C 269.628906 275.179688 269.832031 275.015625 270.015625 274.828125 C 270.203125 274.644531 270.371094 274.441406 270.515625 274.222656 C 270.660156 274.003906 270.785156 273.773438 270.886719 273.53125 C 270.984375 273.289062 271.0625 273.039062 271.113281 272.78125 C 271.164062 272.523438 271.191406 272.265625 271.191406 272 C 271.191406 271.738281 271.164062 271.480469 271.113281 271.222656 C 271.0625 270.964844 270.984375 270.714844 270.886719 270.472656 C 270.785156 270.230469 270.660156 270 270.515625 269.78125 C 270.371094 269.5625 270.203125 269.359375 270.015625 269.175781 C 269.832031 268.988281 269.628906 268.824219 269.410156 268.675781 C 269.191406 268.53125 268.960938 268.410156 268.71875 268.308594 C 268.476562 268.207031 268.226562 268.132812 267.96875 268.082031 C 267.710938 268.027344 267.449219 268.003906 267.1875 268.003906 L 227.492188 268.003906 C 227.230469 268.003906 226.96875 268.027344 226.710938 268.082031 C 226.453125 268.132812 226.203125 268.207031 225.960938 268.308594 C 225.71875 268.410156 225.488281 268.53125 225.269531 268.675781 C 225.050781 268.824219 224.847656 268.988281 224.660156 269.175781 C 224.476562 269.359375 224.308594 269.5625 224.164062 269.78125 C 224.015625 270 223.894531 270.230469 223.792969 270.472656 C 223.691406 270.714844 223.617188 270.964844 223.566406 271.222656 C 223.515625 271.480469 223.488281 271.738281 223.488281 272 C 223.488281 272.265625 223.515625 272.523438 223.566406 272.78125 C 223.617188 273.039062 223.691406 273.289062 223.792969 273.53125 C 223.894531 273.773438 224.015625 274.003906 224.164062 274.222656 C 224.308594 274.441406 224.476562 274.644531 224.660156 274.828125 C 224.847656 275.015625 225.050781 275.179688 225.269531 275.328125 C 225.488281 275.472656 225.71875 275.59375 225.960938 275.695312 C 226.203125 275.796875 226.453125 275.871094 226.710938 275.921875 C 226.96875 275.972656 227.230469 276 227.492188 276 Z M 227.492188 276 " fill-opacity="1" fill-rule="nonzero"/><path  d="M 216.359375 293.023438 L 278.273438 293.023438 C 278.539062 293.023438 278.796875 293 279.054688 292.949219 C 279.3125 292.898438 279.5625 292.820312 279.808594 292.71875 C 280.050781 292.621094 280.28125 292.496094 280.5 292.351562 C 280.71875 292.207031 280.921875 292.039062 281.105469 291.855469 C 281.292969 291.667969 281.457031 291.464844 281.605469 291.25 C 281.75 291.03125 281.875 290.800781 281.972656 290.558594 C 282.074219 290.3125 282.152344 290.0625 282.203125 289.808594 C 282.253906 289.550781 282.277344 289.289062 282.277344 289.027344 C 282.277344 288.765625 282.253906 288.503906 282.203125 288.246094 C 282.152344 287.988281 282.074219 287.738281 281.972656 287.496094 C 281.875 287.253906 281.75 287.023438 281.605469 286.804688 C 281.457031 286.585938 281.292969 286.386719 281.105469 286.199219 C 280.921875 286.015625 280.71875 285.847656 280.5 285.703125 C 280.28125 285.554688 280.050781 285.433594 279.808594 285.332031 C 279.5625 285.230469 279.3125 285.15625 279.054688 285.105469 C 278.796875 285.054688 278.539062 285.027344 278.273438 285.027344 L 216.359375 285.027344 C 216.097656 285.027344 215.835938 285.054688 215.578125 285.105469 C 215.320312 285.15625 215.070312 285.230469 214.828125 285.332031 C 214.585938 285.433594 214.355469 285.554688 214.136719 285.703125 C 213.917969 285.847656 213.714844 286.015625 213.527344 286.199219 C 213.34375 286.386719 213.175781 286.585938 213.03125 286.804688 C 212.882812 287.023438 212.761719 287.253906 212.660156 287.496094 C 212.558594 287.738281 212.484375 287.988281 212.433594 288.246094 C 212.382812 288.503906 212.355469 288.765625 212.355469 289.027344 C 212.355469 289.289062 212.382812 289.550781 212.433594 289.808594 C 212.484375 290.0625 212.558594 290.3125 212.660156 290.558594 C 212.761719 290.800781 212.882812 291.03125 213.03125 291.25 C 213.175781 291.464844 213.34375 291.667969 213.527344 291.855469 C 213.714844 292.039062 213.917969 292.207031 214.136719 292.351562 C 214.355469 292.496094 214.585938 292.621094 214.828125 292.71875 C 215.070312 292.820312 215.320312 292.898438 215.578125 292.949219 C 215.835938 293 216.097656 293.023438 216.359375 293.023438 Z M 216.359375 293.023438 " fill-opacity="1" fill-rule="nonzero"/></svg>