<svg xmlns="http://www.w3.org/2000/svg" xmlns:xlink="http://www.w3.org/1999/xlink" width="500" zoomAndPan="magnify" viewBox="0 0 375 374.999991" height="500" preserveAspectRatio="xMidYMid meet" version="1.0"><defs><clipPath id="8a41900733"><path d="M 67.71875 79.042969 L 306.96875 79.042969 L 306.96875 295.792969 L 67.71875 295.792969 Z M 67.71875 79.042969 " clip-rule="nonzero"/></clipPath></defs><path d="M 203.867188 268.859375 L 196.839844 268.859375 C 195.789062 268.859375 194.9375 269.707031 194.9375 270.757812 C 194.9375 271.808594 195.789062 272.660156 196.839844 272.660156 L 203.867188 272.660156 C 204.914062 272.660156 205.765625 271.808594 205.765625 270.757812 C 205.765625 269.707031 204.914062 268.859375 203.867188 268.859375 Z M 203.867188 268.859375 " fill-opacity="1" fill-rule="nonzero"/><path d="M 247.085938 144.734375 L 194.371094 144.734375 C 193.320312 144.734375 192.472656 145.585938 192.472656 146.632812 L 192.472656 206.921875 C 192.472656 207.972656 193.320312 208.824219 194.371094 208.824219 L 247.085938 208.824219 C 248.136719 208.824219 248.984375 207.972656 248.984375 206.921875 L 248.984375 146.632812 C 248.984375 145.585938 248.136719 144.734375 247.085938 144.734375 Z M 245.1875 174.878906 L 222.628906 174.878906 L 222.628906 148.535156 L 245.1875 148.535156 Z M 218.828125 148.535156 L 218.828125 174.878906 L 196.269531 174.878906 L 196.269531 148.535156 Z M 196.269531 178.679688 L 218.828125 178.679688 L 218.828125 205.023438 L 196.269531 205.023438 Z M 222.628906 205.023438 L 222.628906 178.679688 L 245.1875 178.679688 L 245.1875 205.023438 Z M 222.628906 205.023438 " fill-opacity="1" fill-rule="nonzero"/><g clip-path="url(#8a41900733)"><path d="M 306.96875 153.726562 C 306.96875 149.628906 304.242188 145.960938 300.335938 144.8125 C 300.160156 144.761719 299.980469 144.734375 299.800781 144.734375 L 257.769531 144.734375 L 257.769531 119.640625 C 261.914062 118.035156 264.796875 113.960938 264.796875 109.394531 C 264.796875 104.304688 261.222656 99.796875 256.292969 98.675781 C 256.15625 98.644531 256.015625 98.628906 255.871094 98.628906 L 215.359375 98.628906 C 211.042969 87.246094 200.128906 79.125 187.34375 79.125 C 174.558594 79.125 163.644531 87.246094 159.328125 98.632812 L 118.816406 98.632812 C 118.675781 98.632812 118.535156 98.644531 118.394531 98.679688 C 113.464844 99.796875 109.890625 104.304688 109.890625 109.398438 C 109.890625 113.960938 112.773438 118.035156 116.917969 119.640625 L 116.917969 144.734375 L 74.890625 144.734375 C 74.707031 144.734375 74.527344 144.761719 74.351562 144.8125 C 70.449219 145.960938 67.71875 149.625 67.71875 153.726562 C 67.71875 157.332031 69.828125 160.597656 72.988281 162.117188 L 72.988281 279.628906 C 72.988281 280.679688 73.839844 281.527344 74.890625 281.527344 L 116.917969 281.527344 L 116.917969 293.8125 C 116.917969 294.863281 117.765625 295.710938 118.816406 295.710938 L 255.871094 295.710938 C 256.921875 295.710938 257.769531 294.863281 257.769531 293.8125 L 257.769531 281.527344 L 299.800781 281.527344 C 300.847656 281.527344 301.699219 280.675781 301.699219 279.625 L 301.699219 162.117188 C 304.859375 160.597656 306.96875 157.332031 306.96875 153.726562 Z M 255.644531 102.429688 C 258.761719 103.234375 261 106.128906 261 109.398438 C 261 112.664062 258.761719 115.5625 255.644531 116.363281 L 216.519531 116.363281 C 217.046875 114.121094 217.355469 111.800781 217.355469 109.398438 C 217.355469 106.996094 217.046875 104.671875 216.519531 102.429688 Z M 187.34375 82.925781 C 201.796875 82.925781 213.558594 94.800781 213.558594 109.394531 C 213.558594 123.992188 201.800781 135.867188 187.34375 135.867188 C 172.886719 135.867188 161.128906 123.996094 161.128906 109.394531 C 161.128906 94.800781 172.890625 82.925781 187.34375 82.925781 Z M 113.6875 109.394531 C 113.6875 106.128906 115.929688 103.234375 119.042969 102.429688 L 158.164062 102.429688 C 157.640625 104.667969 157.332031 106.996094 157.332031 109.394531 C 157.332031 111.796875 157.640625 114.121094 158.164062 116.363281 L 119.042969 116.363281 C 115.929688 115.5625 113.6875 112.660156 113.6875 109.394531 Z M 75.183594 148.535156 L 116.917969 148.535156 L 116.917969 158.921875 L 75.183594 158.921875 C 73.011719 158.167969 71.515625 156.070312 71.515625 153.726562 C 71.515625 151.386719 73.011719 149.289062 75.183594 148.535156 Z M 76.789062 277.726562 L 76.789062 162.71875 L 116.917969 162.71875 L 116.917969 277.726562 Z M 189.242188 242.515625 L 211.800781 242.515625 L 211.800781 291.914062 L 189.242188 291.914062 Z M 185.445312 291.914062 L 162.886719 291.914062 L 162.886719 242.515625 L 185.445312 242.515625 Z M 253.972656 291.914062 L 215.601562 291.914062 L 215.601562 240.617188 C 215.601562 239.566406 214.75 238.714844 213.703125 238.714844 L 160.988281 238.714844 C 159.9375 238.714844 159.085938 239.566406 159.085938 240.617188 L 159.085938 291.914062 L 120.714844 291.914062 L 120.714844 120.164062 L 159.328125 120.164062 C 163.644531 131.546875 174.558594 139.667969 187.34375 139.667969 C 200.128906 139.667969 211.042969 131.546875 215.359375 120.164062 L 253.972656 120.164062 Z M 257.769531 277.726562 L 257.769531 162.71875 L 297.898438 162.71875 L 297.898438 277.726562 Z M 299.503906 158.921875 L 257.769531 158.921875 L 257.769531 148.535156 L 299.503906 148.535156 C 301.675781 149.285156 303.171875 151.386719 303.171875 153.726562 C 303.171875 156.066406 301.675781 158.167969 299.503906 158.921875 Z M 299.503906 158.921875 " fill-opacity="1" fill-rule="nonzero"/></g><path d="M 289.257812 169.558594 L 266.414062 169.558594 C 265.363281 169.558594 264.515625 170.410156 264.515625 171.460938 L 264.515625 256.574219 C 264.515625 257.625 265.363281 258.476562 266.414062 258.476562 L 289.257812 258.476562 C 290.308594 258.476562 291.15625 257.625 291.15625 256.574219 L 291.15625 171.460938 C 291.15625 170.410156 290.308594 169.558594 289.257812 169.558594 Z M 268.3125 194.636719 L 287.359375 194.636719 L 287.359375 212.117188 L 268.3125 212.117188 Z M 268.3125 215.917969 L 287.359375 215.917969 L 287.359375 233.394531 L 268.3125 233.394531 Z M 287.359375 173.359375 L 287.359375 190.839844 L 268.3125 190.839844 L 268.3125 173.359375 Z M 268.3125 254.675781 L 268.3125 237.195312 L 287.359375 237.195312 L 287.359375 254.675781 Z M 268.3125 254.675781 " fill-opacity="1" fill-rule="nonzero"/><path d="M 170.824219 272.660156 L 177.851562 272.660156 C 178.898438 272.660156 179.75 271.808594 179.75 270.757812 C 179.75 269.707031 178.898438 268.859375 177.851562 268.859375 L 170.824219 268.859375 C 169.773438 268.859375 168.921875 269.707031 168.921875 270.757812 C 168.921875 271.808594 169.773438 272.660156 170.824219 272.660156 Z M 170.824219 272.660156 " fill-opacity="1" fill-rule="nonzero"/><path d="M 180.316406 144.734375 L 127.601562 144.734375 C 126.550781 144.734375 125.703125 145.585938 125.703125 146.632812 L 125.703125 206.921875 C 125.703125 207.972656 126.550781 208.824219 127.601562 208.824219 L 180.316406 208.824219 C 181.367188 208.824219 182.214844 207.972656 182.214844 206.921875 L 182.214844 146.632812 C 182.214844 145.585938 181.367188 144.734375 180.316406 144.734375 Z M 178.417969 174.878906 L 155.859375 174.878906 L 155.859375 148.535156 L 178.417969 148.535156 Z M 152.058594 148.535156 L 152.058594 174.878906 L 129.5 174.878906 L 129.5 148.535156 Z M 129.5 178.679688 L 152.058594 178.679688 L 152.058594 205.023438 L 129.5 205.023438 Z M 155.859375 205.023438 L 155.859375 178.679688 L 178.417969 178.679688 L 178.417969 205.023438 Z M 155.859375 205.023438 " fill-opacity="1" fill-rule="nonzero"/><path d="M 108.273438 169.558594 L 85.429688 169.558594 C 84.382812 169.558594 83.53125 170.410156 83.53125 171.460938 L 83.53125 256.574219 C 83.53125 257.625 84.382812 258.476562 85.429688 258.476562 L 108.273438 258.476562 C 109.324219 258.476562 110.171875 257.625 110.171875 256.574219 L 110.171875 171.460938 C 110.171875 170.410156 109.324219 169.558594 108.273438 169.558594 Z M 87.328125 194.636719 L 106.375 194.636719 L 106.375 212.117188 L 87.328125 212.117188 Z M 87.328125 215.917969 L 106.375 215.917969 L 106.375 233.394531 L 87.328125 233.394531 Z M 106.375 173.359375 L 106.375 190.839844 L 87.328125 190.839844 L 87.328125 173.359375 Z M 87.328125 254.675781 L 87.328125 237.195312 L 106.375 237.195312 L 106.375 254.675781 Z M 87.328125 254.675781 " fill-opacity="1" fill-rule="nonzero"/><path d="M 169.847656 117.15625 L 179.636719 117.15625 L 179.636719 127.054688 C 179.636719 128.101562 180.484375 128.953125 181.535156 128.953125 L 193.222656 128.953125 C 194.273438 128.953125 195.125 128.101562 195.125 127.054688 L 195.125 117.15625 L 204.914062 117.15625 C 205.964844 117.15625 206.8125 116.304688 206.8125 115.257812 L 206.8125 103.460938 C 206.8125 102.410156 205.964844 101.5625 204.914062 101.5625 L 195.125 101.5625 L 195.125 91.664062 C 195.125 90.617188 194.273438 89.765625 193.222656 89.765625 L 181.535156 89.765625 C 180.484375 89.765625 179.636719 90.617188 179.636719 91.664062 L 179.636719 101.5625 L 169.847656 101.5625 C 168.796875 101.5625 167.949219 102.410156 167.949219 103.460938 L 167.949219 115.257812 C 167.949219 116.304688 168.796875 117.15625 169.847656 117.15625 Z M 171.746094 105.359375 L 181.535156 105.359375 C 182.585938 105.359375 183.433594 104.507812 183.433594 103.460938 L 183.433594 93.5625 L 191.324219 93.5625 L 191.324219 103.460938 C 191.324219 104.507812 192.175781 105.359375 193.222656 105.359375 L 203.015625 105.359375 L 203.015625 113.355469 L 193.222656 113.355469 C 192.175781 113.355469 191.324219 114.207031 191.324219 115.257812 L 191.324219 125.152344 L 183.433594 125.152344 L 183.433594 115.257812 C 183.433594 114.207031 182.585938 113.355469 181.535156 113.355469 L 171.746094 113.355469 Z M 171.746094 105.359375 " fill-opacity="1" fill-rule="nonzero"/></svg>