<svg xmlns="http://www.w3.org/2000/svg" xmlns:xlink="http://www.w3.org/1999/xlink" width="500" zoomAndPan="magnify" viewBox="0 0 375 374.999991" height="500" preserveAspectRatio="xMidYMid meet" version="1.0"><defs><clipPath id="7a837763a8"><path d="M 89 133 L 289 133 L 289 313.929688 L 89 313.929688 Z M 89 133 " clip-rule="nonzero"/></clipPath></defs><g clip-path="url(#7a837763a8)"><path d="M 175.527344 219.792969 L 202.296875 219.835938 L 202.15625 303.015625 L 175.386719 302.96875 Z M 189.039062 145.550781 L 277.375 198.839844 L 277.199219 303.144531 L 212.90625 303.035156 L 213.058594 214.472656 C 213.0625 211.5 210.660156 209.082031 207.691406 209.078125 C 207.675781 209.078125 207.65625 209.078125 207.640625 209.078125 L 207.636719 209.078125 L 170.179688 209.015625 L 170.171875 209.015625 C 167.203125 209.007812 164.792969 211.414062 164.785156 214.390625 L 164.632812 302.953125 L 100.34375 302.839844 L 100.523438 198.539062 Z M 189.054688 133.890625 C 188.113281 133.886719 187.160156 134.132812 186.292969 134.652344 L 92.394531 190.859375 C 90.625 191.917969 89.683594 193.832031 89.78125 195.757812 L 89.773438 195.757812 L 89.582031 308.207031 C 89.578125 311.179688 91.980469 313.59375 94.949219 313.597656 L 282.554688 313.921875 C 282.570312 313.921875 282.585938 313.921875 282.605469 313.921875 L 282.554688 313.921875 C 285.523438 313.925781 287.933594 311.519531 287.941406 308.546875 L 288.132812 196.132812 L 288.125 196.132812 C 288.242188 194.195312 287.304688 192.261719 285.53125 191.191406 L 191.824219 134.660156 C 190.960938 134.140625 190.007812 133.890625 189.066406 133.890625 C 189.0625 133.890625 189.0625 133.890625 189.058594 133.890625 C 189.058594 133.890625 189.058594 133.890625 189.054688 133.890625 Z M 189.054688 133.890625 " fill-opacity="1" fill-rule="nonzero"/></g><path d="M 62.535156 179.613281 L 183.476562 101.695312 C 188.195312 98.65625 194.476562 100.023438 197.511719 104.746094 C 200.546875 109.472656 199.183594 115.765625 194.464844 118.804688 L 73.523438 196.722656 C 68.808594 199.761719 62.523438 198.394531 59.488281 193.671875 C 56.453125 188.945312 57.816406 182.652344 62.535156 179.613281 Z M 62.535156 179.613281 " fill-opacity="1" fill-rule="nonzero"/><path d="M 277.257812 111.46875 L 277.183594 155.445312 L 269.25 150.296875 L 269.316406 111.453125 Z M 189.132812 100.203125 C 185.867188 100.199219 182.667969 101.800781 180.761719 104.746094 C 177.777344 109.359375 179.09375 115.523438 183.703125 118.511719 L 301.832031 195.15625 C 303.496094 196.238281 305.363281 196.753906 307.207031 196.757812 C 310.472656 196.765625 313.671875 195.160156 315.574219 192.214844 C 318.5625 187.601562 317.246094 181.4375 312.636719 178.449219 L 288 162.460938 L 287.992188 162.460938 C 287.992188 162.453125 287.992188 162.445312 287.992188 162.433594 L 288.089844 106.066406 C 288.09375 103.074219 285.675781 100.644531 282.6875 100.640625 L 263.925781 100.609375 C 260.9375 100.601562 258.511719 103.023438 258.507812 106.015625 L 258.445312 143.285156 L 194.507812 101.804688 C 192.84375 100.722656 190.976562 100.207031 189.132812 100.203125 Z M 189.132812 100.203125 " fill-opacity="1" fill-rule="nonzero"/><path d="M 269.316406 111.414062 L 269.277344 111.453125 L 269.210938 150.296875 L 269.230469 150.332031 L 277.164062 155.476562 L 277.222656 155.445312 L 277.300781 111.46875 L 277.257812 111.425781 Z M 269.316406 111.414062 " fill-opacity="1" fill-rule="nonzero"/></svg>