<svg xmlns="http://www.w3.org/2000/svg" xmlns:xlink="http://www.w3.org/1999/xlink" width="500" zoomAndPan="magnify" viewBox="0 0 375 374.999991" height="500" preserveAspectRatio="xMidYMid meet" version="1.0"><defs><clipPath id="0867c9a34d"><path d="M 103.707031 74.269531 L 270.957031 74.269531 L 270.957031 300.769531 L 103.707031 300.769531 Z M 103.707031 74.269531 " clip-rule="nonzero"/></clipPath></defs><g clip-path="url(#0867c9a34d)"><path  d="M 152.679688 156.097656 C 153.457031 162.457031 156.316406 167.851562 160.96875 171.789062 L 160.96875 202.351562 C 160.96875 207.539062 165.179688 211.761719 170.355469 211.761719 L 233.925781 211.761719 C 239.105469 211.761719 243.316406 207.539062 243.316406 202.351562 L 243.316406 167.738281 C 252.519531 158.640625 254.539062 143.761719 247.917969 132.585938 C 240.230469 119.609375 224.183594 115.804688 204.871094 122.328125 C 180.226562 113.351562 163.492188 124.585938 156.605469 137.078125 C 153.304688 143.070312 151.910156 149.824219 152.679688 156.097656 Z M 233.925781 206.226562 L 170.355469 206.226562 C 168.222656 206.226562 166.488281 204.488281 166.488281 202.351562 L 166.488281 192.667969 L 237.792969 192.667969 L 237.792969 202.351562 C 237.792969 204.488281 236.058594 206.226562 233.925781 206.226562 Z M 161.4375 139.753906 C 165.769531 131.898438 174.800781 124.667969 187.933594 124.667969 C 192.675781 124.667969 197.957031 125.613281 203.738281 127.808594 C 213.050781 132.316406 218.1875 137.96875 219.4375 145.085938 C 219.671875 146.429688 220.839844 147.375 222.152344 147.375 C 222.3125 147.375 222.472656 147.359375 222.632812 147.332031 C 224.136719 147.066406 225.140625 145.632812 224.875 144.128906 C 223.617188 136.957031 219.253906 130.898438 211.878906 126.058594 C 226.128906 122.65625 237.585938 125.980469 243.171875 135.410156 C 248.488281 144.386719 246.894531 156.324219 239.554688 163.679688 C 235.210938 163.269531 231.070312 162.042969 227.234375 160.011719 C 225.886719 159.296875 224.21875 159.816406 223.503906 161.164062 C 222.792969 162.515625 223.308594 164.191406 224.65625 164.902344 C 228.769531 167.085938 233.179688 168.476562 237.796875 169.058594 L 237.796875 187.136719 L 166.488281 187.136719 L 166.488281 172.972656 C 173.5625 172.078125 180.082031 169.304688 185.898438 164.695312 C 187.09375 163.746094 187.296875 162.007812 186.351562 160.808594 C 185.40625 159.609375 183.667969 159.40625 182.472656 160.355469 C 177.132812 164.585938 171.125 167.019531 164.597656 167.613281 C 157.113281 161.308594 155.785156 150.015625 161.4375 139.753906 Z M 233.417969 89.078125 C 233.417969 87.550781 234.65625 86.3125 236.179688 86.3125 L 256.0625 86.3125 C 257.589844 86.3125 258.824219 87.550781 258.824219 89.078125 L 258.824219 109.007812 C 258.824219 110.535156 257.589844 111.773438 256.0625 111.773438 C 254.539062 111.773438 253.304688 110.535156 253.304688 109.007812 L 253.304688 91.847656 L 236.179688 91.847656 C 234.65625 91.847656 233.417969 90.609375 233.417969 89.078125 Z M 144.039062 300.039062 C 145.574219 300.960938 147.441406 301.007812 149.074219 300.148438 L 153.726562 297.601562 L 158.414062 300.15625 C 159.171875 300.5625 159.992188 300.765625 160.816406 300.765625 C 161.710938 300.765625 162.605469 300.527344 163.410156 300.050781 C 164.972656 299.128906 165.902344 297.492188 165.902344 295.671875 L 165.902344 286.535156 L 264.578125 286.535156 C 266.105469 286.535156 267.339844 285.296875 267.339844 283.769531 L 267.339844 135.226562 C 269.488281 134.179688 270.855469 132.011719 270.855469 129.585938 L 270.855469 80.558594 C 270.855469 77.089844 268.035156 74.269531 264.566406 74.269531 L 215.660156 74.269531 C 213.753906 74.269531 212.050781 75.074219 210.890625 76.449219 L 125.652344 76.449219 C 113.632812 76.449219 103.855469 86.242188 103.855469 98.28125 L 103.855469 267.71875 C 103.855469 278.09375 112.277344 286.535156 122.632812 286.535156 L 141.554688 286.535156 L 141.554688 295.671875 C 141.554688 297.484375 142.488281 299.125 144.039062 300.039062 Z M 156.140625 292.621094 C 154.621094 291.800781 152.871094 291.800781 151.300781 292.628906 L 147.074219 294.9375 L 147.074219 269.207031 L 160.382812 269.207031 L 160.382812 294.933594 Z M 211.207031 85.007812 L 260.128906 134.035156 C 260.636719 134.542969 261.207031 134.945312 261.820312 135.25 L 261.820312 248.898438 L 142.464844 248.898438 L 142.464844 81.980469 L 209.515625 81.980469 C 209.773438 83.09375 210.339844 84.140625 211.207031 85.007812 Z M 214.953125 80.269531 C 215.085938 79.957031 215.316406 79.800781 215.660156 79.800781 L 264.566406 79.800781 C 264.984375 79.800781 265.335938 80.148438 265.335938 80.558594 L 265.335938 129.585938 C 265.335938 129.816406 265.257812 130.121094 264.867188 130.277344 C 264.542969 130.414062 264.269531 130.363281 264.03125 130.121094 L 215.109375 81.09375 C 214.875 80.855469 214.820312 80.589844 214.953125 80.269531 Z M 125.652344 81.980469 L 136.941406 81.980469 L 136.941406 248.902344 L 122.632812 248.902344 C 117.464844 248.902344 112.777344 251.003906 109.378906 254.402344 L 109.378906 98.28125 C 109.378906 89.292969 116.679688 81.980469 125.652344 81.980469 Z M 122.632812 281.003906 C 115.324219 281.003906 109.378906 275.042969 109.378906 267.71875 C 109.378906 260.394531 115.324219 254.433594 122.632812 254.433594 L 261.820312 254.433594 L 261.820312 281.003906 L 165.902344 281.003906 L 165.902344 269.207031 L 243.339844 269.207031 C 244.867188 269.207031 246.101562 267.96875 246.101562 266.441406 C 246.101562 264.910156 244.867188 263.671875 243.339844 263.671875 L 131.371094 263.671875 C 129.84375 263.671875 128.609375 264.910156 128.609375 266.441406 C 128.609375 267.96875 129.84375 269.207031 131.371094 269.207031 L 141.550781 269.207031 L 141.550781 281.003906 Z M 122.632812 281.003906 " fill-opacity="1" fill-rule="nonzero"/></g></svg>