<svg xmlns="http://www.w3.org/2000/svg" xmlns:xlink="http://www.w3.org/1999/xlink" width="500" zoomAndPan="magnify" viewBox="0 0 375 374.999991" height="500" preserveAspectRatio="xMidYMid meet" version="1.0"><defs><clipPath id="121bfb3c8d"><path d="M 175 64.085938 L 201 64.085938 L 201 89 L 175 89 Z M 175 64.085938 " clip-rule="nonzero"/></clipPath><clipPath id="fb721c64ba"><path d="M 105.148438 96 L 270.148438 96 L 270.148438 310.835938 L 105.148438 310.835938 Z M 105.148438 96 " clip-rule="nonzero"/></clipPath></defs><g clip-path="url(#121bfb3c8d)"><path d="M 195.890625 88.757812 L 179.40625 88.757812 C 177.128906 88.757812 175.285156 86.917969 175.285156 84.648438 L 175.285156 76.421875 C 175.285156 69.617188 180.832031 64.085938 187.648438 64.085938 C 194.464844 64.085938 200.011719 69.617188 200.011719 76.421875 L 200.011719 84.648438 C 200.011719 86.917969 198.167969 88.757812 195.890625 88.757812 Z M 183.527344 80.535156 L 191.769531 80.535156 L 191.769531 76.421875 C 191.769531 74.15625 189.921875 72.308594 187.648438 72.308594 C 185.375 72.308594 183.527344 74.15625 183.527344 76.421875 Z M 183.527344 80.535156 " fill-opacity="1" fill-rule="nonzero"/></g><path d="M 249.46875 294.382812 L 125.828125 294.382812 C 123.554688 294.382812 121.707031 292.542969 121.707031 290.273438 L 121.707031 117.546875 C 121.707031 115.277344 123.554688 113.433594 125.828125 113.433594 L 249.46875 113.433594 C 251.742188 113.433594 253.589844 115.277344 253.589844 117.546875 L 253.589844 290.273438 C 253.589844 292.542969 251.742188 294.382812 249.46875 294.382812 Z M 129.949219 286.160156 L 245.347656 286.160156 L 245.347656 121.660156 L 129.949219 121.660156 Z M 129.949219 286.160156 " fill-opacity="1" fill-rule="nonzero"/><path  d="M 216.9375 121.660156 L 158.359375 121.660156 C 151.785156 121.660156 146.433594 116.324219 146.433594 109.761719 L 146.433594 92.433594 C 146.433594 85.871094 151.785156 80.535156 158.359375 80.535156 L 216.9375 80.535156 C 223.511719 80.535156 228.859375 85.871094 228.859375 92.433594 L 228.859375 109.761719 C 228.859375 116.324219 223.511719 121.660156 216.9375 121.660156 Z M 158.359375 88.757812 C 156.328125 88.757812 154.679688 90.40625 154.679688 92.433594 L 154.679688 109.761719 C 154.679688 111.789062 156.328125 113.433594 158.359375 113.433594 L 216.9375 113.433594 C 218.96875 113.433594 220.617188 111.789062 220.617188 109.761719 L 220.617188 92.433594 C 220.617188 90.40625 218.96875 88.757812 216.9375 88.757812 Z M 158.359375 88.757812 " fill-opacity="1" fill-rule="nonzero"/><g clip-path="url(#fb721c64ba)"><path d="M 258.152344 310.835938 L 117.144531 310.835938 C 110.570312 310.835938 105.222656 305.496094 105.222656 298.9375 L 105.222656 108.878906 C 105.222656 102.320312 110.570312 96.984375 117.144531 96.984375 L 150.558594 96.984375 C 152.832031 96.984375 154.679688 98.824219 154.679688 101.097656 L 154.679688 109.761719 C 154.679688 111.789062 156.328125 113.433594 158.359375 113.433594 L 216.9375 113.433594 C 218.96875 113.433594 220.617188 111.789062 220.617188 109.761719 L 220.617188 101.097656 C 220.617188 98.824219 222.464844 96.984375 224.738281 96.984375 L 258.152344 96.984375 C 264.726562 96.984375 270.074219 102.320312 270.074219 108.878906 L 270.074219 298.9375 C 270.074219 305.496094 264.726562 310.835938 258.152344 310.835938 Z M 117.144531 105.210938 C 115.117188 105.210938 113.464844 106.855469 113.464844 108.878906 L 113.464844 298.9375 C 113.464844 300.964844 115.117188 302.609375 117.144531 302.609375 L 258.152344 302.609375 C 260.179688 302.609375 261.832031 300.964844 261.832031 298.9375 L 261.832031 108.878906 C 261.832031 106.855469 260.179688 105.210938 258.152344 105.210938 L 228.859375 105.210938 L 228.859375 109.761719 C 228.859375 116.324219 223.511719 121.660156 216.9375 121.660156 L 158.359375 121.660156 C 151.785156 121.660156 146.433594 116.324219 146.433594 109.761719 L 146.433594 105.210938 Z M 117.144531 105.210938 " fill-opacity="1" fill-rule="nonzero"/></g><path d="M 175.285156 175.121094 L 142.3125 175.121094 C 140.039062 175.121094 138.191406 173.28125 138.191406 171.007812 L 138.191406 138.109375 C 138.191406 135.839844 140.039062 133.996094 142.3125 133.996094 L 175.285156 133.996094 C 177.558594 133.996094 179.40625 135.839844 179.40625 138.109375 L 179.40625 171.007812 C 179.40625 173.28125 177.558594 175.121094 175.285156 175.121094 Z M 146.433594 166.898438 L 171.164062 166.898438 L 171.164062 142.222656 L 146.433594 142.222656 Z M 146.433594 166.898438 " fill-opacity="1" fill-rule="nonzero"/><path d="M 175.285156 224.472656 L 142.3125 224.472656 C 140.039062 224.472656 138.191406 222.628906 138.191406 220.359375 L 138.191406 187.460938 C 138.191406 185.1875 140.039062 183.347656 142.3125 183.347656 L 175.285156 183.347656 C 177.558594 183.347656 179.40625 185.1875 179.40625 187.460938 L 179.40625 220.359375 C 179.40625 222.628906 177.558594 224.472656 175.285156 224.472656 Z M 146.433594 216.246094 L 171.164062 216.246094 L 171.164062 191.570312 L 146.433594 191.570312 Z M 146.433594 216.246094 " fill-opacity="1" fill-rule="nonzero"/><path d="M 175.285156 273.820312 L 142.3125 273.820312 C 140.039062 273.820312 138.191406 271.980469 138.191406 269.710938 L 138.191406 236.808594 C 138.191406 234.539062 140.039062 232.695312 142.3125 232.695312 L 175.285156 232.695312 C 177.558594 232.695312 179.40625 234.539062 179.40625 236.808594 L 179.40625 269.710938 C 179.40625 271.980469 177.558594 273.820312 175.285156 273.820312 Z M 146.433594 265.597656 L 171.164062 265.597656 L 171.164062 240.921875 L 146.433594 240.921875 Z M 146.433594 265.597656 " fill-opacity="1" fill-rule="nonzero"/><path d="M 162.921875 158.671875 L 154.679688 158.671875 C 152.402344 158.671875 150.558594 156.832031 150.558594 154.558594 C 150.558594 152.289062 152.402344 150.445312 154.679688 150.445312 L 162.921875 150.445312 C 165.195312 150.445312 167.042969 152.289062 167.042969 154.558594 C 167.042969 156.832031 165.195312 158.671875 162.921875 158.671875 Z M 162.921875 158.671875 " fill-opacity="1" fill-rule="nonzero"/><path d="M 162.921875 208.023438 L 154.679688 208.023438 C 152.402344 208.023438 150.558594 206.179688 150.558594 203.910156 C 150.558594 201.636719 152.402344 199.796875 154.679688 199.796875 L 162.921875 199.796875 C 165.195312 199.796875 167.042969 201.636719 167.042969 203.910156 C 167.042969 206.179688 165.195312 208.023438 162.921875 208.023438 Z M 162.921875 208.023438 " fill-opacity="1" fill-rule="nonzero"/><path d="M 162.921875 257.371094 L 154.679688 257.371094 C 152.402344 257.371094 150.558594 255.53125 150.558594 253.257812 C 150.558594 250.988281 152.402344 249.148438 154.679688 249.148438 L 162.921875 249.148438 C 165.195312 249.148438 167.042969 250.988281 167.042969 253.257812 C 167.042969 255.53125 165.195312 257.371094 162.921875 257.371094 Z M 162.921875 257.371094 " fill-opacity="1" fill-rule="nonzero"/><path d="M 232.980469 142.222656 L 191.769531 142.222656 C 189.492188 142.222656 187.648438 140.378906 187.648438 138.109375 C 187.648438 135.839844 189.492188 133.996094 191.769531 133.996094 L 232.980469 133.996094 C 235.257812 133.996094 237.105469 135.839844 237.105469 138.109375 C 237.105469 140.378906 235.257812 142.222656 232.980469 142.222656 Z M 232.980469 142.222656 " fill-opacity="1" fill-rule="nonzero"/><path d="M 232.980469 158.671875 L 191.769531 158.671875 C 189.492188 158.671875 187.648438 156.832031 187.648438 154.558594 C 187.648438 152.289062 189.492188 150.445312 191.769531 150.445312 L 232.980469 150.445312 C 235.257812 150.445312 237.105469 152.289062 237.105469 154.558594 C 237.105469 156.832031 235.257812 158.671875 232.980469 158.671875 Z M 232.980469 158.671875 " fill-opacity="1" fill-rule="nonzero"/><path d="M 232.980469 191.570312 L 191.769531 191.570312 C 189.492188 191.570312 187.648438 189.730469 187.648438 187.460938 C 187.648438 185.1875 189.492188 183.347656 191.769531 183.347656 L 232.980469 183.347656 C 235.257812 183.347656 237.105469 185.1875 237.105469 187.460938 C 237.105469 189.730469 235.257812 191.570312 232.980469 191.570312 Z M 232.980469 191.570312 " fill-opacity="1" fill-rule="nonzero"/><path d="M 232.980469 208.023438 L 191.769531 208.023438 C 189.492188 208.023438 187.648438 206.179688 187.648438 203.910156 C 187.648438 201.636719 189.492188 199.796875 191.769531 199.796875 L 232.980469 199.796875 C 235.257812 199.796875 237.105469 201.636719 237.105469 203.910156 C 237.105469 206.179688 235.257812 208.023438 232.980469 208.023438 Z M 232.980469 208.023438 " fill-opacity="1" fill-rule="nonzero"/><path d="M 232.980469 240.921875 L 191.769531 240.921875 C 189.492188 240.921875 187.648438 239.082031 187.648438 236.808594 C 187.648438 234.539062 189.492188 232.695312 191.769531 232.695312 L 232.980469 232.695312 C 235.257812 232.695312 237.105469 234.539062 237.105469 236.808594 C 237.105469 239.082031 235.257812 240.921875 232.980469 240.921875 Z M 232.980469 240.921875 " fill-opacity="1" fill-rule="nonzero"/><path d="M 232.980469 257.371094 L 191.769531 257.371094 C 189.492188 257.371094 187.648438 255.53125 187.648438 253.257812 C 187.648438 250.988281 189.492188 249.148438 191.769531 249.148438 L 232.980469 249.148438 C 235.257812 249.148438 237.105469 250.988281 237.105469 253.257812 C 237.105469 255.53125 235.257812 257.371094 232.980469 257.371094 Z M 232.980469 257.371094 " fill-opacity="1" fill-rule="nonzero"/></svg>