<svg xmlns="http://www.w3.org/2000/svg" xmlns:xlink="http://www.w3.org/1999/xlink" width="500" zoomAndPan="magnify" viewBox="0 0 375 374.999991" height="500" preserveAspectRatio="xMidYMid meet" version="1.0"><defs><clipPath id="de9b91953f"><path d="M 86.667969 86.667969 L 288.417969 86.667969 L 288.417969 288.417969 L 86.667969 288.417969 Z M 86.667969 86.667969 " clip-rule="nonzero"/></clipPath></defs><g clip-path="url(#de9b91953f)"><path d="M 187.519531 86.644531 C 131.863281 86.644531 86.644531 131.863281 86.644531 187.519531 C 86.644531 243.171875 131.863281 288.394531 187.519531 288.394531 C 243.171875 288.394531 288.394531 243.171875 288.394531 187.519531 C 288.394531 131.863281 243.171875 86.644531 187.519531 86.644531 Z M 187.519531 96.25 C 237.980469 96.25 278.785156 137.054688 278.785156 187.519531 C 278.785156 237.980469 237.980469 278.785156 187.519531 278.785156 C 137.054688 278.785156 96.25 237.980469 96.25 187.519531 C 96.25 137.054688 137.054688 96.25 187.519531 96.25 Z M 134.679688 168.304688 C 128.675781 168.304688 123.558594 170.730469 120.277344 174.421875 C 116.996094 178.113281 115.464844 182.847656 115.464844 187.519531 C 115.464844 192.1875 116.996094 196.921875 120.277344 200.617188 C 123.558594 204.308594 128.675781 206.734375 134.679688 206.734375 C 140.683594 206.734375 145.800781 204.308594 149.082031 200.617188 C 152.363281 196.921875 153.894531 192.1875 153.894531 187.519531 C 153.894531 182.847656 152.363281 178.113281 149.082031 174.421875 C 145.800781 170.730469 140.683594 168.304688 134.679688 168.304688 Z M 187.519531 168.304688 C 181.515625 168.304688 176.398438 170.730469 173.117188 174.421875 C 169.835938 178.113281 168.304688 182.847656 168.304688 187.519531 C 168.304688 192.1875 169.835938 196.921875 173.117188 200.617188 C 176.398438 204.308594 181.515625 206.734375 187.519531 206.734375 C 193.523438 206.734375 198.636719 204.308594 201.921875 200.617188 C 205.203125 196.921875 206.734375 192.1875 206.734375 187.519531 C 206.734375 182.847656 205.203125 178.113281 201.921875 174.421875 C 198.636719 170.730469 193.523438 168.304688 187.519531 168.304688 Z M 240.359375 168.304688 C 234.355469 168.304688 229.238281 170.730469 225.957031 174.421875 C 222.675781 178.113281 221.144531 182.847656 221.144531 187.519531 C 221.144531 192.1875 222.675781 196.921875 225.957031 200.617188 C 229.238281 204.308594 234.355469 206.734375 240.359375 206.734375 C 246.363281 206.734375 251.476562 204.308594 254.757812 200.617188 C 258.042969 196.921875 259.574219 192.1875 259.574219 187.519531 C 259.574219 182.847656 258.042969 178.113281 254.757812 174.421875 C 251.476562 170.730469 246.363281 168.304688 240.359375 168.304688 Z M 134.679688 177.910156 C 138.28125 177.910156 140.371094 179.089844 141.894531 180.800781 C 143.414062 182.511719 144.285156 184.984375 144.285156 187.519531 C 144.285156 190.054688 143.414062 192.523438 141.894531 194.238281 C 140.371094 195.949219 138.28125 197.125 134.679688 197.125 C 131.078125 197.125 128.988281 195.949219 127.464844 194.238281 C 125.945312 192.523438 125.074219 190.054688 125.074219 187.519531 C 125.074219 184.984375 125.945312 182.511719 127.464844 180.800781 C 128.988281 179.089844 131.078125 177.910156 134.679688 177.910156 Z M 187.519531 177.910156 C 191.121094 177.910156 193.210938 179.089844 194.734375 180.800781 C 196.253906 182.511719 197.125 184.984375 197.125 187.519531 C 197.125 190.054688 196.253906 192.523438 194.734375 194.238281 C 193.210938 195.949219 191.121094 197.125 187.519531 197.125 C 183.917969 197.125 181.824219 195.949219 180.304688 194.238281 C 178.78125 192.523438 177.910156 190.054688 177.910156 187.519531 C 177.910156 184.984375 178.78125 182.511719 180.304688 180.800781 C 181.824219 179.089844 183.917969 177.910156 187.519531 177.910156 Z M 240.359375 177.910156 C 243.960938 177.910156 246.050781 179.089844 247.574219 180.800781 C 249.09375 182.511719 249.964844 184.984375 249.964844 187.519531 C 249.964844 190.054688 249.09375 192.523438 247.574219 194.238281 C 246.050781 195.949219 243.960938 197.125 240.359375 197.125 C 236.753906 197.125 234.664062 195.949219 233.144531 194.238281 C 231.621094 192.523438 230.75 190.054688 230.75 187.519531 C 230.75 184.984375 231.621094 182.511719 233.144531 180.800781 C 234.664062 179.089844 236.753906 177.910156 240.359375 177.910156 Z M 240.359375 177.910156 " fill-opacity="1" fill-rule="nonzero"/></g></svg>