<svg xmlns="http://www.w3.org/2000/svg" xmlns:xlink="http://www.w3.org/1999/xlink" width="500" zoomAndPan="magnify" viewBox="0 0 375 374.999991" height="500" preserveAspectRatio="xMidYMid meet" version="1.0"><defs><clipPath id="19514fe2b0"><path d="M 90.550781 82.40625 L 284.800781 82.40625 L 284.800781 292.40625 L 90.550781 292.40625 Z M 90.550781 82.40625 " clip-rule="nonzero"/></clipPath></defs><g clip-path="url(#19514fe2b0)"><path d="M 212.875 193.425781 C 230.464844 182.695312 241.75 161.488281 241.75 141.855469 C 241.75 113.84375 218.914062 82.425781 187.675781 82.425781 C 156.699219 82.425781 133.863281 113.84375 133.863281 141.855469 C 133.863281 161.488281 145.152344 182.695312 162.738281 193.425781 C 121 204.421875 90.550781 242.382812 90.550781 287.148438 C 90.550781 290.027344 93.175781 292.382812 96.0625 292.382812 L 279.550781 292.382812 C 282.4375 292.382812 284.800781 290.027344 284.800781 287.148438 C 284.800781 242.382812 254.351562 204.421875 212.875 193.425781 Z M 144.625 141.855469 C 144.625 114.105469 167.464844 93.421875 187.675781 93.421875 C 207.886719 93.421875 230.988281 114.105469 230.988281 141.855469 C 230.988281 169.34375 207.886719 190.285156 187.675781 190.285156 C 167.464844 190.285156 144.625 169.34375 144.625 141.855469 Z M 101.574219 281.652344 C 104.464844 236.621094 142.261719 201.019531 187.675781 201.019531 C 233.351562 201.019531 271.152344 236.621094 273.777344 281.652344 Z M 101.574219 281.652344 " fill-opacity="1" fill-rule="evenodd"/></g></svg>