<svg xmlns="http://www.w3.org/2000/svg" xmlns:xlink="http://www.w3.org/1999/xlink" width="500" zoomAndPan="magnify" viewBox="0 0 375 374.999991" height="500" preserveAspectRatio="xMidYMid meet" version="1.0"><defs><clipPath id="4a5c750673"><path d="M 71 75.132812 L 304.160156 75.132812 L 304.160156 300.132812 L 71 300.132812 Z M 71 75.132812 " clip-rule="nonzero"/></clipPath></defs><g clip-path="url(#4a5c750673)"><path d="M 249.464844 229.609375 L 249.464844 282.492188 C 249.464844 292.199219 241.535156 300.128906 231.84375 300.128906 L 143.25 300.128906 C 133.535156 300.128906 125.625 292.195312 125.625 282.492188 L 125.625 192.253906 L 116.421875 192.253906 L 116.421875 204.277344 C 116.421875 207.75 112.242188 209.582031 109.6875 207.1875 L 72.253906 171.863281 C 70.582031 170.285156 70.582031 167.632812 72.253906 166.046875 L 109.488281 130.917969 C 112.242188 128.136719 116.421875 130.207031 116.421875 133.644531 L 116.421875 145.664062 L 125.625 145.664062 L 125.625 92.78125 C 125.625 83.074219 133.539062 75.144531 143.25 75.144531 L 231.84375 75.144531 C 241.542969 75.144531 249.464844 83.082031 249.464844 92.78125 L 249.464844 183.003906 L 258.652344 183.003906 L 258.652344 170.984375 L 258.667969 170.984375 C 258.667969 167.519531 262.851562 165.675781 265.390625 168.074219 L 302.824219 203.394531 C 304.496094 204.972656 304.507812 207.640625 302.824219 209.214844 L 265.601562 244.339844 C 262.851562 247.125 258.652344 245.050781 258.652344 241.632812 L 258.652344 229.609375 Z M 146.496094 245.265625 C 144.285156 245.265625 142.5 243.480469 142.5 241.265625 C 142.5 239.054688 144.285156 237.265625 146.496094 237.265625 L 180.214844 237.265625 C 182.425781 237.265625 184.210938 239.054688 184.210938 241.265625 C 184.210938 243.480469 182.425781 245.265625 180.214844 245.265625 Z M 146.496094 261.273438 C 144.285156 261.273438 142.5 259.46875 142.5 257.273438 C 142.5 255.058594 144.285156 253.257812 146.496094 253.257812 L 180.214844 253.257812 C 182.425781 253.257812 184.210938 255.058594 184.210938 257.273438 C 184.210938 259.46875 182.425781 261.273438 180.214844 261.273438 Z M 169.976562 197.734375 C 169.976562 195.519531 171.777344 193.734375 173.988281 193.734375 C 176.199219 193.734375 177.984375 195.519531 177.984375 197.734375 C 177.984375 203.023438 188.660156 206.21875 194.746094 201.679688 C 196.207031 200.601562 197.101562 199.195312 197.101562 197.734375 C 197.101562 193.390625 191.984375 192.480469 186.851562 191.574219 C 178.414062 190.074219 169.980469 188.582031 169.980469 177.527344 C 169.980469 170.203125 176.488281 165.09375 183.550781 163.789062 L 183.550781 160.695312 C 183.550781 158.480469 185.335938 156.695312 187.546875 156.695312 C 189.757812 156.695312 191.546875 158.480469 191.546875 160.695312 L 191.546875 163.789062 C 198.609375 165.09375 205.101562 170.203125 205.101562 177.527344 C 205.101562 179.738281 203.316406 181.527344 201.105469 181.527344 C 198.894531 181.527344 197.105469 179.738281 197.105469 177.527344 C 197.105469 172.25 186.433594 169.054688 180.335938 173.582031 C 178.890625 174.671875 177.992188 176.0625 177.992188 177.527344 C 177.992188 181.867188 183.109375 182.777344 188.234375 183.683594 C 196.671875 185.1875 205.105469 186.679688 205.105469 197.734375 C 205.105469 205.058594 198.613281 210.164062 191.550781 211.488281 L 191.550781 214.566406 C 191.550781 216.777344 189.765625 218.582031 187.554688 218.582031 C 185.34375 218.582031 183.554688 216.777344 183.554688 214.566406 L 183.554688 211.488281 C 176.488281 210.167969 169.976562 205.058594 169.976562 197.734375 Z M 187.546875 142.683594 C 210.6875 142.683594 229.902344 160.238281 232.226562 183.003906 L 241.472656 183.003906 L 241.472656 92.78125 C 241.472656 87.492188 237.136719 83.144531 231.84375 83.144531 L 225.800781 83.144531 L 225.800781 92.042969 C 225.800781 96.910156 221.828125 100.882812 216.964844 100.882812 L 158.109375 100.882812 C 153.25 100.882812 149.277344 96.910156 149.277344 92.042969 L 149.277344 83.148438 L 143.25 83.148438 C 137.960938 83.148438 133.621094 87.492188 133.621094 92.789062 L 133.621094 145.667969 L 171.421875 145.667969 C 176.429688 143.734375 181.859375 142.683594 187.546875 142.683594 Z M 232.335938 191.023438 C 231.433594 203.144531 225.699219 214 216.964844 221.59375 L 262.667969 221.59375 C 264.863281 221.59375 266.664062 223.398438 266.664062 225.59375 L 266.664062 232.363281 L 294.269531 206.308594 L 266.664062 180.253906 L 266.664062 187.023438 C 266.664062 189.222656 264.863281 191.023438 262.667969 191.023438 Z M 203.671875 229.609375 C 176.117188 240.210938 145.859375 221.648438 142.867188 192.253906 L 133.625 192.253906 L 133.625 267.429688 L 241.472656 267.429688 L 241.472656 229.609375 Z M 142.753906 184.253906 C 143.660156 172.117188 149.375 161.265625 158.109375 153.667969 C 142.882812 153.667969 127.652344 153.667969 112.425781 153.667969 C 110.214844 153.667969 108.429688 151.882812 108.429688 149.667969 L 108.429688 142.914062 L 80.820312 168.960938 L 108.429688 195.015625 L 108.429688 188.261719 C 108.429688 186.046875 110.214844 184.261719 112.425781 184.261719 L 142.753906 184.261719 Z M 213.648438 161.503906 C 199.226562 147.085938 175.863281 147.085938 161.441406 161.503906 C 147.035156 175.9375 147.035156 199.324219 161.441406 213.757812 C 175.863281 228.179688 199.226562 228.179688 213.648438 213.757812 C 228.054688 199.324219 228.054688 175.933594 213.648438 161.503906 Z M 133.621094 275.4375 L 133.621094 282.492188 C 133.621094 287.769531 137.957031 292.113281 143.25 292.113281 L 231.84375 292.113281 C 237.128906 292.113281 241.472656 287.773438 241.472656 282.492188 L 241.472656 275.4375 Z M 157.285156 83.148438 L 157.285156 92.046875 C 157.285156 92.488281 157.671875 92.867188 158.105469 92.867188 L 216.964844 92.867188 C 217.421875 92.867188 217.800781 92.484375 217.800781 92.046875 L 217.800781 83.148438 Z M 157.285156 83.148438 " fill-opacity="1" fill-rule="nonzero"/></g></svg>