<svg xmlns="http://www.w3.org/2000/svg" xmlns:xlink="http://www.w3.org/1999/xlink" width="500" zoomAndPan="magnify" viewBox="0 0 375 374.999991" height="500" preserveAspectRatio="xMidYMid meet" version="1.0"><defs><clipPath id="541650ebfa"><path d="M 81.140625 81.140625 L 294.140625 81.140625 L 294.140625 294.140625 L 81.140625 294.140625 Z M 81.140625 81.140625 " clip-rule="nonzero"/></clipPath></defs><g clip-path="url(#541650ebfa)"><path d="M 254.496094 195.898438 L 174.507812 195.898438 C 172.640625 195.898438 171.125 194.382812 171.125 192.515625 C 171.125 190.648438 172.640625 189.132812 174.507812 189.132812 L 254.496094 189.132812 C 256.363281 189.132812 257.878906 190.648438 257.878906 192.515625 C 257.878906 194.382812 256.363281 195.898438 254.496094 195.898438 Z M 174.507812 168.9375 L 254.496094 168.9375 C 256.363281 168.9375 257.878906 167.421875 257.878906 165.554688 C 257.878906 163.6875 256.363281 162.171875 254.496094 162.171875 L 174.507812 162.171875 C 172.640625 162.171875 171.125 163.6875 171.125 165.554688 C 171.125 167.421875 172.640625 168.9375 174.507812 168.9375 Z M 187.390625 142.027344 L 254.496094 142.027344 C 256.363281 142.027344 257.878906 140.511719 257.878906 138.644531 C 257.878906 136.777344 256.363281 135.261719 254.496094 135.261719 L 187.390625 135.261719 C 185.523438 135.261719 184.007812 136.777344 184.007812 138.644531 C 184.007812 140.511719 185.523438 142.027344 187.390625 142.027344 Z M 207.6875 114.964844 L 213.953125 114.964844 L 213.953125 121.183594 C 213.953125 123.050781 215.46875 124.566406 217.335938 124.566406 C 219.207031 124.566406 220.71875 123.050781 220.71875 121.183594 L 220.71875 114.964844 L 226.9375 114.964844 C 228.804688 114.964844 230.320312 113.453125 230.320312 111.582031 C 230.320312 109.714844 228.804688 108.199219 226.9375 108.199219 L 220.71875 108.199219 L 220.71875 101.984375 C 220.71875 100.117188 219.207031 98.601562 217.335938 98.601562 C 215.46875 98.601562 213.953125 100.113281 213.953125 101.984375 L 213.953125 108.199219 L 207.6875 108.199219 C 205.820312 108.199219 204.304688 109.714844 204.304688 111.582031 C 204.304688 113.453125 205.820312 114.964844 207.6875 114.964844 Z M 108.5 181.324219 C 108.5 171.859375 116.199219 164.160156 125.660156 164.160156 C 135.097656 164.160156 142.773438 171.859375 142.773438 181.324219 C 142.773438 190.757812 135.097656 198.433594 125.660156 198.433594 C 116.199219 198.433594 108.5 190.757812 108.5 181.324219 Z M 115.265625 181.324219 C 115.265625 187.027344 119.929688 191.667969 125.660156 191.667969 C 131.367188 191.667969 136.007812 187.027344 136.007812 181.324219 C 136.007812 175.589844 131.367188 170.925781 125.660156 170.925781 C 119.929688 170.925781 115.265625 175.589844 115.265625 181.324219 Z M 283.941406 233.6875 L 283.941406 249.71875 C 283.941406 251.585938 282.429688 253.101562 280.558594 253.101562 L 256.632812 253.101562 L 256.632812 290.757812 C 256.632812 292.625 255.121094 294.140625 253.25 294.140625 L 239.421875 294.140625 C 237.554688 294.140625 236.039062 292.625 236.039062 290.757812 L 236.039062 277.972656 L 101.734375 277.972656 L 101.734375 290.757812 C 101.734375 292.625 100.21875 294.140625 98.351562 294.140625 L 84.523438 294.140625 C 82.65625 294.140625 81.140625 292.625 81.140625 290.757812 L 81.140625 214.503906 C 81.140625 208.824219 85.761719 204.203125 91.4375 204.203125 C 94.164062 204.203125 96.636719 205.277344 98.480469 207.011719 C 99.917969 205.617188 101.699219 204.570312 103.75 204.058594 C 108.265625 202.84375 113.152344 204.566406 115.976562 208.375 L 117.277344 209.585938 C 117.339844 209.308594 117.386719 209.03125 117.46875 208.761719 C 118.492188 205.328125 120.878906 202.730469 124.191406 201.449219 C 132.492188 198.179688 142.078125 202.292969 150.679688 207.582031 L 150.679688 84.523438 C 150.679688 82.65625 152.195312 81.140625 154.0625 81.140625 L 280.558594 81.140625 C 282.425781 81.140625 283.941406 82.65625 283.941406 84.523438 L 283.941406 134.238281 C 285.980469 136.582031 287.226562 139.628906 287.226562 142.972656 L 287.226562 200.890625 C 291.582031 204.691406 294.140625 210.253906 294.140625 216.09375 C 294.140625 223.617188 290.027344 230.183594 283.941406 233.6875 Z M 124.792969 216.574219 L 141.605469 232.203125 L 154.882812 218.496094 C 145.917969 212.210938 134.4375 204.6875 126.652344 207.75 C 125.257812 208.289062 124.382812 209.25 123.953125 210.691406 C 123.320312 212.816406 123.890625 215.214844 124.792969 216.574219 Z M 101.734375 214.769531 L 101.734375 257.328125 L 249.867188 257.328125 L 249.867188 231.316406 C 249.867188 228.296875 247.414062 225.84375 244.398438 225.84375 L 180.230469 225.84375 C 179.738281 225.84375 179.253906 225.738281 178.8125 225.53125 L 164.074219 218.726562 L 144.15625 239.289062 C 142.875 240.613281 140.773438 240.667969 139.425781 239.414062 L 111.121094 213.097656 C 110.941406 212.929688 110.78125 212.746094 110.640625 212.542969 C 109.460938 210.832031 107.417969 210.070312 105.449219 210.605469 C 103.433594 211.109375 102.015625 212.734375 101.734375 214.769531 Z M 249.867188 264.09375 L 98.351562 264.09375 C 96.484375 264.09375 94.96875 262.582031 94.96875 260.710938 L 94.96875 214.503906 C 94.96875 212.554688 93.386719 210.972656 91.4375 210.972656 C 89.492188 210.972656 87.90625 212.554688 87.90625 214.503906 L 87.90625 287.375 L 94.96875 287.375 L 94.96875 274.589844 C 94.96875 272.722656 96.484375 271.207031 98.351562 271.207031 L 239.421875 271.207031 C 241.289062 271.207031 242.804688 272.722656 242.804688 274.589844 L 242.804688 287.375 L 249.871094 287.375 L 249.871094 264.09375 Z M 277.175781 236.097656 C 276.105469 236.273438 275.015625 236.386719 273.894531 236.386719 C 262.703125 236.386719 253.597656 227.285156 253.597656 216.09375 C 253.597656 210.253906 256.15625 204.691406 260.511719 200.890625 L 260.511719 142.972656 C 260.511719 135.621094 266.515625 129.640625 273.894531 129.640625 C 275.027344 129.640625 276.125 129.796875 277.175781 130.066406 L 277.175781 87.90625 L 157.445312 87.90625 L 157.445312 212.035156 C 158.195312 212.558594 158.929688 213.070312 159.648438 213.574219 L 160.886719 212.296875 C 161.886719 211.261719 163.425781 210.980469 164.734375 211.582031 L 180.972656 219.078125 L 244.398438 219.078125 C 251.144531 219.078125 256.632812 224.566406 256.632812 231.316406 L 256.632812 246.335938 L 277.179688 246.335938 L 277.179688 236.097656 Z M 287.375 216.09375 C 287.375 211.8125 285.3125 207.761719 281.855469 205.25 C 280.980469 204.613281 280.460938 203.597656 280.460938 202.515625 L 280.460938 142.972656 C 280.460938 139.351562 277.515625 136.40625 273.894531 136.40625 C 270.246094 136.40625 267.28125 139.351562 267.28125 142.972656 L 267.28125 202.515625 C 267.28125 203.597656 266.761719 204.613281 265.882812 205.25 C 262.429688 207.761719 260.363281 211.8125 260.363281 216.09375 C 260.363281 223.550781 266.433594 229.621094 273.894531 229.621094 C 275.746094 229.621094 277.515625 229.246094 279.125 228.5625 C 279.179688 228.535156 279.234375 228.503906 279.292969 228.480469 C 284.042969 226.386719 287.375 221.625 287.375 216.09375 Z M 283.445312 216.09375 C 283.445312 221.386719 279.160156 225.695312 273.894531 225.695312 C 268.601562 225.695312 264.292969 221.386719 264.292969 216.09375 C 264.292969 212.011719 266.882812 208.53125 270.511719 207.167969 L 270.511719 159.984375 C 270.511719 158.117188 272.027344 156.601562 273.894531 156.601562 C 275.761719 156.601562 277.277344 158.113281 277.277344 159.984375 L 277.277344 207.171875 C 280.875 208.542969 283.445312 212.019531 283.445312 216.09375 Z M 276.679688 216.09375 C 276.679688 214.582031 275.402344 213.308594 273.894531 213.308594 C 272.332031 213.308594 271.058594 214.558594 271.058594 216.09375 C 271.058594 217.65625 272.332031 218.929688 273.894531 218.929688 C 275.429688 218.929688 276.679688 217.65625 276.679688 216.09375 Z M 276.679688 216.09375 " fill-opacity="1" fill-rule="nonzero"/></g></svg>