<svg xmlns="http://www.w3.org/2000/svg" xmlns:xlink="http://www.w3.org/1999/xlink" width="500" zoomAndPan="magnify" viewBox="0 0 375 374.999991" height="500" preserveAspectRatio="xMidYMid meet" version="1.0"><defs><clipPath id="9451e089cf"><path d="M 95.808594 71.316406 L 292.308594 71.316406 L 292.308594 296.316406 L 95.808594 296.316406 Z M 95.808594 71.316406 " clip-rule="nonzero"/></clipPath></defs><g clip-path="url(#9451e089cf)"><path  d="M 95.820312 122.867188 C 95.820312 121.929688 96.1875 121.019531 96.863281 120.34375 L 144.828125 72.425781 C 145.507812 71.75 146.417969 71.378906 147.355469 71.378906 L 254.066406 71.378906 C 256.039062 71.378906 257.636719 72.976562 257.636719 74.949219 L 257.636719 130.113281 L 260.164062 125.738281 C 263.613281 119.765625 271.257812 117.722656 277.238281 121.167969 L 286.046875 126.25 C 292.023438 129.699219 294.070312 137.335938 290.621094 143.308594 L 285.75 151.738281 C 286.457031 152.828125 286.542969 154.269531 285.847656 155.472656 L 278.484375 168.214844 C 277.789062 169.417969 276.5 170.0625 275.199219 169.992188 L 257.636719 200.382812 L 257.636719 292.683594 C 257.636719 294.652344 256.039062 296.25 254.066406 296.25 L 99.390625 296.25 C 97.417969 296.25 95.820312 294.652344 95.820312 292.683594 Z M 143.785156 83.5625 L 108.011719 119.300781 C 108.011719 119.300781 143.785156 119.300781 143.785156 119.300781 Z M 250.496094 138.5625 C 250.496094 130.808594 250.496094 78.515625 250.496094 78.515625 C 250.496094 78.515625 165.433594 78.515625 150.925781 78.515625 L 150.925781 115.726562 C 155.773438 112.5625 161.242188 110.265625 167.101562 109.050781 L 167.101562 105.988281 C 167.101562 100.683594 171.414062 96.375 176.726562 96.375 C 182.039062 96.375 186.351562 100.683594 186.351562 105.988281 L 186.351562 109.050781 C 206.753906 113.273438 222.363281 130.648438 223.878906 151.894531 L 224.972656 151.894531 C 226.945312 151.894531 228.542969 153.492188 228.542969 155.460938 C 228.542969 157.429688 226.945312 159.027344 224.972656 159.027344 L 128.480469 159.027344 C 126.511719 159.027344 124.910156 157.429688 124.910156 155.460938 C 124.910156 153.492188 126.511719 151.894531 128.480469 151.894531 L 129.574219 151.894531 C 130.257812 142.34375 133.785156 133.578125 139.316406 126.433594 L 102.960938 126.433594 L 102.960938 289.113281 C 102.960938 289.113281 250.496094 289.113281 250.496094 289.113281 L 250.496094 212.742188 L 232.125 244.527344 C 231.972656 244.804688 231.785156 245.058594 231.566406 245.28125 C 231.371094 245.484375 231.152344 245.660156 230.917969 245.8125 L 205.328125 262.085938 C 205.085938 262.242188 204.824219 262.367188 204.558594 262.457031 C 204.097656 262.675781 203.582031 262.796875 203.035156 262.796875 L 124.128906 262.796875 C 122.15625 262.796875 120.558594 261.199219 120.558594 259.230469 C 120.558594 257.261719 122.15625 255.660156 124.128906 255.660156 L 199.984375 255.660156 L 201.15625 228.714844 C 201.164062 228.457031 201.195312 228.199219 201.261719 227.9375 C 201.300781 227.785156 201.347656 227.636719 201.402344 227.492188 L 124.128906 227.492188 C 122.15625 227.492188 120.558594 225.894531 120.558594 223.925781 C 120.558594 221.957031 122.15625 220.355469 124.128906 220.355469 L 205.484375 220.355469 L 221.761719 192.1875 L 124.128906 192.1875 C 122.15625 192.1875 120.558594 190.589844 120.558594 188.621094 C 120.558594 186.652344 122.15625 185.054688 124.128906 185.054688 L 225.886719 185.054688 L 244.742188 152.425781 C 244.03125 151.335938 243.945312 149.894531 244.640625 148.691406 Z M 279.757812 147.835938 L 284.433594 139.738281 C 285.914062 137.179688 285.035156 133.90625 282.476562 132.429688 L 273.664062 127.347656 C 271.105469 125.871094 267.828125 126.746094 266.347656 129.308594 L 261.667969 137.40625 Z M 268.820312 166.757812 L 250.734375 156.324219 L 231.050781 190.382812 C 231.046875 190.394531 231.039062 190.40625 231.03125 190.417969 L 210.648438 225.6875 C 210.644531 225.699219 210.636719 225.710938 210.628906 225.722656 L 210.1875 226.488281 L 214.414062 227.539062 C 215.34375 227.773438 216.136719 228.363281 216.625 229.183594 L 219.128906 233.40625 L 224.503906 224.105469 C 225.488281 222.398438 227.671875 221.816406 229.378906 222.800781 C 231.085938 223.785156 231.671875 225.96875 230.6875 227.671875 L 224.660156 238.105469 L 227.234375 238.71875 L 250.960938 197.664062 C 250.96875 197.652344 250.972656 197.640625 250.980469 197.628906 Z M 174.246094 108.136719 C 175.066406 108.09375 175.894531 108.070312 176.726562 108.070312 C 177.558594 108.070312 178.386719 108.09375 179.210938 108.136719 L 179.210938 105.988281 C 179.210938 104.621094 178.097656 103.507812 176.726562 103.507812 C 175.355469 103.507812 174.246094 104.621094 174.246094 105.988281 Z M 216.714844 151.894531 C 214.984375 131.355469 197.730469 115.207031 176.726562 115.207031 C 155.726562 115.207031 138.472656 131.355469 136.738281 151.894531 Z M 208.105469 233.320312 C 207.828125 239.65625 207.277344 252.390625 207.277344 252.390625 C 207.277344 252.390625 214.417969 247.847656 219.957031 244.324219 L 218.410156 243.957031 C 218.0625 243.882812 217.71875 243.753906 217.394531 243.566406 C 217.390625 243.5625 217.386719 243.5625 217.382812 243.558594 C 216.832031 243.242188 216.398438 242.800781 216.097656 242.289062 C 216.097656 242.289062 211.238281 234.105469 211.238281 234.105469 Z M 240.050781 211.46875 C 239.066406 213.171875 236.882812 213.757812 235.175781 212.773438 C 233.46875 211.789062 232.882812 209.605469 233.867188 207.898438 L 253.355469 174.179688 C 254.339844 172.472656 256.527344 171.886719 258.234375 172.875 C 259.941406 173.855469 260.527344 176.042969 259.539062 177.746094 Z M 277.878906 154.992188 L 256.402344 142.609375 L 252.613281 149.171875 L 274.085938 161.554688 Z M 179.726562 131.070312 C 177.753906 131.070312 176.15625 129.46875 176.15625 127.5 C 176.15625 125.53125 177.753906 123.933594 179.726562 123.933594 C 190.75 123.933594 199.96875 130.101562 203.125 138.320312 C 203.828125 140.160156 202.910156 142.222656 201.070312 142.929688 C 199.226562 143.632812 197.160156 142.714844 196.457031 140.875 C 194.226562 135.074219 187.507812 131.070312 179.726562 131.070312 Z M 179.726562 131.070312 " fill-opacity="1" fill-rule="evenodd"/></g></svg>