<svg xmlns="http://www.w3.org/2000/svg" xmlns:xlink="http://www.w3.org/1999/xlink" width="500" zoomAndPan="magnify" viewBox="0 0 375 374.999991" height="500" preserveAspectRatio="xMidYMid meet" version="1.0"><defs><clipPath id="16c57a6752"><path d="M 63.222656 81.566406 L 297.972656 81.566406 L 297.972656 306.566406 L 63.222656 306.566406 Z M 63.222656 81.566406 " clip-rule="nonzero"/></clipPath></defs><g clip-path="url(#16c57a6752)"><path d="M 203.203125 237.726562 L 156.875 237.726562 L 156.875 221.726562 C 162.0625 222.648438 167.003906 225.515625 171.339844 230.160156 C 172.011719 230.878906 172.949219 231.300781 173.9375 231.324219 C 174.921875 231.351562 175.878906 230.976562 176.585938 230.285156 C 181.65625 225.359375 187.507812 222.753906 193.511719 222.753906 C 196.164062 222.753906 198.824219 223.277344 201.417969 224.304688 C 202.6875 224.804688 204.132812 224.566406 205.167969 223.675781 C 206.203125 222.785156 206.660156 221.394531 206.355469 220.0625 C 203.636719 208.238281 196.90625 197.503906 187.40625 189.84375 C 177.886719 182.171875 165.933594 177.910156 153.695312 177.796875 C 153.527344 177.789062 153.363281 177.785156 153.199219 177.785156 C 153.039062 177.785156 152.871094 177.789062 152.703125 177.796875 C 140.546875 177.910156 128.679688 182.121094 119.191406 189.695312 L 119.191406 135.289062 L 268.703125 135.289062 L 268.703125 204.980469 C 268.703125 207.007812 270.347656 208.652344 272.375 208.652344 C 274.40625 208.652344 276.050781 207.007812 276.050781 204.980469 L 276.050781 107.617188 C 276.050781 101.472656 271.054688 96.476562 264.910156 96.476562 L 251.140625 96.476562 L 251.140625 92.890625 C 251.140625 86.691406 246.101562 81.648438 239.910156 81.648438 C 233.707031 81.648438 228.664062 86.691406 228.664062 92.890625 L 228.664062 96.476562 L 205.1875 96.476562 L 205.1875 92.890625 C 205.1875 86.691406 200.148438 81.648438 193.953125 81.648438 C 187.753906 81.648438 182.707031 86.691406 182.707031 92.890625 L 182.707031 96.476562 L 159.230469 96.476562 L 159.230469 92.890625 C 159.230469 86.691406 154.191406 81.648438 147.996094 81.648438 C 141.796875 81.648438 136.753906 86.691406 136.753906 92.890625 L 136.753906 96.476562 L 122.984375 96.476562 C 116.839844 96.476562 111.84375 101.472656 111.84375 107.617188 L 111.84375 196.800781 C 106.070312 203.527344 101.957031 211.597656 99.992188 220.257812 C 99.691406 221.589844 100.152344 222.976562 101.191406 223.863281 C 102.226562 224.75 103.671875 224.988281 104.9375 224.484375 C 107.195312 223.582031 109.515625 223.066406 111.84375 222.949219 L 111.84375 233.933594 C 111.84375 240.078125 116.839844 245.074219 122.984375 245.074219 L 149.527344 245.074219 L 149.527344 261.011719 L 117.585938 261.011719 L 89.667969 212.652344 C 85.761719 205.882812 77.074219 203.546875 70.296875 207.457031 C 63.539062 211.363281 61.214844 220.050781 65.117188 226.824219 L 96.703125 281.546875 C 99.574219 286.507812 104.511719 289.351562 110.25 289.351562 L 111.074219 289.351562 L 111.074219 303.054688 C 111.074219 305.085938 112.71875 306.730469 114.75 306.730469 L 134.859375 306.730469 C 136.890625 306.730469 138.535156 305.085938 138.535156 303.054688 L 138.535156 289.351562 L 149.96875 289.351562 L 149.96875 303.054688 C 149.96875 305.085938 151.613281 306.730469 153.640625 306.730469 L 173.75 306.730469 C 175.78125 306.730469 177.425781 305.085938 177.425781 303.054688 L 177.425781 288.777344 C 183.304688 287.046875 187.609375 281.609375 187.609375 275.179688 C 187.609375 267.367188 181.246094 261.007812 173.425781 261.007812 L 156.875 261.007812 L 156.875 245.074219 L 203.199219 245.074219 C 205.230469 245.074219 206.875 243.429688 206.875 241.402344 C 206.875 239.371094 205.230469 237.726562 203.203125 237.726562 Z M 131.183594 299.382812 L 118.425781 299.382812 L 118.425781 289.351562 L 131.183594 289.351562 Z M 170.078125 299.382812 L 157.316406 299.382812 L 157.316406 289.351562 L 170.078125 289.351562 Z M 180.261719 275.179688 C 180.261719 278.941406 177.195312 282.003906 173.429688 282.003906 L 110.25 282.003906 C 107.160156 282.003906 104.605469 280.535156 103.066406 277.871094 L 71.484375 223.148438 C 69.601562 219.886719 70.71875 215.699219 73.972656 213.820312 C 75.046875 213.203125 76.21875 212.910156 77.375 212.910156 C 79.738281 212.910156 82.039062 214.132812 83.300781 216.324219 L 112.285156 266.519531 C 112.941406 267.660156 114.152344 268.359375 115.464844 268.359375 L 173.425781 268.359375 C 177.195312 268.359375 180.261719 271.417969 180.261719 275.179688 Z M 153.199219 185.136719 C 159.515625 185.136719 167.328125 198.054688 169.734375 219.191406 C 164.621094 215.8125 159.023438 214.050781 153.199219 214.050781 C 147.375 214.050781 141.769531 215.8125 136.65625 219.195312 C 139.0625 198.039062 146.847656 185.136719 153.199219 185.136719 Z M 197.382812 215.675781 C 196.097656 215.496094 194.804688 215.40625 193.511719 215.40625 C 187.820312 215.40625 182.300781 217.113281 177.25 220.382812 C 176.175781 209.265625 173.59375 199.125 169.910156 191.648438 C 169.109375 190.023438 168.289062 188.585938 167.460938 187.304688 C 181.15625 191.589844 192.257812 201.941406 197.382812 215.675781 Z M 236.011719 92.890625 C 236.011719 90.746094 237.761719 88.996094 239.910156 88.996094 C 242.050781 88.996094 243.792969 90.746094 243.792969 92.890625 L 243.792969 107.410156 C 243.792969 109.558594 242.050781 111.304688 239.910156 111.304688 C 237.761719 111.304688 236.011719 109.558594 236.011719 107.410156 Z M 190.058594 92.890625 C 190.058594 90.746094 191.804688 88.996094 193.953125 88.996094 C 196.09375 88.996094 197.835938 90.746094 197.835938 92.890625 L 197.835938 107.410156 C 197.835938 109.558594 196.09375 111.304688 193.953125 111.304688 C 191.804688 111.304688 190.058594 109.558594 190.058594 107.410156 Z M 144.101562 92.890625 C 144.101562 90.746094 145.847656 88.996094 147.996094 88.996094 C 150.136719 88.996094 151.878906 90.746094 151.878906 92.890625 L 151.878906 107.410156 C 151.878906 109.558594 150.136719 111.304688 147.996094 111.304688 C 145.847656 111.304688 144.101562 109.558594 144.101562 107.410156 Z M 122.984375 103.824219 L 136.753906 103.824219 L 136.753906 107.410156 C 136.753906 113.609375 141.796875 118.65625 147.996094 118.65625 C 154.191406 118.65625 159.230469 113.609375 159.230469 107.410156 L 159.230469 103.824219 L 182.707031 103.824219 L 182.707031 107.410156 C 182.707031 113.609375 187.753906 118.65625 193.953125 118.65625 C 200.148438 118.65625 205.1875 113.609375 205.1875 107.410156 L 205.1875 103.824219 L 228.664062 103.824219 L 228.664062 107.410156 C 228.664062 113.609375 233.707031 118.65625 239.910156 118.65625 C 246.101562 118.65625 251.140625 113.609375 251.140625 107.410156 L 251.140625 103.824219 L 264.910156 103.824219 C 267 103.824219 268.699219 105.527344 268.699219 107.617188 L 268.699219 127.941406 L 119.191406 127.941406 L 119.191406 107.617188 C 119.191406 105.527344 120.894531 103.824219 122.984375 103.824219 Z M 117.765625 201.050781 C 118.105469 200.789062 118.398438 200.464844 118.628906 200.101562 C 124.128906 194.1875 131.101562 189.753906 138.933594 187.304688 C 138.070312 188.636719 137.21875 190.136719 136.390625 191.84375 C 132.738281 199.339844 130.1875 209.457031 129.128906 220.546875 C 125.015625 217.886719 120.597656 216.265625 116.03125 215.757812 C 115.957031 215.746094 115.882812 215.738281 115.808594 215.730469 C 114.835938 215.628906 113.859375 215.574219 112.878906 215.574219 C 111.5625 215.574219 110.25 215.664062 108.945312 215.851562 C 110.988281 210.3125 114.007812 205.324219 117.765625 201.050781 Z M 122.984375 237.726562 C 120.894531 237.726562 119.191406 236.023438 119.191406 233.933594 L 119.191406 223.90625 C 122.910156 225.066406 126.480469 227.25 129.734375 230.386719 C 130.417969 231.046875 131.335938 231.417969 132.285156 231.417969 C 132.320312 231.417969 132.351562 231.417969 132.386719 231.414062 C 133.371094 231.386719 134.308594 230.964844 134.976562 230.242188 C 139.332031 225.546875 144.304688 222.648438 149.527344 221.726562 L 149.527344 237.726562 Z M 292.234375 231.511719 C 280.003906 210.347656 252.835938 203.070312 231.671875 215.285156 C 221.417969 221.207031 214.082031 230.761719 211.019531 242.199219 C 207.953125 253.632812 209.527344 265.578125 215.445312 275.835938 C 221.367188 286.089844 230.925781 293.425781 242.363281 296.488281 C 246.183594 297.511719 250.058594 298.019531 253.910156 298.019531 C 261.589844 298.019531 269.167969 296.003906 275.996094 292.0625 C 297.167969 279.839844 304.453125 252.675781 292.234375 231.511719 Z M 272.320312 285.695312 C 263.769531 290.636719 253.808594 291.945312 244.265625 289.390625 C 234.722656 286.832031 226.75 280.714844 221.8125 272.160156 C 216.871094 263.605469 215.5625 253.640625 218.117188 244.101562 C 220.671875 234.5625 226.792969 226.589844 235.347656 221.652344 C 241.152344 218.296875 247.5 216.707031 253.769531 216.707031 C 266.5625 216.707031 279.023438 223.339844 285.871094 235.1875 C 296.0625 252.839844 289.984375 275.5 272.320312 285.695312 Z M 253.839844 224.378906 C 237.683594 224.378906 224.539062 237.523438 224.539062 253.679688 C 224.539062 269.828125 237.683594 282.964844 253.839844 282.964844 C 269.988281 282.964844 283.128906 269.828125 283.128906 253.679688 C 283.128906 237.523438 269.988281 224.378906 253.839844 224.378906 Z M 253.839844 275.617188 C 241.738281 275.617188 231.890625 265.777344 231.890625 253.679688 C 231.890625 241.574219 241.738281 231.730469 253.839844 231.730469 C 265.9375 231.730469 275.777344 241.574219 275.777344 253.679688 C 275.777344 265.777344 265.9375 275.617188 253.839844 275.617188 Z M 130.347656 142.171875 C 128.316406 142.171875 126.671875 143.816406 126.671875 145.847656 L 126.671875 164.410156 C 126.671875 166.4375 128.316406 168.082031 130.347656 168.082031 L 148.910156 168.082031 C 150.9375 168.082031 152.582031 166.4375 152.582031 164.410156 L 152.582031 145.847656 C 152.582031 143.816406 150.9375 142.171875 148.910156 142.171875 Z M 145.234375 160.734375 L 134.019531 160.734375 L 134.019531 149.519531 L 145.234375 149.519531 Z M 166.558594 142.171875 C 164.53125 142.171875 162.886719 143.816406 162.886719 145.847656 L 162.886719 164.410156 C 162.886719 166.4375 164.53125 168.082031 166.558594 168.082031 L 185.121094 168.082031 C 187.152344 168.082031 188.796875 166.4375 188.796875 164.410156 L 188.796875 145.847656 C 188.796875 143.816406 187.152344 142.171875 185.121094 142.171875 Z M 181.445312 160.734375 L 170.234375 160.734375 L 170.234375 149.519531 L 181.445312 149.519531 Z M 225.007812 145.847656 C 225.007812 143.816406 223.363281 142.171875 221.335938 142.171875 L 202.773438 142.171875 C 200.742188 142.171875 199.097656 143.816406 199.097656 145.847656 L 199.097656 164.410156 C 199.097656 166.4375 200.742188 168.082031 202.773438 168.082031 L 221.335938 168.082031 C 223.363281 168.082031 225.007812 166.4375 225.007812 164.410156 Z M 217.660156 160.734375 L 206.449219 160.734375 L 206.449219 149.519531 L 217.660156 149.519531 Z M 261.234375 145.847656 C 261.234375 143.816406 259.589844 142.171875 257.5625 142.171875 L 239 142.171875 C 236.96875 142.171875 235.324219 143.816406 235.324219 145.847656 L 235.324219 164.410156 C 235.324219 166.4375 236.96875 168.082031 239 168.082031 L 257.5625 168.082031 C 259.589844 168.082031 261.234375 166.4375 261.234375 164.410156 Z M 253.886719 160.734375 L 242.671875 160.734375 L 242.671875 149.519531 L 253.886719 149.519531 Z M 221.335938 175.105469 L 202.773438 175.105469 C 200.742188 175.105469 199.097656 176.753906 199.097656 178.78125 L 199.097656 197.34375 C 199.097656 199.371094 200.742188 201.019531 202.773438 201.019531 L 221.335938 201.019531 C 223.363281 201.019531 225.007812 199.371094 225.007812 197.34375 L 225.007812 178.78125 C 225.007812 176.753906 223.363281 175.105469 221.335938 175.105469 Z M 217.660156 193.667969 L 206.449219 193.667969 L 206.449219 182.457031 L 217.660156 182.457031 Z M 257.5625 175.105469 L 239 175.105469 C 236.96875 175.105469 235.324219 176.753906 235.324219 178.78125 L 235.324219 197.34375 C 235.324219 199.371094 236.96875 201.019531 239 201.019531 L 257.5625 201.019531 C 259.589844 201.019531 261.234375 199.371094 261.234375 197.34375 L 261.234375 178.78125 C 261.234375 176.753906 259.589844 175.105469 257.5625 175.105469 Z M 253.886719 193.667969 L 242.671875 193.667969 L 242.671875 182.457031 L 253.886719 182.457031 Z M 266.585938 263.71875 C 265.863281 264.640625 264.785156 265.121094 263.699219 265.121094 C 262.902344 265.121094 262.101562 264.863281 261.425781 264.332031 L 251.566406 256.566406 C 250.683594 255.871094 250.164062 254.804688 250.164062 253.679688 L 250.164062 239.332031 C 250.164062 237.304688 251.8125 235.660156 253.839844 235.660156 C 255.871094 235.660156 257.515625 237.304688 257.515625 239.332031 L 257.515625 251.898438 L 265.972656 258.558594 C 267.566406 259.8125 267.84375 262.125 266.585938 263.71875 Z M 266.585938 263.71875 " fill-opacity="1" fill-rule="nonzero"/></g></svg>