<svg xmlns="http://www.w3.org/2000/svg" xmlns:xlink="http://www.w3.org/1999/xlink" width="500" zoomAndPan="magnify" viewBox="0 0 375 374.999991" height="500" preserveAspectRatio="xMidYMid meet" version="1.0"><defs><clipPath id="e640d29a70"><path d="M 77 75 L 298 75 L 298 299.984375 L 77 299.984375 Z M 77 75 " clip-rule="nonzero"/></clipPath></defs><g clip-path="url(#e640d29a70)"><path d="M 284.9375 120.976562 L 223.621094 120.976562 L 267.25 102.847656 C 284.714844 95.089844 273.886719 69.246094 256.015625 76.183594 L 195.050781 101.519531 C 192.53125 102.921875 189.671875 100.496094 186.6875 100.960938 C 183.660156 100.488281 180.808594 102.972656 178.246094 101.488281 L 117.367188 76.183594 C 116.046875 75.652344 114.679688 75.320312 113.265625 75.1875 C 111.847656 75.054688 110.441406 75.128906 109.046875 75.40625 C 107.652344 75.683594 106.324219 76.152344 105.066406 76.820312 C 103.8125 77.484375 102.675781 78.3125 101.660156 79.3125 C 100.648438 80.308594 99.796875 81.425781 99.109375 82.671875 C 98.421875 83.917969 97.929688 85.234375 97.628906 86.621094 C 97.328125 88.011719 97.230469 89.414062 97.339844 90.828125 C 97.449219 92.246094 97.761719 93.617188 98.269531 94.945312 C 98.996094 96.734375 100.039062 98.316406 101.402344 99.683594 C 102.765625 101.054688 104.339844 102.109375 106.128906 102.847656 L 149.765625 120.976562 L 90.308594 120.976562 C 89.488281 120.976562 88.675781 121.058594 87.871094 121.21875 C 87.0625 121.378906 86.28125 121.617188 85.523438 121.933594 C 84.765625 122.246094 84.042969 122.632812 83.363281 123.085938 C 82.679688 123.542969 82.046875 124.0625 81.464844 124.640625 C 80.886719 125.222656 80.367188 125.851562 79.910156 126.535156 C 79.453125 127.214844 79.066406 127.9375 78.753906 128.695312 C 78.4375 129.449219 78.199219 130.230469 78.039062 131.035156 C 77.878906 131.839844 77.796875 132.652344 77.796875 133.472656 L 77.796875 268.070312 C 77.796875 268.890625 77.878906 269.703125 78.039062 270.507812 C 78.199219 271.3125 78.4375 272.09375 78.753906 272.851562 C 79.066406 273.609375 79.453125 274.328125 79.910156 275.011719 C 80.367188 275.691406 80.886719 276.324219 81.464844 276.902344 C 82.046875 277.484375 82.679688 278 83.363281 278.457031 C 84.042969 278.914062 84.765625 279.296875 85.523438 279.613281 C 86.28125 279.925781 87.0625 280.164062 87.871094 280.324219 C 88.675781 280.484375 89.488281 280.566406 90.308594 280.566406 L 99.667969 280.566406 C 99.695312 281.214844 99.757812 281.855469 99.847656 282.496094 C 99.9375 283.136719 100.058594 283.773438 100.210938 284.402344 C 100.363281 285.027344 100.542969 285.648438 100.753906 286.261719 C 100.964844 286.871094 101.203125 287.472656 101.472656 288.0625 C 101.738281 288.648438 102.035156 289.222656 102.359375 289.785156 C 102.679688 290.34375 103.03125 290.890625 103.40625 291.417969 C 103.78125 291.945312 104.179688 292.453125 104.601562 292.941406 C 105.027344 293.429688 105.472656 293.898438 105.9375 294.347656 C 106.40625 294.792969 106.894531 295.214844 107.402344 295.617188 C 107.914062 296.015625 108.4375 296.390625 108.984375 296.742188 C 109.527344 297.09375 110.085938 297.417969 110.664062 297.714844 C 111.238281 298.011719 111.824219 298.277344 112.425781 298.519531 C 113.027344 298.761719 113.636719 298.972656 114.257812 299.15625 C 114.878906 299.335938 115.507812 299.488281 116.144531 299.613281 C 116.78125 299.734375 117.421875 299.828125 118.066406 299.890625 C 118.710938 299.953125 119.355469 299.984375 120.003906 299.984375 L 253.375 299.984375 C 254.019531 299.984375 254.667969 299.953125 255.3125 299.890625 C 255.957031 299.828125 256.597656 299.734375 257.230469 299.613281 C 257.867188 299.488281 258.496094 299.335938 259.117188 299.15625 C 259.738281 298.972656 260.347656 298.761719 260.949219 298.519531 C 261.550781 298.277344 262.136719 298.007812 262.714844 297.710938 C 263.289062 297.414062 263.847656 297.09375 264.394531 296.742188 C 264.9375 296.390625 265.464844 296.015625 265.972656 295.617188 C 266.480469 295.214844 266.96875 294.792969 267.4375 294.34375 C 267.902344 293.898438 268.351562 293.429688 268.773438 292.941406 C 269.195312 292.453125 269.59375 291.945312 269.96875 291.417969 C 270.34375 290.890625 270.695312 290.34375 271.015625 289.785156 C 271.339844 289.222656 271.636719 288.648438 271.902344 288.0625 C 272.171875 287.472656 272.410156 286.871094 272.621094 286.261719 C 272.832031 285.648438 273.011719 285.027344 273.164062 284.398438 C 273.316406 283.773438 273.4375 283.136719 273.527344 282.496094 C 273.617188 281.855469 273.679688 281.214844 273.707031 280.566406 L 284.9375 280.566406 C 285.757812 280.566406 286.574219 280.484375 287.378906 280.324219 C 288.183594 280.164062 288.964844 279.925781 289.722656 279.613281 C 290.484375 279.296875 291.203125 278.914062 291.886719 278.457031 C 292.570312 278 293.199219 277.484375 293.78125 276.902344 C 294.363281 276.324219 294.882812 275.691406 295.335938 275.011719 C 295.792969 274.328125 296.179688 273.609375 296.496094 272.851562 C 296.808594 272.09375 297.046875 271.3125 297.207031 270.507812 C 297.367188 269.703125 297.449219 268.890625 297.449219 268.070312 L 297.449219 133.472656 C 297.449219 132.652344 297.367188 131.839844 297.207031 131.035156 C 297.046875 130.230469 296.808594 129.453125 296.496094 128.695312 C 296.179688 127.9375 295.792969 127.214844 295.335938 126.535156 C 294.882812 125.851562 294.363281 125.222656 293.78125 124.640625 C 293.199219 124.0625 292.570312 123.542969 291.886719 123.085938 C 291.203125 122.632812 290.484375 122.246094 289.722656 121.933594 C 288.964844 121.617188 288.183594 121.378906 287.378906 121.21875 C 286.574219 121.058594 285.757812 120.976562 284.9375 120.976562 Z M 259.230469 83.867188 C 259.601562 83.714844 259.980469 83.597656 260.375 83.519531 C 260.769531 83.441406 261.164062 83.402344 261.566406 83.402344 C 261.96875 83.398438 262.363281 83.4375 262.757812 83.515625 C 263.152344 83.589844 263.535156 83.707031 263.90625 83.855469 C 264.277344 84.007812 264.628906 84.195312 264.964844 84.414062 C 265.296875 84.636719 265.609375 84.886719 265.894531 85.167969 C 266.179688 85.449219 266.433594 85.753906 266.660156 86.085938 C 266.886719 86.417969 267.078125 86.765625 267.234375 87.132812 C 267.390625 87.503906 267.511719 87.882812 267.59375 88.273438 C 267.675781 88.667969 267.71875 89.0625 267.722656 89.464844 C 267.730469 89.863281 267.695312 90.261719 267.621094 90.65625 C 267.546875 91.046875 267.4375 91.429688 267.289062 91.804688 C 267.140625 92.175781 266.957031 92.53125 266.742188 92.867188 C 266.523438 93.203125 266.277344 93.515625 265.996094 93.800781 C 265.71875 94.089844 265.414062 94.347656 265.085938 94.578125 C 264.753906 94.804688 264.40625 95 264.039062 95.160156 L 207.816406 118.558594 C 207.441406 116.492188 206.773438 114.523438 205.8125 112.652344 C 204.851562 110.78125 203.640625 109.089844 202.179688 107.578125 Z M 199.71875 120.976562 L 173.652344 120.976562 C 173.746094 120.1875 173.910156 119.410156 174.148438 118.652344 C 174.382812 117.890625 174.683594 117.160156 175.050781 116.453125 C 175.421875 115.75 175.851562 115.082031 176.339844 114.453125 C 176.832031 113.828125 177.375 113.25 177.96875 112.722656 C 178.566406 112.191406 179.203125 111.722656 179.882812 111.308594 C 180.566406 110.898438 181.277344 110.550781 182.023438 110.269531 C 182.769531 109.984375 183.53125 109.773438 184.316406 109.628906 C 185.097656 109.484375 185.890625 109.414062 186.6875 109.414062 C 187.484375 109.414062 188.273438 109.484375 189.054688 109.628906 C 189.839844 109.773438 190.605469 109.984375 191.347656 110.269531 C 192.09375 110.550781 192.804688 110.898438 193.488281 111.308594 C 194.167969 111.722656 194.808594 112.191406 195.402344 112.722656 C 196 113.25 196.542969 113.828125 197.03125 114.453125 C 197.523438 115.082031 197.953125 115.75 198.320312 116.453125 C 198.6875 117.160156 198.992188 117.890625 199.226562 118.652344 C 199.460938 119.410156 199.625 120.1875 199.71875 120.976562 Z M 105.996094 91.804688 C 105.78125 91.238281 105.65625 90.65625 105.613281 90.054688 C 105.570312 89.449219 105.613281 88.855469 105.746094 88.265625 C 105.875 87.675781 106.089844 87.117188 106.382812 86.589844 C 106.675781 86.0625 107.042969 85.589844 107.472656 85.167969 C 107.90625 84.746094 108.390625 84.398438 108.925781 84.117188 C 109.464844 83.835938 110.027344 83.640625 110.621094 83.523438 C 111.214844 83.410156 111.8125 83.382812 112.414062 83.441406 C 113.015625 83.5 113.59375 83.644531 114.15625 83.871094 L 171.191406 107.578125 C 169.734375 109.085938 168.523438 110.773438 167.566406 112.636719 C 166.605469 114.503906 165.9375 116.464844 165.5625 118.527344 L 109.34375 95.160156 C 108.582031 94.847656 107.910156 94.398438 107.332031 93.816406 C 106.75 93.234375 106.304688 92.5625 105.996094 91.804688 Z M 253.375 291.652344 L 120.003906 291.652344 C 119.253906 291.652344 118.507812 291.582031 117.769531 291.445312 C 117.03125 291.304688 116.3125 291.097656 115.613281 290.824219 C 114.917969 290.550781 114.25 290.214844 113.613281 289.816406 C 112.976562 289.417969 112.382812 288.964844 111.832031 288.457031 C 111.28125 287.949219 110.78125 287.390625 110.335938 286.789062 C 109.886719 286.1875 109.5 285.546875 109.175781 284.871094 C 108.847656 284.199219 108.585938 283.5 108.390625 282.773438 C 108.195312 282.050781 108.066406 281.316406 108.007812 280.566406 L 265.367188 280.566406 C 265.308594 281.316406 265.179688 282.050781 264.984375 282.773438 C 264.789062 283.5 264.527344 284.199219 264.199219 284.871094 C 263.875 285.546875 263.488281 286.1875 263.039062 286.789062 C 262.59375 287.390625 262.09375 287.945312 261.542969 288.457031 C 260.992188 288.964844 260.398438 289.417969 259.761719 289.816406 C 259.128906 290.214844 258.460938 290.550781 257.761719 290.824219 C 257.0625 291.097656 256.34375 291.304688 255.605469 291.445312 C 254.867188 291.582031 254.125 291.652344 253.375 291.652344 Z M 289.109375 268.070312 C 289.109375 268.34375 289.082031 268.617188 289.027344 268.882812 C 288.976562 269.152344 288.894531 269.414062 288.792969 269.664062 C 288.6875 269.917969 288.558594 270.15625 288.40625 270.386719 C 288.253906 270.613281 288.082031 270.824219 287.886719 271.015625 C 287.691406 271.210938 287.484375 271.382812 287.253906 271.535156 C 287.027344 271.6875 286.789062 271.8125 286.535156 271.917969 C 286.28125 272.023438 286.019531 272.101562 285.753906 272.15625 C 285.484375 272.210938 285.210938 272.238281 284.9375 272.238281 L 90.308594 272.238281 C 90.035156 272.238281 89.765625 272.210938 89.496094 272.15625 C 89.226562 272.101562 88.96875 272.023438 88.714844 271.917969 C 88.460938 271.8125 88.222656 271.6875 87.992188 271.535156 C 87.765625 271.382812 87.554688 271.210938 87.363281 271.015625 C 87.167969 270.824219 86.996094 270.613281 86.84375 270.382812 C 86.691406 270.15625 86.5625 269.917969 86.457031 269.664062 C 86.351562 269.414062 86.273438 269.152344 86.21875 268.882812 C 86.167969 268.617188 86.140625 268.34375 86.140625 268.070312 L 86.140625 133.472656 C 86.140625 133.199219 86.167969 132.929688 86.21875 132.660156 C 86.273438 132.394531 86.351562 132.132812 86.457031 131.878906 C 86.5625 131.628906 86.691406 131.386719 86.84375 131.160156 C 86.996094 130.933594 87.167969 130.722656 87.363281 130.53125 C 87.554688 130.335938 87.765625 130.164062 87.992188 130.011719 C 88.222656 129.859375 88.460938 129.730469 88.714844 129.625 C 88.96875 129.523438 89.226562 129.441406 89.496094 129.390625 C 89.765625 129.335938 90.035156 129.308594 90.308594 129.308594 L 284.9375 129.308594 C 285.210938 129.308594 285.484375 129.335938 285.75 129.386719 C 286.019531 129.441406 286.28125 129.519531 286.535156 129.625 C 286.785156 129.730469 287.027344 129.859375 287.253906 130.011719 C 287.484375 130.164062 287.691406 130.335938 287.886719 130.527344 C 288.082031 130.722656 288.253906 130.933594 288.40625 131.160156 C 288.558594 131.386719 288.6875 131.628906 288.789062 131.878906 C 288.894531 132.132812 288.976562 132.394531 289.027344 132.660156 C 289.082031 132.929688 289.109375 133.199219 289.109375 133.472656 Z M 289.109375 268.070312 " fill-opacity="1" fill-rule="nonzero"/></g><path d="M 217.65625 138.195312 L 108.394531 138.195312 C 107.847656 138.195312 107.304688 138.25 106.769531 138.359375 C 106.230469 138.464844 105.710938 138.625 105.203125 138.832031 C 104.699219 139.042969 104.21875 139.300781 103.761719 139.601562 C 103.308594 139.90625 102.886719 140.253906 102.5 140.640625 C 102.113281 141.027344 101.765625 141.445312 101.460938 141.902344 C 101.160156 142.355469 100.902344 142.835938 100.691406 143.339844 C 100.480469 143.84375 100.324219 144.367188 100.214844 144.902344 C 100.109375 145.4375 100.054688 145.980469 100.054688 146.527344 L 100.054688 255.015625 C 100.054688 255.5625 100.109375 256.101562 100.214844 256.636719 C 100.324219 257.175781 100.480469 257.695312 100.691406 258.199219 C 100.902344 258.707031 101.160156 259.183594 101.460938 259.640625 C 101.765625 260.09375 102.113281 260.515625 102.5 260.902344 C 102.886719 261.289062 103.308594 261.632812 103.761719 261.9375 C 104.21875 262.242188 104.699219 262.5 105.203125 262.707031 C 105.710938 262.917969 106.230469 263.074219 106.769531 263.183594 C 107.304688 263.289062 107.847656 263.34375 108.394531 263.34375 L 217.65625 263.34375 C 218.207031 263.34375 218.746094 263.289062 219.285156 263.183594 C 219.820312 263.074219 220.34375 262.917969 220.847656 262.707031 C 221.355469 262.5 221.835938 262.242188 222.289062 261.9375 C 222.746094 261.632812 223.164062 261.289062 223.554688 260.902344 C 223.941406 260.515625 224.285156 260.09375 224.589844 259.640625 C 224.894531 259.183594 225.152344 258.707031 225.359375 258.199219 C 225.570312 257.695312 225.730469 257.175781 225.835938 256.636719 C 225.945312 256.101562 226 255.5625 226 255.015625 L 226 146.527344 C 226 145.980469 225.945312 145.4375 225.835938 144.902344 C 225.730469 144.367188 225.570312 143.84375 225.359375 143.339844 C 225.152344 142.835938 224.894531 142.355469 224.589844 141.902344 C 224.285156 141.445312 223.941406 141.027344 223.554688 140.640625 C 223.164062 140.253906 222.746094 139.90625 222.289062 139.601562 C 221.835938 139.300781 221.355469 139.042969 220.847656 138.832031 C 220.34375 138.625 219.820312 138.464844 219.285156 138.359375 C 218.746094 138.25 218.207031 138.195312 217.65625 138.195312 Z M 108.394531 255.015625 L 108.394531 146.527344 L 217.65625 146.527344 L 217.660156 255.015625 Z M 108.394531 255.015625 " fill-opacity="1" fill-rule="nonzero"/><path d="M 253.328125 218.273438 L 264.359375 218.273438 C 265.175781 218.273438 265.988281 218.191406 266.792969 218.03125 C 267.59375 217.871094 268.375 217.632812 269.128906 217.320312 C 269.886719 217.007812 270.605469 216.621094 271.285156 216.167969 C 271.964844 215.714844 272.597656 215.195312 273.175781 214.617188 C 273.753906 214.039062 274.273438 213.410156 274.726562 212.730469 C 275.183594 212.050781 275.566406 211.332031 275.878906 210.578125 C 276.195312 209.820312 276.429688 209.042969 276.589844 208.242188 C 276.75 207.4375 276.832031 206.628906 276.832031 205.8125 L 276.832031 158.035156 C 276.832031 157.214844 276.75 156.40625 276.589844 155.605469 C 276.429688 154.804688 276.195312 154.023438 275.878906 153.269531 C 275.566406 152.511719 275.179688 151.796875 274.726562 151.117188 C 274.269531 150.4375 273.753906 149.808594 273.175781 149.230469 C 272.597656 148.648438 271.964844 148.132812 271.285156 147.679688 C 270.605469 147.226562 269.886719 146.839844 269.128906 146.527344 C 268.375 146.214844 267.59375 145.976562 266.789062 145.816406 C 265.988281 145.65625 265.175781 145.574219 264.359375 145.574219 L 253.328125 145.574219 C 252.507812 145.574219 251.699219 145.65625 250.894531 145.816406 C 250.09375 145.976562 249.3125 146.214844 248.554688 146.527344 C 247.800781 146.839844 247.082031 147.222656 246.398438 147.679688 C 245.71875 148.132812 245.089844 148.648438 244.507812 149.226562 C 243.929688 149.804688 243.414062 150.4375 242.957031 151.117188 C 242.503906 151.796875 242.117188 152.511719 241.804688 153.269531 C 241.488281 154.023438 241.253906 154.800781 241.09375 155.605469 C 240.929688 156.40625 240.851562 157.214844 240.847656 158.035156 L 240.847656 205.808594 C 240.851562 206.628906 240.929688 207.4375 241.089844 208.242188 C 241.253906 209.042969 241.488281 209.820312 241.804688 210.578125 C 242.117188 211.332031 242.503906 212.050781 242.957031 212.730469 C 243.414062 213.410156 243.929688 214.039062 244.507812 214.617188 C 245.089844 215.195312 245.71875 215.714844 246.398438 216.167969 C 247.082031 216.625 247.800781 217.007812 248.554688 217.320312 C 249.3125 217.632812 250.09375 217.871094 250.894531 218.03125 C 251.699219 218.191406 252.507812 218.273438 253.328125 218.273438 Z M 249.191406 158.035156 C 249.191406 157.761719 249.21875 157.496094 249.269531 157.230469 C 249.324219 156.964844 249.402344 156.703125 249.507812 156.453125 C 249.609375 156.203125 249.738281 155.964844 249.890625 155.742188 C 250.039062 155.515625 250.210938 155.308594 250.40625 155.117188 C 250.597656 154.925781 250.804688 154.753906 251.03125 154.601562 C 251.257812 154.453125 251.496094 154.324219 251.746094 154.21875 C 251.996094 154.117188 252.253906 154.039062 252.523438 153.984375 C 252.789062 153.933594 253.058594 153.90625 253.328125 153.90625 L 264.359375 153.90625 C 264.628906 153.90625 264.898438 153.933594 265.164062 153.984375 C 265.429688 154.039062 265.6875 154.117188 265.941406 154.222656 C 266.191406 154.324219 266.429688 154.453125 266.652344 154.601562 C 266.878906 154.753906 267.089844 154.925781 267.28125 155.117188 C 267.472656 155.308594 267.644531 155.515625 267.792969 155.742188 C 267.945312 155.96875 268.074219 156.203125 268.175781 156.453125 C 268.28125 156.707031 268.359375 156.964844 268.410156 157.230469 C 268.464844 157.496094 268.492188 157.761719 268.492188 158.035156 L 268.492188 205.808594 C 268.492188 206.082031 268.464844 206.351562 268.414062 206.617188 C 268.359375 206.882812 268.28125 207.140625 268.175781 207.390625 C 268.074219 207.640625 267.945312 207.878906 267.792969 208.105469 C 267.644531 208.332031 267.472656 208.539062 267.28125 208.730469 C 267.089844 208.921875 266.878906 209.09375 266.65625 209.246094 C 266.429688 209.394531 266.191406 209.523438 265.941406 209.625 C 265.6875 209.730469 265.429688 209.808594 265.164062 209.863281 C 264.898438 209.917969 264.628906 209.941406 264.359375 209.941406 L 253.328125 209.941406 C 253.058594 209.941406 252.789062 209.917969 252.523438 209.863281 C 252.253906 209.808594 251.996094 209.730469 251.746094 209.628906 C 251.496094 209.523438 251.257812 209.394531 251.03125 209.246094 C 250.804688 209.09375 250.597656 208.921875 250.402344 208.730469 C 250.210938 208.539062 250.039062 208.332031 249.890625 208.105469 C 249.738281 207.878906 249.609375 207.640625 249.507812 207.390625 C 249.402344 207.140625 249.324219 206.882812 249.269531 206.617188 C 249.21875 206.351562 249.191406 206.082031 249.191406 205.808594 Z M 249.191406 158.035156 " fill-opacity="1" fill-rule="nonzero"/><path d="M 258.84375 222.554688 C 258.222656 222.554688 257.605469 222.589844 256.988281 222.652344 C 256.375 222.714844 255.761719 222.808594 255.15625 222.933594 C 254.546875 223.054688 253.949219 223.207031 253.355469 223.390625 C 252.765625 223.570312 252.183594 223.78125 251.613281 224.019531 C 251.039062 224.257812 250.480469 224.523438 249.9375 224.816406 C 249.390625 225.109375 248.863281 225.429688 248.347656 225.777344 C 247.835938 226.121094 247.339844 226.488281 246.859375 226.882812 C 246.382812 227.277344 245.925781 227.691406 245.488281 228.132812 C 245.050781 228.570312 244.636719 229.027344 244.246094 229.507812 C 243.851562 229.988281 243.484375 230.484375 243.144531 231 C 242.800781 231.511719 242.480469 232.042969 242.191406 232.589844 C 241.898438 233.136719 241.636719 233.695312 241.398438 234.265625 C 241.164062 234.839844 240.957031 235.417969 240.777344 236.011719 C 240.597656 236.605469 240.449219 237.203125 240.328125 237.808594 C 240.207031 238.417969 240.117188 239.027344 240.054688 239.644531 C 239.996094 240.257812 239.964844 240.875 239.964844 241.496094 C 239.964844 242.113281 239.996094 242.730469 240.054688 243.347656 C 240.117188 243.960938 240.207031 244.574219 240.328125 245.179688 C 240.449219 245.785156 240.597656 246.386719 240.777344 246.976562 C 240.957031 247.570312 241.164062 248.152344 241.398438 248.722656 C 241.636719 249.296875 241.898438 249.855469 242.191406 250.398438 C 242.484375 250.945312 242.800781 251.476562 243.144531 251.992188 C 243.484375 252.507812 243.855469 253.003906 244.246094 253.480469 C 244.636719 253.960938 245.050781 254.417969 245.488281 254.859375 C 245.925781 255.296875 246.382812 255.710938 246.859375 256.105469 C 247.339844 256.5 247.835938 256.867188 248.347656 257.214844 C 248.863281 257.558594 249.390625 257.878906 249.9375 258.171875 C 250.484375 258.464844 251.042969 258.730469 251.613281 258.96875 C 252.183594 259.207031 252.765625 259.417969 253.359375 259.601562 C 253.949219 259.78125 254.550781 259.933594 255.15625 260.058594 C 255.761719 260.179688 256.375 260.273438 256.992188 260.335938 C 257.605469 260.402344 258.222656 260.433594 258.84375 260.4375 C 259.464844 260.433594 260.082031 260.402344 260.695312 260.335938 C 261.3125 260.273438 261.925781 260.179688 262.53125 260.058594 C 263.136719 259.933594 263.738281 259.78125 264.328125 259.601562 C 264.921875 259.417969 265.503906 259.207031 266.074219 258.96875 C 266.644531 258.730469 267.203125 258.464844 267.75 258.171875 C 268.296875 257.878906 268.824219 257.558594 269.339844 257.214844 C 269.851562 256.867188 270.347656 256.5 270.824219 256.105469 C 271.304688 255.710938 271.761719 255.296875 272.199219 254.859375 C 272.636719 254.417969 273.050781 253.960938 273.441406 253.480469 C 273.832031 253.003906 274.199219 252.507812 274.542969 251.992188 C 274.886719 251.476562 275.203125 250.945312 275.496094 250.398438 C 275.785156 249.855469 276.050781 249.296875 276.285156 248.722656 C 276.523438 248.152344 276.730469 247.570312 276.910156 246.976562 C 277.089844 246.386719 277.238281 245.785156 277.359375 245.179688 C 277.480469 244.574219 277.570312 243.960938 277.632812 243.347656 C 277.691406 242.730469 277.722656 242.113281 277.722656 241.496094 C 277.722656 240.875 277.691406 240.257812 277.632812 239.644531 C 277.570312 239.027344 277.480469 238.417969 277.359375 237.808594 C 277.238281 237.203125 277.089844 236.605469 276.910156 236.011719 C 276.730469 235.417969 276.523438 234.839844 276.285156 234.265625 C 276.050781 233.695312 275.785156 233.136719 275.496094 232.589844 C 275.203125 232.042969 274.886719 231.511719 274.542969 231 C 274.199219 230.484375 273.832031 229.988281 273.441406 229.507812 C 273.050781 229.027344 272.636719 228.570312 272.199219 228.132812 C 271.761719 227.691406 271.304688 227.277344 270.824219 226.882812 C 270.347656 226.488281 269.851562 226.121094 269.339844 225.777344 C 268.824219 225.429688 268.292969 225.109375 267.75 224.816406 C 267.203125 224.523438 266.644531 224.257812 266.074219 224.019531 C 265.503906 223.78125 264.921875 223.570312 264.328125 223.390625 C 263.738281 223.207031 263.136719 223.054688 262.53125 222.933594 C 261.925781 222.808594 261.3125 222.714844 260.695312 222.652344 C 260.082031 222.589844 259.460938 222.554688 258.84375 222.554688 Z M 258.84375 252.105469 C 258.148438 252.101562 257.457031 252.03125 256.777344 251.894531 C 256.09375 251.757812 255.433594 251.554688 254.789062 251.285156 C 254.148438 251.019531 253.539062 250.691406 252.960938 250.304688 C 252.382812 249.917969 251.847656 249.476562 251.355469 248.984375 C 250.863281 248.492188 250.425781 247.957031 250.039062 247.378906 C 249.65625 246.800781 249.328125 246.1875 249.0625 245.546875 C 248.796875 244.902344 248.597656 244.242188 248.460938 243.558594 C 248.324219 242.878906 248.257812 242.191406 248.257812 241.496094 C 248.257812 240.800781 248.324219 240.109375 248.460938 239.429688 C 248.597656 238.746094 248.796875 238.085938 249.0625 237.441406 C 249.328125 236.800781 249.65625 236.191406 250.039062 235.613281 C 250.425781 235.035156 250.863281 234.496094 251.355469 234.003906 C 251.847656 233.511719 252.382812 233.074219 252.960938 232.6875 C 253.539062 232.296875 254.148438 231.96875 254.789062 231.703125 C 255.433594 231.433594 256.09375 231.230469 256.777344 231.09375 C 257.457031 230.957031 258.148438 230.886719 258.84375 230.882812 C 259.539062 230.886719 260.230469 230.957031 260.910156 231.09375 C 261.59375 231.230469 262.253906 231.433594 262.898438 231.703125 C 263.539062 231.96875 264.148438 232.296875 264.726562 232.6875 C 265.304688 233.074219 265.839844 233.511719 266.332031 234.003906 C 266.820312 234.496094 267.261719 235.035156 267.644531 235.613281 C 268.03125 236.191406 268.359375 236.800781 268.625 237.441406 C 268.890625 238.085938 269.089844 238.746094 269.226562 239.429688 C 269.359375 240.109375 269.429688 240.800781 269.429688 241.496094 C 269.429688 242.191406 269.359375 242.878906 269.226562 243.558594 C 269.089844 244.242188 268.890625 244.902344 268.625 245.546875 C 268.359375 246.1875 268.03125 246.800781 267.644531 247.378906 C 267.261719 247.957031 266.820312 248.492188 266.332031 248.984375 C 265.839844 249.476562 265.304688 249.917969 264.726562 250.304688 C 264.148438 250.691406 263.539062 251.019531 262.898438 251.285156 C 262.253906 251.554688 261.59375 251.757812 260.910156 251.894531 C 260.226562 252.03125 259.539062 252.101562 258.84375 252.105469 Z M 258.84375 252.105469 " fill-opacity="1" fill-rule="nonzero"/><path d="M 181.667969 163.078125 C 181.074219 162.414062 180.449219 161.78125 179.789062 161.183594 C 179.128906 160.582031 178.4375 160.019531 177.71875 159.492188 C 177 158.96875 176.253906 158.480469 175.484375 158.03125 C 174.710938 157.585938 173.921875 157.179688 173.105469 156.8125 C 172.292969 156.449219 171.460938 156.128906 170.613281 155.851562 C 169.765625 155.574219 168.90625 155.34375 168.035156 155.15625 C 167.164062 154.96875 166.285156 154.828125 165.394531 154.734375 C 164.507812 154.640625 163.621094 154.59375 162.726562 154.59375 C 161.835938 154.59375 160.945312 154.640625 160.058594 154.734375 C 159.171875 154.828125 158.292969 154.964844 157.421875 155.152344 C 156.550781 155.339844 155.6875 155.570312 154.839844 155.847656 C 153.992188 156.125 153.164062 156.445312 152.347656 156.808594 C 151.535156 157.171875 150.742188 157.578125 149.972656 158.027344 C 149.199219 158.472656 148.457031 158.960938 147.734375 159.488281 C 147.015625 160.011719 146.328125 160.574219 145.664062 161.171875 C 145.003906 161.773438 144.378906 162.40625 143.785156 163.070312 C 142.496094 162.960938 141.207031 162.957031 139.917969 163.058594 C 138.628906 163.164062 137.359375 163.371094 136.101562 163.683594 C 134.847656 164 133.628906 164.414062 132.441406 164.929688 C 131.257812 165.445312 130.121094 166.054688 129.039062 166.757812 C 127.953125 167.460938 126.933594 168.25 125.980469 169.121094 C 125.023438 169.992188 124.148438 170.9375 123.351562 171.953125 C 122.554688 172.96875 121.847656 174.046875 121.226562 175.179688 C 120.609375 176.3125 120.085938 177.492188 119.664062 178.710938 C 119.238281 179.929688 118.917969 181.179688 118.703125 182.453125 C 118.484375 183.722656 118.375 185.007812 118.371094 186.296875 C 118.363281 187.589844 118.464844 188.875 118.675781 190.148438 C 118.882812 191.421875 119.195312 192.671875 119.609375 193.894531 C 120.027344 195.117188 120.539062 196.296875 121.152344 197.4375 C 121.761719 198.574219 122.464844 199.65625 123.253906 200.675781 C 124.042969 201.699219 124.914062 202.648438 125.859375 203.527344 C 126.808594 204.40625 127.824219 205.203125 128.902344 205.914062 L 128.902344 238.089844 C 128.902344 238.578125 128.949219 239.0625 129.046875 239.542969 C 129.140625 240.019531 129.28125 240.488281 129.46875 240.9375 C 129.65625 241.390625 129.886719 241.820312 130.160156 242.226562 C 130.429688 242.632812 130.738281 243.011719 131.085938 243.355469 C 131.429688 243.703125 131.808594 244.011719 132.214844 244.285156 C 132.621094 244.558594 133.050781 244.789062 133.503906 244.976562 C 133.953125 245.164062 134.421875 245.304688 134.902344 245.402344 C 135.382812 245.5 135.867188 245.546875 136.355469 245.546875 L 188.242188 245.546875 C 188.734375 245.546875 189.21875 245.5 189.699219 245.402344 C 190.179688 245.304688 190.644531 245.164062 191.097656 244.976562 C 191.546875 244.789062 191.976562 244.558594 192.386719 244.285156 C 192.792969 244.011719 193.167969 243.703125 193.515625 243.355469 C 193.859375 243.011719 194.167969 242.632812 194.441406 242.226562 C 194.710938 241.820312 194.941406 241.390625 195.128906 240.9375 C 195.316406 240.488281 195.457031 240.019531 195.554688 239.542969 C 195.648438 239.0625 195.695312 238.578125 195.695312 238.089844 L 195.695312 205.980469 C 196.796875 205.300781 197.835938 204.535156 198.808594 203.683594 C 199.78125 202.832031 200.675781 201.902344 201.492188 200.902344 C 202.3125 199.898438 203.039062 198.835938 203.679688 197.714844 C 204.320312 196.589844 204.863281 195.421875 205.308594 194.207031 C 205.753906 192.992188 206.09375 191.75 206.328125 190.480469 C 206.566406 189.210938 206.695312 187.929688 206.71875 186.636719 C 206.742188 185.34375 206.65625 184.058594 206.464844 182.78125 C 206.273438 181.503906 205.976562 180.25 205.574219 179.019531 C 205.171875 177.792969 204.671875 176.605469 204.070312 175.460938 C 203.472656 174.3125 202.78125 173.226562 201.996094 172.195312 C 201.214844 171.167969 200.351562 170.210938 199.410156 169.324219 C 198.46875 168.4375 197.460938 167.636719 196.382812 166.917969 C 195.304688 166.199219 194.179688 165.574219 192.996094 165.046875 C 191.816406 164.515625 190.601562 164.089844 189.347656 163.761719 C 188.097656 163.4375 186.824219 163.214844 185.535156 163.101562 C 184.246094 162.984375 182.957031 162.976562 181.667969 163.078125 Z M 188.242188 241.382812 L 136.355469 241.382812 C 135.917969 241.382812 135.5 241.296875 135.097656 241.128906 C 134.695312 240.960938 134.339844 240.722656 134.03125 240.414062 C 133.722656 240.105469 133.488281 239.75 133.320312 239.347656 C 133.15625 238.941406 133.074219 238.523438 133.074219 238.089844 L 133.070312 227.21875 L 191.527344 227.21875 L 191.527344 238.089844 C 191.527344 238.523438 191.445312 238.941406 191.277344 239.347656 C 191.113281 239.75 190.875 240.105469 190.566406 240.414062 C 190.257812 240.722656 189.902344 240.960938 189.5 241.128906 C 189.097656 241.296875 188.679688 241.382812 188.242188 241.382812 Z M 192.558594 203.019531 C 192.242188 203.207031 191.988281 203.460938 191.804688 203.78125 C 191.617188 204.101562 191.527344 204.449219 191.527344 204.816406 L 191.527344 223.054688 L 133.070312 223.054688 L 133.066406 204.816406 C 133.066406 204.46875 132.980469 204.136719 132.816406 203.828125 C 132.648438 203.519531 132.417969 203.269531 132.121094 203.078125 C 131.074219 202.417969 130.09375 201.671875 129.183594 200.835938 C 128.273438 199.996094 127.445312 199.085938 126.703125 198.097656 C 125.960938 197.105469 125.3125 196.058594 124.761719 194.953125 C 124.210938 193.84375 123.765625 192.695312 123.425781 191.507812 C 123.085938 190.320312 122.855469 189.109375 122.738281 187.878906 C 122.617188 186.648438 122.613281 185.417969 122.722656 184.1875 C 122.828125 182.953125 123.046875 181.742188 123.378906 180.550781 C 123.707031 179.359375 124.144531 178.207031 124.683594 177.097656 C 125.488281 175.660156 126.457031 174.347656 127.597656 173.15625 C 128.734375 171.96875 130.003906 170.9375 131.40625 170.074219 C 132.804688 169.207031 134.292969 168.527344 135.867188 168.039062 C 137.4375 167.550781 139.046875 167.269531 140.695312 167.191406 C 138.90625 169.523438 133.550781 183.628906 138.777344 183.992188 C 139.054688 183.988281 139.320312 183.929688 139.574219 183.820312 C 139.828125 183.710938 140.050781 183.554688 140.242188 183.355469 C 140.433594 183.15625 140.582031 182.929688 140.679688 182.671875 C 140.78125 182.414062 140.832031 182.148438 140.824219 181.871094 C 140.238281 162.539062 163.542969 150.890625 177.527344 164.765625 C 178.6875 165.867188 179.722656 167.078125 180.632812 168.390625 C 181.542969 169.707031 182.308594 171.097656 182.929688 172.570312 C 183.554688 174.042969 184.019531 175.5625 184.328125 177.132812 C 184.636719 178.699219 184.78125 180.28125 184.765625 181.878906 C 184.761719 182.15625 184.8125 182.421875 184.914062 182.679688 C 185.015625 182.933594 185.164062 183.160156 185.355469 183.359375 C 185.550781 183.554688 185.773438 183.710938 186.027344 183.816406 C 186.28125 183.925781 186.546875 183.984375 186.820312 183.988281 C 187.097656 183.992188 187.363281 183.941406 187.621094 183.839844 C 187.878906 183.738281 188.105469 183.589844 188.304688 183.398438 C 188.5 183.207031 188.65625 182.984375 188.765625 182.730469 C 188.875 182.476562 188.929688 182.210938 188.9375 181.9375 C 188.960938 179.34375 188.625 176.796875 187.921875 174.300781 C 187.222656 171.800781 186.191406 169.453125 184.820312 167.246094 C 185.84375 167.320312 186.855469 167.472656 187.855469 167.707031 C 188.855469 167.941406 189.828125 168.253906 190.777344 168.644531 C 191.722656 169.039062 192.636719 169.503906 193.507812 170.042969 C 194.382812 170.578125 195.207031 171.183594 195.980469 171.855469 C 196.757812 172.527344 197.472656 173.253906 198.132812 174.042969 C 198.789062 174.828125 199.378906 175.664062 199.902344 176.542969 C 200.425781 177.425781 200.875 178.34375 201.25 179.296875 C 201.625 180.253906 201.917969 181.230469 202.136719 182.230469 C 202.351562 183.234375 202.488281 184.246094 202.539062 185.269531 C 202.59375 186.292969 202.566406 187.316406 202.453125 188.332031 C 202.339844 189.351562 202.148438 190.355469 201.875 191.34375 C 201.601562 192.332031 201.25 193.289062 200.820312 194.222656 C 200.390625 195.152344 199.890625 196.042969 199.316406 196.894531 C 198.746094 197.742188 198.109375 198.542969 197.40625 199.289062 C 196.703125 200.039062 195.945312 200.726562 195.132812 201.351562 C 194.320312 201.976562 193.464844 202.53125 192.558594 203.019531 Z M 192.558594 203.019531 " fill-opacity="1" fill-rule="nonzero"/><path d="M 139.933594 190.453125 C 139.585938 190.972656 139.265625 191.511719 138.980469 192.066406 C 138.691406 192.625 138.433594 193.195312 138.210938 193.78125 C 137.988281 194.367188 137.796875 194.960938 137.640625 195.566406 C 137.484375 196.175781 137.359375 196.789062 137.273438 197.40625 C 137.183594 198.027344 137.132812 198.652344 137.113281 199.277344 C 137.097656 199.902344 137.113281 200.527344 137.167969 201.152344 C 137.21875 201.777344 137.304688 202.394531 137.429688 203.011719 C 137.550781 203.625 137.707031 204.230469 137.898438 204.828125 C 138.089844 205.425781 138.3125 206.007812 138.566406 206.582031 C 138.824219 207.152344 139.109375 207.707031 139.429688 208.246094 C 139.75 208.785156 140.097656 209.308594 140.472656 209.808594 C 140.851562 210.308594 141.253906 210.785156 141.6875 211.242188 C 142.117188 211.695312 142.570312 212.125 143.050781 212.53125 C 143.53125 212.933594 144.03125 213.308594 144.550781 213.65625 C 145.074219 214.003906 145.613281 214.324219 146.171875 214.609375 C 146.726562 214.898438 147.300781 215.152344 147.886719 215.375 C 146.5625 213.585938 145.394531 211.703125 144.382812 209.71875 C 143.371094 207.738281 142.523438 205.691406 141.847656 203.570312 C 141.171875 201.449219 140.675781 199.289062 140.351562 197.089844 C 140.03125 194.886719 139.890625 192.675781 139.933594 190.453125 Z M 139.933594 190.453125 " fill-opacity="1" fill-rule="nonzero"/><path d="M 183.242188 203.816406 C 181.78125 208.132812 179.53125 211.984375 176.492188 215.375 C 177.753906 215.058594 178.960938 214.582031 180.101562 213.949219 C 181.242188 213.316406 182.28125 212.546875 183.222656 211.640625 C 184.164062 210.738281 184.972656 209.730469 185.648438 208.613281 C 186.328125 207.5 186.847656 206.316406 187.21875 205.066406 C 187.625 203.832031 187.875 202.566406 187.960938 201.265625 C 188.046875 199.96875 187.96875 198.679688 187.726562 197.402344 C 187.480469 196.121094 187.082031 194.894531 186.527344 193.71875 C 185.972656 192.542969 185.277344 191.453125 184.441406 190.453125 C 184.878906 194.984375 184.480469 199.4375 183.242188 203.816406 Z M 183.242188 203.816406 " fill-opacity="1" fill-rule="nonzero"/><path d="M 159.320312 201.59375 C 159.839844 216.550781 162.96875 216.550781 163.488281 201.59375 C 162.992188 186.636719 159.816406 186.632812 159.320312 201.59375 Z M 159.320312 201.59375 " fill-opacity="1" fill-rule="nonzero"/></svg>